<?xml version="1.0" encoding="utf-8"?>
<!-- Generator: Adobe Illustrator 16.0.0, SVG Export Plug-In . SVG Version: 6.00 Build 0)  -->
<!DOCTYPE svg PUBLIC "-//W3C//DTD SVG 1.1//EN" "http://www.w3.org/Graphics/SVG/1.1/DTD/svg11.dtd">
<svg version="1.1" id="Calque_1" xmlns="http://www.w3.org/2000/svg" xmlns:xlink="http://www.w3.org/1999/xlink" x="0px" y="0px"
	 width="73px" height="73px" viewBox="0 0 73 73" enable-background="new 0 0 73 73" xml:space="preserve">
<g id="Calque_1_1_" display="none">
	
		<image display="inline" overflow="visible" enable-background="new    " width="97" height="95" xlink:href="43C6342A.png"  transform="matrix(0.9999 0 0 0.9999 371.9995 250.2803)">
	</image>
</g>
<g id="Calque_2">
	<circle fill="#FCE72F" cx="36.5" cy="36.5" r="36.5"/>
	<path fill="#FFFFFF" d="M36.5,13.206c6.06,0,9.278,3.051,11.378,5.275c2.105,2.227,0.195,11.879,0.195,12.744
		c0,0.867-0.105,0.062,1.502,0.062s-2.129,8.606-2.613,8.842c-0.482,0.236-0.578-0.541-1.113,0
		c-1.236,1.484-2.418,7.646-0.318,11.232c2.105,3.586,16.678,7.926,16.678,7.926s8.918-8.385,8.918-22.854
		c0-16.287-11.996-34.623-34.624-34.623c-22.63,0-34.625,18.336-34.625,34.623c0,14.471,8.917,22.854,8.917,22.854
		s13.094-3.813,15.195-7.396c2.104-3.587,1.238-10.39,0-11.871c-0.533-0.541-0.627,0.233-1.111,0
		c-0.484-0.234-4.221-8.842-2.613-8.842c1.608,0,1.5,0.805,1.5-0.062s-2.316-9.741-0.742-12.367c0.644-1.071,2.02-2.203,3.4-2.565
		C29.404,15.396,29.082,13.472,36.5,13.206z"/>
</g>
</svg>
