<?xml version="1.0" encoding="utf-8"?>
<!-- Generator: Adobe Illustrator 16.0.0, SVG Export Plug-In . SVG Version: 6.00 Build 0)  -->
<!DOCTYPE svg PUBLIC "-//W3C//DTD SVG 1.1//EN" "http://www.w3.org/Graphics/SVG/1.1/DTD/svg11.dtd">
<svg version="1.1" id="Calque_1" xmlns="http://www.w3.org/2000/svg" xmlns:xlink="http://www.w3.org/1999/xlink" x="0px" y="0px"
	 width="242.086px" height="404.98px" viewBox="0 0 242.086 404.98" enable-background="new 0 0 242.086 404.98"
	 xml:space="preserve">
<g>
	<path fill="#FFFFFF" d="M64.176,168.791c-0.276,4.473,1.337,5.65,5.672,5.619c25.14-0.18,50.281-0.176,75.42-0.002
		c4.318,0.029,5.783-1.172,5.736-5.633c-0.216-20.145,0.058-40.293-0.265-60.436c-0.047-2.938-1.838-6.205-3.685-8.676
		c-2.966-3.97-7.071-7.102-9.936-11.13c-4.28-6.034-2.064-12.587,4.717-14.814c2.597-0.854,5.479-0.836,8.949-1.315
		c0-9.471,0.091-19.058-0.166-28.635c-0.021-0.751-2.404-2.061-3.695-2.066c-26.309-0.122-52.612-0.067-78.918-0.125
		c-2.781-0.006-3.813,1.021-3.783,3.815c0.104,9.655-0.041,19.313,0.137,28.968c0.024,1.332,0.998,3.2,2.105,3.87
		c8.939,5.408,9.838,9.687,3.41,17.731c5.521,7.427,5.536,8.896,0.181,16.662c3.546,5.691,5.354,11.367-0.297,16.777
		c6.521,8.043,5.582,12.484-3.146,17.586c-1.212,0.707-2.178,2.822-2.245,4.33"/>
	<path d="M60.303,152.016c-0.032-1.648-0.936-4.043-2.196-4.785c-9.069-5.311-10.046-9.736-3.462-17.662
		c-5.588-8.07-5.606-9.66-0.192-16.52c-5.376-9.39-5.358-10.118,0.333-16.906c-6.709-8.154-5.774-12.568,3.363-17.992
		c1.252-0.742,2.13-3.129,2.155-4.77c0.18-11.994,0.079-23.991,0.103-35.988c0.024-11.85,6.332-18.396,18.028-18.45
		c19.327-0.087,38.656-0.098,57.981,0.003c11.75,0.063,18.119,6.609,18.176,18.422c0.051,11.164-0.126,22.33,0.146,33.486
		c0.047,1.88,1.467,4.168,2.945,5.495c7.643,6.85,15.512,13.446,23.479,20.286c9.367-5.111,18.437,0.012,27.406,3.299
		c3.633,1.331,4.563,5.611,3.621,9.536c-3.266,13.598-6.537,27.195-10.027,40.736c-1.532,5.961-4.717,8.143-10.666,7.219
		c-5.401-0.84-10.896-1.861-15.979-3.799c-2.949-1.123-5.154-4.205-8.188-6.834c-2.697,0.68-6.494,1.297-9.981,2.684
		c-1.286,0.512-2.584,2.818-2.623,4.34c-0.24,9.326-0.105,18.66-0.124,27.988c-0.026,13.055-6.216,19.225-19.323,19.234
		c-18.828,0.02-37.656,0.027-56.482-0.004c-12.069-0.021-18.354-6.375-18.388-18.531 M64.107,168.856
		c-0.276,4.471,1.337,5.648,5.672,5.619c25.143-0.182,50.281-0.178,75.419-0.004c4.318,0.029,5.783-1.172,5.735-5.633
		c-0.212-20.145,0.058-40.293-0.26-60.435c-0.047-2.938-1.838-6.205-3.688-8.676c-2.968-3.97-7.073-7.102-9.935-11.13
		c-4.283-6.034-2.066-12.587,4.714-14.814c2.598-0.854,5.479-0.836,8.953-1.315c0-9.471,0.087-19.058-0.166-28.635
		c-0.021-0.751-2.406-2.061-3.697-2.066c-26.308-0.122-52.614-0.067-78.918-0.125c-2.781-0.006-3.813,1.021-3.783,3.815
		c0.107,9.655-0.041,19.313,0.138,28.968c0.023,1.332,0.997,3.2,2.104,3.87c8.941,5.408,9.838,9.687,3.412,17.731
		c5.521,7.427,5.537,8.896,0.179,16.664c3.546,5.689,5.354,11.365-0.297,16.775c6.521,8.043,5.582,12.484-3.146,17.586
		c-1.214,0.707-2.18,2.822-2.244,4.33 M107.725,178.037c-12.981,0-25.963-0.08-38.941,0.109c-1.518,0.021-4.067,1.297-4.352,2.434
		c-2.271,9.199,3.76,16.66,13.306,16.689c19.804,0.064,39.608,0.057,59.414,0.002c8.25-0.021,13.238-5.096,13.737-13.248
		c0.268-4.361-0.848-6.232-5.728-6.104C132.693,178.258,120.206,178.034,107.725,178.037z M154.595,144.909
		c9.354,0.988,14.591-2.398,16.635-10.395c2.388-9.334,4.859-18.658,6.786-28.091c0.479-2.358-0.163-5.854-1.697-7.552
		c-5.438-6.012-11.146-11.902-17.451-16.964c-3.432-2.758-6.494-5.564-12.537-5.254c-2.106,0.108-5.657,1.731-6.842,3.731
		c-0.927,1.568,0.125,5.19,1.479,7.031c2.729,3.713,6.678,6.544,9.334,10.298c2.061,2.91,3.86,6.6,4.118,10.064
		c0.591,8.104,0.18,16.278,0.176,24.424C154.594,136.471,154.595,140.739,154.595,144.909z M194.16,154.565
		c1.308-1.619,3.724-3.355,4.322-5.578c3.512-12.98,6.572-26.076,9.842-39.121c1.104-4.418-0.61-7.146-4.854-8.264
		c-4.494-1.183-9.035-2.193-13.576-3.188c-3.479-0.761-5.947,0.557-6.816,4.064c-3.396,13.705-6.853,27.398-9.854,41.189
		c-0.396,1.809,1.225,5.455,2.743,6.025C181.365,151.717,187.125,152.78,194.16,154.565z M107.539,37.946
		c12.822,0,25.646,0.027,38.471-0.015c4.785-0.016,5.526-1.104,4.222-5.741c-1.565-5.547-5.401-9.01-11.113-9.049
		c-21.146-0.146-42.296-0.145-63.439-0.011c-5.485,0.034-9.727,3.867-11.077,9.138c-1.145,4.44-0.234,5.653,4.477,5.666
		C81.896,37.97,94.718,37.946,107.539,37.946z M62.162,81.56c-4.271,0.015-7.815,2.794-7.803,6.119
		c0.016,3.331,3.565,6.235,7.721,6.316c4.105,0.08,8.329-3.264,8.183-6.474C70.114,84.406,66.232,81.548,62.162,81.56z
		 M62.048,110.426c4.509,0.063,8.319-2.807,8.222-6.181c-0.092-3.062-3.995-5.962-8.061-5.992c-4.259-0.03-7.835,2.738-7.837,6.064
		C54.374,107.896,57.474,110.366,62.048,110.426z M62.317,143.842c4.03-0.033,7.935-2.98,7.971-6.02
		c0.039-3.154-4.23-6.332-8.346-6.205c-4.201,0.129-7.694,3.045-7.576,6.324C54.484,141.233,58.048,143.877,62.317,143.842z
		 M61.982,127.088c4.487,0.102,8.688-2.832,8.223-6.127c-0.58-4.102-3.571-5.648-7.476-5.777c-5.046-0.166-8.283,2.039-8.379,5.748
		C54.264,124.33,57.558,126.987,61.982,127.088z"/>
	<path d="M113.633,187.159c0-1.691-1.371-3.063-3.063-3.063h-6.125c-1.688,0-3.063,1.369-3.063,3.063l0,0
		c0,1.689,1.37,3.063,3.063,3.063h6.125C112.262,190.221,113.633,188.85,113.633,187.159L113.633,187.159z"/>
	<path d="M120.258,29.846c0-0.689-0.563-1.25-1.25-1.25h-23c-0.69,0-1.25,0.561-1.25,1.25l0,0c0,0.69,0.56,1.25,1.25,1.25h23
		C119.698,31.096,120.258,30.535,120.258,29.846L120.258,29.846z"/>
	
		<path fill="#FFFFFF" stroke="#000000" stroke-width="2" stroke-linecap="round" stroke-linejoin="round" stroke-miterlimit="10" d="
		M110.543,115.049l-1.396-3.07v0.002c-7.887,2.188-16.412-1.621-19.906-9.309c-3.866-8.505-0.104-18.534,8.4-22.4
		c8.505-3.865,18.534-0.104,22.396,8.4c3.494,7.686,0.763,16.616-6.072,21.119v-0.001l1.396,3.069l1.313-0.594l10.762,23.699
		l-7.438,3.381l-10.763-23.7C109.234,115.647,110.543,115.049,110.543,115.049z"/>
</g>
<g enable-background="new    ">
	<path d="M37.616,227.921h6.744c1.792,0,3.168,0.433,4.128,1.296c0.96,0.864,1.44,2.129,1.44,3.792c0,1.232-0.328,2.276-0.984,3.134
		c-0.656,0.854-1.584,1.437-2.784,1.738l3.696,6.816h-2.544l-3.576-6.624h-3.672v6.624h-2.448V227.921z M43.952,236.009
		c1.072,0,1.925-0.252,2.558-0.756c0.632-0.504,0.946-1.251,0.946-2.244c0-1.087-0.308-1.862-0.924-2.327
		c-0.616-0.464-1.476-0.695-2.58-0.695h-3.888v6.022H43.952z"/>
	<path d="M52.94,243.461c-1.208-1.063-1.812-2.563-1.812-4.5c0-1.888,0.538-3.384,1.618-4.486c1.08-1.104,2.62-1.656,4.62-1.656
		c1.328,0,2.456,0.252,3.384,0.757c0.93,0.504,1.63,1.198,2.102,2.088c0.472,0.888,0.708,1.899,0.708,3.036v1.199H53.433
		c0.08,1.088,0.54,1.899,1.38,2.437s1.979,0.806,3.42,0.806c0.736,0,1.479-0.068,2.232-0.203c0.752-0.138,1.416-0.316,1.99-0.541
		v1.942c-0.513,0.208-1.188,0.38-2.026,0.519c-0.841,0.136-1.668,0.203-2.484,0.203C55.816,245.059,54.148,244.525,52.94,243.461z
		 M61.28,238.193c-0.032-1.088-0.388-1.934-1.066-2.532c-0.682-0.601-1.646-0.899-2.894-0.899c-1.216,0-2.16,0.313-2.832,0.938
		s-1.022,1.455-1.056,2.494H61.28L61.28,238.193z"/>
	<path d="M68.864,244.337c-0.992-0.479-1.764-1.18-2.314-2.101c-0.554-0.92-0.828-2.012-0.828-3.275
		c0-1.263,0.274-2.355,0.828-3.275c0.552-0.92,1.327-1.627,2.327-2.123s2.147-0.744,3.443-0.744c1.76,0,3.168,0.345,4.225,1.031
		v1.991c-1.039-0.72-2.367-1.079-3.983-1.079c-1.313,0-2.372,0.355-3.18,1.067c-0.811,0.712-1.214,1.756-1.214,3.132
		c0,1.377,0.4,2.416,1.2,3.12s1.85,1.058,3.146,1.058c1.616,0,3.008-0.386,4.176-1.152v1.969c-0.56,0.384-1.196,0.664-1.908,0.84
		c-0.712,0.178-1.548,0.266-2.508,0.266C70.991,245.059,69.856,244.816,68.864,244.337z"/>
	<path d="M79.328,226.961h2.424v7.801c1.104-1.297,2.576-1.943,4.416-1.943c1.536,0,2.682,0.408,3.434,1.225
		s1.128,1.912,1.128,3.288v7.368h-2.424v-7.129c0-1.871-0.896-2.809-2.688-2.809c-0.768,0-1.482,0.18-2.146,0.539
		c-0.665,0.36-1.236,0.909-1.717,1.645v7.754h-2.425L79.328,226.961L79.328,226.961z"/>
	<path d="M95.061,243.461c-1.208-1.063-1.813-2.563-1.813-4.5c0-1.888,0.54-3.384,1.62-4.486c1.08-1.104,2.62-1.656,4.62-1.656
		c1.328,0,2.456,0.252,3.384,0.757c0.93,0.504,1.628,1.198,2.102,2.088c0.472,0.888,0.708,1.899,0.708,3.036v1.199H95.553
		c0.08,1.088,0.54,1.899,1.38,2.437s1.979,0.806,3.42,0.806c0.735,0,1.479-0.068,2.23-0.203c0.753-0.138,1.416-0.316,1.992-0.541
		v1.942c-0.513,0.208-1.188,0.38-2.026,0.519c-0.842,0.136-1.669,0.203-2.484,0.203C97.937,245.059,96.269,244.525,95.061,243.461z
		 M103.399,238.193c-0.032-1.088-0.388-1.934-1.068-2.532c-0.68-0.601-1.644-0.899-2.892-0.899c-1.216,0-2.16,0.313-2.832,0.938
		s-1.023,1.455-1.056,2.494H103.399L103.399,238.193z"/>
	<path d="M108.319,233.178h2.354v2.063c0.479-0.704,1.154-1.224,2.026-1.56s1.884-0.506,3.036-0.506v1.896
		c-1.23,0-2.288,0.199-3.168,0.6s-1.488,1.032-1.824,1.896v7.129h-2.424V233.178z"/>
	<path d="M120.439,244.337c-0.992-0.479-1.764-1.18-2.316-2.101c-0.552-0.92-0.826-2.012-0.826-3.275
		c0-1.263,0.274-2.355,0.826-3.275c0.554-0.92,1.328-1.627,2.328-2.123s2.148-0.744,3.444-0.744c1.76,0,3.168,0.345,4.224,1.031
		v1.991c-1.04-0.72-2.367-1.079-3.982-1.079c-1.313,0-2.372,0.355-3.182,1.067c-0.809,0.712-1.212,1.756-1.212,3.132
		c0,1.377,0.4,2.416,1.2,3.12s1.848,1.058,3.146,1.058c1.614,0,3.008-0.386,4.176-1.152v1.969c-0.562,0.384-1.196,0.664-1.908,0.84
		c-0.712,0.178-1.548,0.266-2.508,0.266C122.566,245.059,121.432,244.816,120.439,244.337z"/>
	<path d="M130.903,226.961h2.424v7.801c1.104-1.297,2.576-1.943,4.416-1.943c1.536,0,2.682,0.408,3.434,1.225
		s1.128,1.912,1.128,3.288v7.368h-2.424v-7.129c0-1.871-0.896-2.809-2.688-2.809c-0.768,0-1.484,0.18-2.147,0.539
		c-0.664,0.36-1.235,0.909-1.717,1.645v7.754h-2.424L130.903,226.961L130.903,226.961z"/>
	<path d="M146.635,243.461c-1.208-1.063-1.813-2.563-1.813-4.5c0-1.888,0.54-3.384,1.62-4.486c1.08-1.104,2.619-1.656,4.619-1.656
		c1.328,0,2.457,0.252,3.385,0.757c0.93,0.504,1.628,1.198,2.102,2.088c0.473,0.888,0.709,1.899,0.709,3.036v1.199h-10.131
		c0.08,1.088,0.54,1.899,1.383,2.437c0.84,0.536,1.979,0.806,3.42,0.806c0.733,0,1.479-0.068,2.229-0.203
		c0.752-0.138,1.416-0.316,1.992-0.541v1.942c-0.513,0.208-1.188,0.38-2.028,0.519c-0.84,0.136-1.668,0.203-2.482,0.203
		C149.512,245.059,147.844,244.525,146.635,243.461z M154.975,238.193c-0.031-1.088-0.389-1.934-1.067-2.532
		c-0.681-0.601-1.644-0.899-2.892-0.899c-1.217,0-2.16,0.313-2.832,0.938s-1.024,1.455-1.059,2.494H154.975L154.975,238.193z"/>
	<path d="M171.234,244.301c-0.92-0.504-1.64-1.215-2.16-2.136c-0.52-0.92-0.777-1.987-0.777-3.204c0-1.199,0.26-2.264,0.777-3.191
		c0.521-0.928,1.24-1.65,2.16-2.172c0.92-0.521,1.957-0.779,3.108-0.779c2.079,0,3.653,0.633,4.728,1.896v-7.752h2.424v17.736
		h-2.352v-1.682c-0.641,0.705-1.34,1.222-2.1,1.549c-0.762,0.326-1.66,0.492-2.7,0.492
		C173.191,245.059,172.154,244.807,171.234,244.301z M177.499,242.357c0.743-0.521,1.27-1.222,1.571-2.103v-2.592
		c-0.271-0.88-0.787-1.584-1.547-2.111c-0.761-0.526-1.637-0.792-2.629-0.792c-0.783,0-1.492,0.178-2.123,0.527
		c-0.633,0.354-1.129,0.849-1.488,1.486c-0.358,0.642-0.541,1.369-0.541,2.186s0.183,1.545,0.541,2.186
		c0.359,0.641,0.855,1.133,1.488,1.477c0.631,0.345,1.34,0.518,2.123,0.518C175.887,243.139,176.755,242.877,177.499,242.357z"/>
	<path d="M185.947,243.461c-1.209-1.063-1.813-2.563-1.813-4.5c0-1.888,0.54-3.384,1.62-4.486c1.077-1.104,2.618-1.656,4.618-1.656
		c1.328,0,2.455,0.252,3.386,0.757c0.928,0.504,1.628,1.198,2.101,2.088c0.471,0.888,0.707,1.899,0.707,3.036v1.199h-10.128
		c0.08,1.088,0.54,1.899,1.38,2.437s1.98,0.806,3.42,0.806c0.736,0,1.48-0.068,2.232-0.203c0.752-0.138,1.416-0.316,1.992-0.541
		v1.942c-0.515,0.208-1.188,0.38-2.028,0.519c-0.84,0.136-1.668,0.203-2.483,0.203C188.822,245.059,187.154,244.525,185.947,243.461
		z M194.287,238.193c-0.031-1.088-0.389-1.934-1.066-2.532c-0.682-0.601-1.646-0.899-2.895-0.899c-1.216,0-2.16,0.313-2.832,0.938
		s-1.021,1.455-1.056,2.494H194.287L194.287,238.193z"/>
	<path d="M200.91,244.757c-0.896-0.198-1.6-0.468-2.11-0.804v-2.063c0.624,0.366,1.345,0.668,2.158,0.897
		c0.815,0.231,1.608,0.351,2.376,0.351c0.863,0,1.496-0.104,1.896-0.313c0.398-0.208,0.6-0.544,0.6-1.009
		c0-0.353-0.092-0.635-0.273-0.854c-0.188-0.216-0.496-0.411-0.938-0.588c-0.438-0.176-1.101-0.384-1.979-0.624
		c-0.945-0.271-1.693-0.548-2.244-0.828c-0.553-0.278-0.969-0.636-1.248-1.065c-0.281-0.435-0.42-0.992-0.42-1.682
		c0-1.104,0.436-1.939,1.308-2.509c0.872-0.565,2.044-0.853,3.518-0.853c0.769,0,1.521,0.072,2.257,0.217
		c0.732,0.145,1.327,0.345,1.773,0.6v2.018c-0.465-0.271-1.035-0.487-1.716-0.647c-0.681-0.159-1.372-0.239-2.076-0.239
		c-0.849,0-1.495,0.104-1.942,0.313s-0.672,0.575-0.672,1.104c0,0.336,0.096,0.606,0.288,0.814c0.19,0.208,0.5,0.389,0.925,0.54
		c0.423,0.151,1.1,0.348,2.025,0.588c1.455,0.399,2.47,0.872,3.036,1.416c0.567,0.544,0.854,1.296,0.854,2.256
		c0,0.992-0.407,1.784-1.226,2.376c-0.815,0.594-2.022,0.891-3.624,0.891C202.654,245.059,201.806,244.957,200.91,244.757z"/>
</g>
<g enable-background="new    ">
	<path d="M38.948,272.262c-1.208-1.063-1.812-2.563-1.812-4.5c0-1.888,0.54-3.384,1.62-4.486c1.078-1.104,2.618-1.655,4.618-1.655
		c1.328,0,2.456,0.252,3.386,0.756c0.928,0.504,1.628,1.2,2.1,2.088c0.472,0.89,0.708,1.9,0.708,3.036v1.2H39.44
		c0.08,1.088,0.54,1.899,1.38,2.437c0.84,0.535,1.98,0.805,3.42,0.805c0.736,0,1.479-0.067,2.232-0.203
		c0.752-0.137,1.416-0.316,1.992-0.541v1.943c-0.515,0.209-1.188,0.381-2.028,0.518c-0.84,0.136-1.668,0.203-2.484,0.203
		C41.824,273.857,40.156,273.326,38.948,272.262z M47.288,266.994c-0.03-1.088-0.388-1.932-1.066-2.532
		c-0.682-0.601-1.646-0.899-2.894-0.899c-1.216,0-2.16,0.313-2.832,0.938s-1.022,1.456-1.056,2.496L47.288,266.994L47.288,266.994z
		 M43.713,256.555h2.566l-1.992,4.127h-2.208L43.713,256.555z"/>
	<path d="M50.769,261.979h2.567l3.385,8.279l3.384-8.279h2.567L57.775,273.5h-2.112L50.769,261.979z"/>
	<path d="M65.685,272.262c-1.208-1.063-1.813-2.563-1.813-4.5c0-1.888,0.54-3.384,1.62-4.486c1.08-1.104,2.62-1.655,4.62-1.655
		c1.328,0,2.456,0.252,3.384,0.756c0.93,0.504,1.628,1.2,2.102,2.088c0.472,0.89,0.708,1.9,0.708,3.036v1.2H66.177
		c0.08,1.088,0.54,1.899,1.38,2.437c0.84,0.535,1.979,0.805,3.42,0.805c0.736,0,1.479-0.067,2.23-0.203
		c0.752-0.137,1.416-0.316,1.992-0.541v1.943c-0.513,0.209-1.188,0.381-2.027,0.518c-0.841,0.136-1.668,0.203-2.483,0.203
		C68.561,273.857,66.893,273.326,65.685,272.262z M74.024,266.994c-0.032-1.088-0.388-1.932-1.068-2.532
		c-0.68-0.601-1.644-0.899-2.892-0.899c-1.216,0-2.16,0.313-2.832,0.938s-1.023,1.456-1.056,2.496L74.024,266.994L74.024,266.994z
		 M70.448,256.555h2.568l-1.992,4.127h-2.208L70.448,256.555z"/>
	<path d="M78.944,261.979h2.354v1.655c0.543-0.688,1.212-1.194,2.004-1.522c0.792-0.327,1.62-0.491,2.482-0.491
		c1.536,0,2.682,0.407,3.434,1.224s1.128,1.912,1.128,3.288v7.368h-2.424v-7.128c0-1.872-0.896-2.81-2.688-2.81
		c-0.768,0-1.484,0.182-2.147,0.539c-0.664,0.36-1.235,0.91-1.717,1.646v7.752h-2.424L78.944,261.979L78.944,261.979z"/>
	<path d="M94.677,272.262c-1.208-1.063-1.813-2.563-1.813-4.5c0-1.888,0.54-3.384,1.62-4.486c1.08-1.104,2.62-1.655,4.62-1.655
		c1.328,0,2.456,0.252,3.384,0.756s1.628,1.2,2.101,2.088c0.473,0.89,0.709,1.9,0.709,3.036v1.2h-10.13
		c0.08,1.088,0.54,1.899,1.382,2.437c0.84,0.535,1.979,0.805,3.42,0.805c0.734,0,1.479-0.067,2.23-0.203
		c0.752-0.137,1.416-0.316,1.992-0.541v1.943c-0.513,0.209-1.188,0.381-2.028,0.518c-0.84,0.136-1.668,0.203-2.482,0.203
		C97.553,273.857,95.885,273.326,94.677,272.262z M103.017,266.994c-0.032-1.088-0.388-1.932-1.068-2.532
		c-0.68-0.601-1.644-0.899-2.892-0.899c-1.216,0-2.16,0.313-2.832,0.938s-1.024,1.456-1.057,2.496L103.017,266.994L103.017,266.994z
		"/>
	<path d="M107.937,261.979h2.304v1.655c0.544-0.672,1.16-1.176,1.85-1.512c0.688-0.336,1.398-0.504,2.136-0.504
		c0.928,0,1.664,0.155,2.208,0.468c0.543,0.313,0.943,0.788,1.2,1.428c0.512-0.623,1.14-1.096,1.884-1.416
		c0.744-0.317,1.492-0.479,2.244-0.479c1.408,0,2.424,0.355,3.048,1.068c0.624,0.711,0.936,1.764,0.936,3.153v7.656h-2.352v-7.345
		c0-0.943-0.176-1.611-0.528-2.004c-0.352-0.394-0.952-0.588-1.8-0.588c-1.216,0-2.208,0.526-2.976,1.584
		c0.03,0.238,0.048,0.631,0.048,1.176v7.177h-2.354v-7.345c0-0.943-0.16-1.611-0.479-2.004c-0.32-0.394-0.896-0.588-1.729-0.588
		c-1.216,0-2.304,0.688-3.264,2.063v7.872h-2.376V261.979L107.937,261.979z"/>
	<path d="M130.075,272.262c-1.208-1.063-1.812-2.563-1.812-4.5c0-1.888,0.54-3.384,1.62-4.486c1.08-1.104,2.62-1.655,4.62-1.655
		c1.326,0,2.454,0.252,3.384,0.756c0.928,0.504,1.628,1.2,2.1,2.088c0.472,0.89,0.708,1.9,0.708,3.036v1.2h-10.128
		c0.08,1.088,0.54,1.899,1.38,2.437c0.84,0.535,1.98,0.805,3.42,0.805c0.736,0,1.479-0.067,2.232-0.203
		c0.752-0.137,1.416-0.316,1.992-0.541v1.943c-0.515,0.209-1.188,0.381-2.028,0.518c-0.84,0.136-1.668,0.203-2.484,0.203
		C132.951,273.857,131.283,273.326,130.075,272.262z M138.415,266.994c-0.03-1.088-0.388-1.932-1.066-2.532
		s-1.646-0.899-2.894-0.899c-1.216,0-2.158,0.313-2.832,0.938c-0.672,0.624-1.022,1.456-1.056,2.496L138.415,266.994
		L138.415,266.994z"/>
	<path d="M143.336,261.979h2.352v1.655c0.543-0.688,1.212-1.194,2.004-1.522c0.792-0.327,1.62-0.491,2.484-0.491
		c1.535,0,2.68,0.407,3.432,1.224s1.128,1.912,1.128,3.288v7.368h-2.424v-7.128c0-1.872-0.896-2.81-2.688-2.81
		c-0.768,0-1.482,0.182-2.146,0.539c-0.665,0.36-1.236,0.91-1.716,1.646v7.752h-2.424L143.336,261.979L143.336,261.979z"/>
	<path d="M159.475,272.85c-0.632-0.672-0.947-1.623-0.947-2.854v-6.146h-1.752v-1.871h1.752v-3.455h2.447v3.455h2.832v1.871h-2.832
		v5.979c0,0.77,0.146,1.313,0.442,1.632c0.298,0.319,0.837,0.479,1.62,0.479c0.463,0,0.93-0.104,1.394-0.313v1.92
		c-0.608,0.208-1.36,0.313-2.256,0.313C161.007,273.857,160.106,273.521,159.475,272.85z"/>
	<path d="M167.936,273.559c-0.896-0.199-1.603-0.469-2.113-0.805v-2.063c0.625,0.367,1.345,0.668,2.16,0.897
		c0.816,0.231,1.608,0.351,2.377,0.351c0.863,0,1.496-0.104,1.896-0.313c0.398-0.209,0.601-0.544,0.601-1.008
		c0-0.353-0.093-0.636-0.276-0.853c-0.185-0.218-0.496-0.412-0.937-0.588c-0.439-0.178-1.102-0.386-1.979-0.625
		c-0.942-0.271-1.69-0.549-2.244-0.828c-0.552-0.279-0.968-0.637-1.246-1.066c-0.28-0.434-0.422-0.992-0.422-1.68
		c0-1.104,0.438-1.94,1.31-2.511c0.872-0.565,2.044-0.852,3.516-0.852c0.771,0,1.521,0.071,2.257,0.216
		c0.735,0.146,1.327,0.346,1.776,0.602v2.017c-0.465-0.272-1.037-0.488-1.717-0.647c-0.68-0.16-1.372-0.24-2.076-0.24
		c-0.848,0-1.496,0.104-1.943,0.313c-0.446,0.209-0.672,0.576-0.672,1.104c0,0.336,0.098,0.606,0.287,0.814
		c0.192,0.208,0.5,0.391,0.925,0.54c0.424,0.152,1.102,0.349,2.028,0.588c1.455,0.4,2.467,0.872,3.035,1.416
		c0.567,0.544,0.852,1.298,0.852,2.257c0,0.991-0.405,1.783-1.223,2.377c-0.816,0.592-2.025,0.889-3.625,0.889
		C169.679,273.857,168.83,273.758,167.936,273.559z"/>
	<path d="M189.499,273.126c-0.981-0.487-1.752-1.19-2.304-2.112c-0.553-0.92-0.828-2.004-0.828-3.252
		c0-1.229,0.271-2.312,0.816-3.238c0.543-0.928,1.311-1.646,2.304-2.147c0.991-0.504,2.136-0.756,3.433-0.756
		s2.439,0.252,3.434,0.756c0.991,0.504,1.764,1.222,2.313,2.147c0.553,0.928,0.828,2.009,0.828,3.238
		c0,1.248-0.274,2.332-0.828,3.252c-0.552,0.922-1.322,1.625-2.313,2.112c-0.992,0.488-2.137,0.731-3.434,0.731
		S190.482,273.614,189.499,273.126z M195.895,270.786c0.736-0.769,1.104-1.776,1.104-3.024c0-1.296-0.366-2.318-1.104-3.07
		c-0.735-0.752-1.729-1.129-2.977-1.129s-2.239,0.377-2.977,1.129s-1.104,1.774-1.104,3.07c0,1.248,0.366,2.256,1.104,3.024
		c0.735,0.769,1.729,1.151,2.977,1.151C194.166,271.938,195.159,271.555,195.895,270.786z"/>
	<path d="M203.203,272.609c-0.793-0.832-1.188-1.943-1.188-3.336v-7.295h2.424v7.197c0,1.842,0.92,2.762,2.761,2.762
		c1.615,0,2.879-0.729,3.791-2.186v-7.773h2.424v11.52h-2.352v-1.632c-0.544,0.688-1.188,1.192-1.932,1.512
		c-0.744,0.32-1.551,0.479-2.412,0.479C205.166,273.857,203.994,273.441,203.203,272.609z M204.75,256.555h2.568l1.656,4.127h-2.232
		L204.75,256.555z"/>
</g>
<g enable-background="new    ">
	<path d="M47.912,300.761c-0.526,0.624-1.208,1.099-2.04,1.416c-0.831,0.32-1.728,0.48-2.688,0.48c-1.168,0-2.208-0.257-3.12-0.771
		c-0.912-0.512-1.628-1.229-2.148-2.16c-0.52-0.928-0.778-1.99-0.778-3.189c0-1.217,0.26-2.284,0.778-3.204
		c0.521-0.92,1.24-1.636,2.16-2.147c0.92-0.513,1.956-0.769,3.108-0.769c2.016,0,3.616,0.688,4.8,2.063v-1.703h2.352v16.773h-2.424
		V300.761L47.912,300.761z M46.353,299.945c0.768-0.528,1.288-1.232,1.56-2.112v-2.592c-0.318-0.896-0.852-1.601-1.596-2.112
		c-0.744-0.511-1.604-0.768-2.58-0.768c-0.784,0-1.492,0.172-2.124,0.516s-1.128,0.832-1.488,1.464
		c-0.358,0.632-0.54,1.364-0.54,2.196s0.182,1.568,0.54,2.208c0.36,0.64,0.856,1.132,1.488,1.476
		c0.632,0.347,1.34,0.519,2.124,0.519C44.713,300.737,45.584,300.473,46.353,299.945z"/>
	<path d="M54.524,301.409c-0.792-0.832-1.188-1.944-1.188-3.336v-7.296h2.424v7.199c0,1.841,0.92,2.761,2.76,2.761
		c1.616,0,2.88-0.729,3.792-2.187v-7.773h2.424v11.52h-2.352v-1.632c-0.544,0.688-1.188,1.192-1.934,1.512
		c-0.742,0.32-1.548,0.48-2.41,0.48C56.488,302.657,55.316,302.241,54.524,301.409z"/>
	<path d="M69.188,301.061c-1.208-1.063-1.812-2.563-1.812-4.5c0-1.888,0.538-3.384,1.618-4.485c1.08-1.104,2.62-1.656,4.62-1.656
		c1.328,0,2.456,0.252,3.384,0.756c0.93,0.505,1.63,1.2,2.102,2.089s0.708,1.899,0.708,3.035v1.2H69.68
		c0.08,1.088,0.54,1.9,1.38,2.437c0.84,0.535,1.979,0.806,3.42,0.806c0.736,0,1.479-0.068,2.231-0.204
		c0.752-0.136,1.416-0.316,1.991-0.54v1.943c-0.513,0.208-1.188,0.38-2.026,0.517c-0.842,0.136-1.668,0.204-2.484,0.204
		C72.064,302.657,70.396,302.125,69.188,301.061z M77.527,295.793c-0.032-1.088-0.388-1.932-1.068-2.532
		c-0.68-0.6-1.644-0.899-2.892-0.899c-1.216,0-2.16,0.313-2.832,0.938s-1.022,1.456-1.056,2.496L77.527,295.793L77.527,295.793z"/>
	<path d="M93.067,301.648c-0.632-0.674-0.948-1.623-0.948-2.855v-6.145h-1.752v-1.871h1.752v-3.457h2.448v3.457h2.832v1.871h-2.832
		v5.977c0,0.768,0.148,1.313,0.444,1.632c0.296,0.32,0.836,0.48,1.62,0.48c0.464,0,0.928-0.104,1.392-0.313v1.92
		c-0.608,0.208-1.36,0.313-2.256,0.313C94.6,302.657,93.699,302.321,93.067,301.648z"/>
	<path d="M101.252,301.409c-0.791-0.832-1.188-1.944-1.188-3.336v-7.296h2.424v7.199c0,1.841,0.92,2.761,2.76,2.761
		c1.616,0,2.882-0.729,3.792-2.187v-7.773h2.426v11.52h-2.354v-1.632c-0.544,0.688-1.188,1.192-1.932,1.512
		c-0.744,0.32-1.548,0.48-2.412,0.48C103.216,302.657,102.043,302.241,101.252,301.409z"/>
	<path d="M125.168,302.356c-0.896-0.199-1.601-0.47-2.111-0.806v-2.063c0.624,0.368,1.344,0.668,2.16,0.897
		c0.814,0.232,1.606,0.351,2.376,0.351c0.862,0,1.495-0.104,1.896-0.313s0.602-0.544,0.602-1.008c0-0.352-0.094-0.636-0.276-0.853
		c-0.187-0.218-0.496-0.412-0.938-0.59c-0.438-0.176-1.101-0.384-1.979-0.623c-0.944-0.271-1.692-0.549-2.244-0.828
		c-0.552-0.278-0.968-0.637-1.248-1.066c-0.28-0.434-0.42-0.992-0.42-1.682c0-1.104,0.438-1.938,1.308-2.508
		c0.872-0.566,2.043-0.853,3.518-0.853c0.768,0,1.52,0.071,2.256,0.216c0.735,0.145,1.328,0.346,1.776,0.6v2.019
		c-0.466-0.271-1.036-0.487-1.718-0.647c-0.681-0.158-1.373-0.238-2.074-0.238c-0.85,0-1.496,0.104-1.944,0.312
		s-0.672,0.576-0.672,1.104c0,0.336,0.096,0.605,0.288,0.814c0.19,0.207,0.5,0.389,0.924,0.539c0.423,0.152,1.1,0.35,2.028,0.59
		c1.456,0.398,2.468,0.871,3.034,1.416c0.567,0.543,0.854,1.294,0.854,2.254c0,0.992-0.408,1.784-1.224,2.377
		c-0.816,0.593-2.024,0.89-3.624,0.89C126.911,302.657,126.063,302.557,125.168,302.356z"/>
	<path d="M137.491,301.925c-0.982-0.488-1.752-1.189-2.304-2.112c-0.552-0.92-0.828-2.004-0.828-3.252
		c0-1.229,0.272-2.312,0.816-3.238c0.544-0.928,1.312-1.646,2.304-2.147c0.992-0.504,2.136-0.756,3.432-0.756
		s2.44,0.252,3.435,0.756c0.991,0.504,1.764,1.222,2.313,2.147c0.553,0.928,0.828,2.009,0.828,3.238
		c0,1.248-0.275,2.332-0.828,3.252c-0.552,0.923-1.322,1.624-2.313,2.112c-0.992,0.488-2.138,0.732-3.435,0.732
		C139.615,302.657,138.476,302.413,137.491,301.925z M143.887,299.585c0.734-0.769,1.104-1.776,1.104-3.024
		c0-1.295-0.368-2.317-1.104-3.069c-0.736-0.753-1.729-1.13-2.978-1.13s-2.238,0.378-2.976,1.13s-1.104,1.774-1.104,3.069
		c0,1.248,0.368,2.258,1.104,3.024s1.728,1.152,2.976,1.152S143.151,300.353,143.887,299.585z"/>
	<path d="M150.535,288.113c-0.271-0.272-0.408-0.608-0.408-1.01c0-0.398,0.139-0.734,0.408-1.008
		c0.271-0.271,0.607-0.408,1.008-0.408c0.416,0,0.766,0.138,1.047,0.408c0.277,0.271,0.42,0.607,0.42,1.008
		c0,0.399-0.143,0.735-0.42,1.01c-0.281,0.271-0.631,0.406-1.047,0.406C151.143,288.521,150.807,288.385,150.535,288.113z
		 M150.319,290.777h2.472v11.52h-2.472V290.777z"/>
	<path d="M157.832,302.356c-0.896-0.199-1.601-0.47-2.111-0.806v-2.063c0.625,0.368,1.345,0.668,2.16,0.897
		c0.814,0.232,1.606,0.351,2.377,0.351c0.861,0,1.494-0.104,1.896-0.313s0.603-0.544,0.603-1.008c0-0.352-0.095-0.636-0.276-0.853
		c-0.185-0.218-0.496-0.412-0.938-0.59c-0.438-0.176-1.1-0.384-1.979-0.623c-0.944-0.271-1.692-0.549-2.244-0.828
		c-0.552-0.278-0.968-0.637-1.248-1.066c-0.28-0.434-0.42-0.992-0.42-1.682c0-1.104,0.438-1.938,1.308-2.508
		c0.872-0.566,2.046-0.853,3.518-0.853c0.769,0,1.521,0.071,2.257,0.216c0.735,0.145,1.327,0.346,1.776,0.6v2.019
		c-0.466-0.271-1.037-0.487-1.719-0.647c-0.68-0.158-1.37-0.238-2.074-0.238c-0.85,0-1.496,0.104-1.943,0.312
		c-0.448,0.208-0.672,0.576-0.672,1.104c0,0.336,0.096,0.605,0.287,0.814c0.19,0.207,0.5,0.389,0.925,0.539
		c0.423,0.152,1.1,0.35,2.028,0.59c1.455,0.398,2.467,0.871,3.033,1.416c0.568,0.543,0.854,1.294,0.854,2.254
		c0,0.992-0.407,1.784-1.224,2.377c-0.815,0.593-2.024,0.89-3.625,0.89C159.575,302.657,158.727,302.557,157.832,302.356z"/>
	<path d="M167.707,301.973c-0.216-0.216-0.322-0.481-0.322-0.804s0.106-0.592,0.322-0.816c0.219-0.224,0.484-0.336,0.807-0.336
		c0.317,0,0.592,0.112,0.813,0.336c0.226,0.227,0.336,0.496,0.336,0.816s-0.11,0.588-0.336,0.804
		c-0.224,0.218-0.495,0.324-0.813,0.324C168.191,302.297,167.924,302.188,167.707,301.973z"/>
</g>
</svg>
