<?xml version="1.0" encoding="utf-8"?>
<!-- Generator: Adobe Illustrator 16.0.0, SVG Export Plug-In . SVG Version: 6.00 Build 0)  -->
<!DOCTYPE svg PUBLIC "-//W3C//DTD SVG 1.1//EN" "http://www.w3.org/Graphics/SVG/1.1/DTD/svg11.dtd">
<svg version="1.1" id="Calque_1" xmlns="http://www.w3.org/2000/svg" xmlns:xlink="http://www.w3.org/1999/xlink" x="0px" y="0px"
	 width="160.852px" height="93.174px" viewBox="0 0 160.852 93.174" enable-background="new 0 0 160.852 93.174"
	 xml:space="preserve">
<path d="M114.007,61.133c-0.001-7.655-0.023-15.312,0.008-22.967c0.024-6.343,2.053-8.508,8.215-8.55
	c9.984-0.067,19.972-0.097,29.956,0.014c6.85,0.076,8.614,1.893,8.634,8.607c0.042,15.478,0.043,30.956-0.002,46.433
	c-0.02,6.565-1.845,8.411-8.184,8.431c-10.317,0.032-20.637,0.047-30.954-0.007c-5.407-0.026-7.587-2.128-7.647-7.497
	C113.938,77.442,114.007,69.288,114.007,61.133z M118.776,34.75c0,16.75,0,33.219,0,49.618c12.706,0,24.92,0,37.225,0
	c0-16.695,0-33.053,0-49.618C143.408,34.75,131.188,34.75,118.776,34.75z"/>
<path d="M111.781,62.399c0,3.711,0,7.021,0,10.699c-27.154,0-54.178,0-81.53,0c0-3.518,0-6.934,0-10.699
	C57.389,62.399,84.53,62.399,111.781,62.399z"/>
<path d="M116.938,26.555c0-5.33-0.079-10.467,0.022-15.6c0.093-4.553-1.767-6.596-6.546-6.574
	C83.788,4.504,57.16,4.498,30.533,4.387c-4.698-0.02-6.617,1.812-6.561,6.505c0.142,11.966,0.047,23.934,0.047,36.182
	c-4.354-0.065-4.624-0.045-4.624-0.045c0.054-11.316-0.136-25.391,0.089-36.704C19.621,3.43,23.345,0.041,30.234,0.03
	c26.96-0.041,53.92-0.04,80.88-0.003c6.753,0.01,10.448,3.561,10.749,10.378c0.191,4.318-0.099,11.794,0.09,16.113
	C121.954,26.519,120.689,26.636,116.938,26.555z"/>
<path d="M0.021,71.21c0-4.32-0.021-8.641,0.005-12.962c0.036-6.239,2.165-8.449,8.225-8.538c3.987-0.059,7.978-0.011,11.962-0.116
	c4.725-0.126,7.415,2.45,7.547,6.8c0.303,9.961,0.278,19.942-0.009,29.904c-0.12,4.174-2.892,6.639-7.201,6.764
	c-4.315,0.127-8.644,0.174-12.955-0.004c-5.089-0.211-7.479-2.785-7.56-7.888C-0.036,80.519,0.021,75.864,0.021,71.21z
	 M24.575,86.722c0-10.594,0-20.619,0-30.762c-7.282,0-14.164,0-21.287,0c0,10.378,0,20.419,0,30.762
	C10.439,86.722,17.325,86.722,24.575,86.722z"/>
<path d="M55.101,92.786L55.101,92.786l-0.124-4.956l5.299-0.103c1.369-4.304,2.885-10.387,2.885-10.387l14.688-0.083
	c0,0,1.608,5.541,3.568,10.47l4.615,0.099l-0.01,4.954l0,0"/>
<path fill="#FFFFFF" d="M118.776,34.75c12.411,0,24.632,0,37.225,0c0,16.565,0,32.923,0,49.618c-12.305,0-24.519,0-37.225,0
	C118.776,67.969,118.776,51.5,118.776,34.75z"/>
<path fill="#FFFFFF" d="M24.575,86.722c-7.25,0-14.136,0-21.287,0c0-10.343,0-20.384,0-30.762c7.123,0,14.005,0,21.287,0
	C24.575,66.103,24.575,76.128,24.575,86.722z"/>
<circle fill="#FEFEFE" cx="137.389" cy="88.675" r="2.417"/>
<circle fill="#FEFEFE" cx="144.645" cy="88.675" r="2.417"/>
<circle fill="#FEFEFE" cx="129.395" cy="88.675" r="2.417"/>
<circle fill="#FEFEFE" cx="13.988" cy="89.801" r="1.948"/>
<path fill="#FCFCFC" d="M19.062,52.362c0-0.356-0.289-0.646-0.646-0.646h-8.75c-0.355,0-0.646,0.289-0.646,0.646l0,0
	c0,0.355,0.289,0.646,0.646,0.646h8.75C18.773,53.008,19.062,52.719,19.062,52.362L19.062,52.362z"/>
<circle fill="#FEFEFE" cx="70.663" cy="67.508" r="2.417"/>
<path fill="#FFFDFD" d="M24.088,50.311c2.326,1.016,3.619,3.164,3.709,6.146c0.061,2.001,0.108,4.004,0.144,6.006
	c27.139,0,58.853,0,86.103,0c0-7.655-0.021-16.579,0.01-24.233c0.016-3.964,0.813-6.296,2.914-7.499l0.01-0.02
	c0-5.33-0.08-14.56,0.021-19.692c0.094-4.553-1.766-6.596-6.545-6.574C83.826,4.566,57.197,4.561,30.57,4.45
	c-4.698-0.02-6.617,1.812-6.561,6.505c0.142,11.966,0.047,27.188,0.047,39.437L24.088,50.311z"/>
</svg>
