<?xml version="1.0" encoding="utf-8"?>
<!-- Generator: Adobe Illustrator 16.0.0, SVG Export Plug-In . SVG Version: 6.00 Build 0)  -->
<!DOCTYPE svg PUBLIC "-//W3C//DTD SVG 1.1//EN" "http://www.w3.org/Graphics/SVG/1.1/DTD/svg11.dtd">
<svg version="1.1" id="Calque_1" xmlns="http://www.w3.org/2000/svg" xmlns:xlink="http://www.w3.org/1999/xlink" x="0px" y="0px"
	 width="313px" height="404.98px" viewBox="0 0 313 404.98" enable-background="new 0 0 313 404.98" xml:space="preserve">
<g>
	<path fill="#FFFFFF" d="M146.589,205.42c13.678,5.396,19.518,2.413,21.879-11.019c3.104-17.598,1.137-35.193-0.637-52.757
		c-0.258-2.556-0.438-4.259,2.162-6.225c4.913-3.717,5.527-8.496,2.063-11.294c-5.179-4.185-10.582-8.089-15.979-11.986
		c-2.723-1.966-5.541-1.68-7.383,1.175c-1.465,2.273-2.234,4.986-3.42,7.452c-0.577,1.2-1.146,2.693-2.168,3.326
		c-1.811,1.12-3.918,1.821-5.979,2.46c-20.762,6.433-42.014,6.31-63.354,4.507c-5.722-0.484-11.396-1.5-18.843-2.508
		c3.058,6.151,5.438,11.16,8.009,16.069c2.305,4.4,6.021,6.349,11.051,6.233c7.041-0.16,14.09-0.041,21.135-0.041
		c0.115,0.546,0.229,1.091,0.348,1.637c-7.176,1.979-14.352,3.956-22.809,6.288c8.197,7.292,15.887,14.299,23.83,21.003
		c1.096,0.927,3.7,0.973,5.184,0.373c7.044-2.841,13.986-5.944,20.863-9.177c2.401-1.129,4.506-2.893,6.748-4.366
		c0.389,0.466,0.776,0.933,1.166,1.397c-7.063,6.853-14.123,13.706-21.797,21.153c6.887,3.644,13.781,7.624,20.961,11.006
		c9.189,4.327,9.858,4.06,14.063-5.116c3.351-7.3,6.188-14.835,9.617-23.157C153.986,184.181,150.459,194.712,146.589,205.42z
		 M175.858,114.174c6.249-9.22,12.222-18.019,18.183-26.824c14.457-21.36,28.944-42.698,43.332-64.104
		c2.979-4.431,2.678-8.19-0.537-10.104c-4.188-2.497-6.767-0.064-9.11,3.188c-7.979,11.072-16.037,22.084-24.048,33.136
		c-13.368,18.453-26.721,36.919-40.288,55.668C167.501,108.117,171.376,110.926,175.858,114.174z M89.683,77.191
		c-2.102,8.59-7.021,13.458-15.862,16.015c8.959,1.804,13.188,6.834,15.938,14.259c2.088-8.285,7.697-12.083,15.828-14.614
		C97.062,90.329,91.938,85.788,89.683,77.191z M114.117,58.35c3.51-3.181,7.646-6.935,10.856-9.844
		c-3.489-3.355-7.504-7.211-10.759-10.337c-3.18,3.28-6.916,7.132-10.162,10.482C107.134,51.62,110.813,55.166,114.117,58.35z
		 M143.312,68.951c-2.604,2.462-5.354,5.063-7.688,7.274c2.471,2.237,5.207,4.713,7.479,6.769c2.85-2.37,5.717-4.756,8.149-6.783
		C148.782,73.955,145.937,71.352,143.312,68.951z"/>
	<path d="M146.589,205.42c3.869-10.708,7.396-21.239,6.716-33.563c-3.435,8.322-6.271,15.857-9.618,23.157
		c-4.207,9.175-4.874,9.443-14.063,5.116c-7.179-3.381-14.074-7.362-20.959-11.005c7.674-7.448,14.732-14.303,21.795-21.154
		c-0.389-0.466-0.775-0.933-1.166-1.397c-2.239,1.475-4.345,3.237-6.748,4.366c-6.875,3.231-13.817,6.336-20.861,9.177
		c-1.479,0.6-4.089,0.554-5.186-0.373c-7.942-6.704-15.631-13.711-23.827-21.003c8.454-2.332,15.631-4.31,22.807-6.288
		c-0.112-0.546-0.229-1.091-0.347-1.637c-7.047,0-14.094-0.119-21.137,0.041c-5.024,0.114-8.746-1.833-11.049-6.232
		c-2.567-4.91-4.953-9.919-8.008-16.07c7.441,1.008,13.119,2.022,18.842,2.508c21.342,1.803,42.594,1.926,63.354-4.507
		c2.061-0.638,4.168-1.34,5.979-2.46c1.021-0.633,1.591-2.126,2.167-3.326c1.187-2.466,1.953-5.179,3.42-7.452
		c1.841-2.854,4.661-3.141,7.384-1.175c5.396,3.897,10.803,7.803,15.979,11.986c3.465,2.798,2.851,7.577-2.063,11.294
		c-2.6,1.966-2.421,3.669-2.162,6.225c1.771,17.563,3.734,35.159,0.638,52.757C166.104,207.833,160.267,210.816,146.589,205.42z"/>
	<path d="M175.858,114.174c-4.481-3.248-8.356-6.058-12.476-9.04c13.568-18.75,26.922-37.216,40.289-55.668
		c8.011-11.051,16.068-22.064,24.049-33.136c2.349-3.252,4.919-5.685,9.111-3.188c3.213,1.914,3.515,5.673,0.535,10.104
		c-14.387,21.407-28.875,42.745-43.332,64.104C188.08,96.156,182.106,104.954,175.858,114.174z"/>
	<path d="M89.683,77.191c2.256,8.598,7.379,13.139,15.904,15.66c-8.131,2.53-13.74,6.329-15.826,14.614
		c-2.752-7.425-6.98-12.456-15.939-14.259C82.66,90.649,87.582,85.781,89.683,77.191z"/>
	<path d="M114.58,37.91c1.521,5.805,4.979,8.871,10.739,10.573c-5.489,1.708-9.278,4.273-10.688,9.867
		c-1.854-5.014-4.715-8.41-10.764-9.628C109.837,46.996,113.162,43.71,114.58,37.91z"/>
	<path d="M143.425,69.151c1.018,3.875,3.326,5.922,7.171,7.059c-3.666,1.14-6.19,2.853-7.136,6.587
		c-1.239-3.347-3.146-5.614-7.188-6.428C140.259,75.217,142.479,73.023,143.425,69.151z"/>
</g>
<g enable-background="new    ">
	<path d="M34.151,227.923h6.744c1.791,0,3.168,0.433,4.127,1.296c0.961,0.864,1.438,2.129,1.438,3.793
		c0,1.231-0.328,2.275-0.983,3.133c-0.654,0.854-1.584,1.437-2.783,1.738l3.694,6.816h-2.544l-3.576-6.624h-3.672v6.624H34.15
		L34.151,227.923L34.151,227.923z M40.487,236.011c1.069,0,1.924-0.252,2.556-0.756s0.948-1.251,0.948-2.244
		c0-1.087-0.311-1.862-0.924-2.327c-0.617-0.463-1.479-0.694-2.58-0.694h-3.891v6.021H40.487z"/>
	<path d="M49.475,243.463c-1.208-1.063-1.812-2.563-1.812-4.5c0-1.888,0.539-3.384,1.619-4.486c1.08-1.104,2.62-1.656,4.62-1.656
		c1.327,0,2.456,0.253,3.384,0.757s1.629,1.198,2.101,2.088c0.473,0.888,0.708,1.899,0.708,3.036v1.199H49.966
		c0.08,1.088,0.541,1.899,1.381,2.437s1.98,0.806,3.42,0.806c0.736,0,1.479-0.067,2.232-0.203c0.752-0.138,1.416-0.316,1.992-0.541
		v1.942c-0.516,0.208-1.188,0.38-2.029,0.519c-0.84,0.136-1.668,0.203-2.483,0.203C52.351,245.061,50.683,244.527,49.475,243.463z
		 M57.813,238.195c-0.03-1.088-0.388-1.932-1.065-2.532c-0.683-0.601-1.646-0.899-2.894-0.899c-1.218,0-2.159,0.313-2.832,0.938
		s-1.022,1.456-1.058,2.494H57.813L57.813,238.195z"/>
	<path d="M59.494,249.979v-1.992c0.417,0.193,0.896,0.289,1.438,0.289c0.722,0,1.236-0.172,1.549-0.518
		c0.313-0.344,0.469-0.898,0.469-1.668v-12.91h2.447v13.079c0,1.328-0.367,2.324-1.104,2.988s-1.729,0.996-2.976,0.996
		C60.599,250.243,59.99,250.154,59.494,249.979z M63.142,230.516c-0.271-0.271-0.405-0.606-0.405-1.009
		c0-0.399,0.14-0.735,0.42-1.008c0.278-0.271,0.62-0.408,1.021-0.408c0.399,0,0.739,0.138,1.021,0.408
		c0.279,0.272,0.42,0.608,0.42,1.008c0,0.4-0.141,0.736-0.42,1.009c-0.28,0.271-0.62,0.407-1.021,0.407
		C63.759,230.923,63.414,230.787,63.142,230.516z"/>
	<path d="M71.386,244.327c-0.981-0.488-1.752-1.191-2.303-2.112c-0.553-0.92-0.828-2.004-0.828-3.252
		c0-1.23,0.271-2.313,0.815-3.238c0.544-0.928,1.312-1.646,2.304-2.147s2.137-0.757,3.432-0.757c1.297,0,2.44,0.253,3.435,0.757
		c0.989,0.504,1.765,1.221,2.313,2.147c0.553,0.928,0.828,2.008,0.828,3.238c0,1.248-0.275,2.332-0.828,3.252
		c-0.551,0.921-1.324,1.624-2.313,2.112c-0.992,0.487-2.138,0.731-3.435,0.731C73.511,245.061,72.37,244.814,71.386,244.327z
		 M77.782,241.986c0.734-0.77,1.104-1.775,1.104-3.023c0-1.296-0.367-2.318-1.104-3.07c-0.737-0.752-1.729-1.129-2.979-1.129
		s-2.238,0.377-2.976,1.129s-1.104,1.774-1.104,3.07c0,1.248,0.369,2.256,1.104,3.023c0.733,0.769,1.728,1.152,2.976,1.152
		S77.046,242.755,77.782,241.986z"/>
	<path d="M84.43,230.516c-0.271-0.271-0.407-0.606-0.407-1.009c0-0.399,0.137-0.735,0.407-1.008
		c0.272-0.271,0.608-0.408,1.009-0.408c0.416,0,0.766,0.138,1.043,0.408c0.28,0.272,0.422,0.608,0.422,1.008
		c0,0.4-0.142,0.736-0.422,1.009c-0.277,0.271-0.627,0.407-1.043,0.407C85.038,230.923,84.702,230.787,84.43,230.516z
		 M84.214,233.18h2.473V244.7h-2.473V233.18z"/>
	<path d="M90.022,233.18h2.352v1.655c0.543-0.688,1.212-1.194,2.004-1.522s1.62-0.492,2.484-0.492c1.535,0,2.68,0.408,3.432,1.225
		s1.128,1.912,1.128,3.288v7.368h-2.424v-7.129c0-1.871-0.896-2.809-2.688-2.809c-0.77,0-1.484,0.18-2.147,0.539
		c-0.665,0.36-1.236,0.909-1.716,1.646v7.752h-2.424L90.022,233.18L90.022,233.18z"/>
	<path d="M106.126,244.759c-0.896-0.198-1.6-0.468-2.112-0.804v-2.063c0.624,0.366,1.345,0.668,2.16,0.897
		c0.815,0.231,1.608,0.351,2.376,0.351c0.863,0,1.496-0.104,1.896-0.313c0.397-0.208,0.6-0.544,0.6-1.009
		c0-0.353-0.092-0.635-0.275-0.854c-0.186-0.216-0.496-0.41-0.937-0.588c-0.44-0.176-1.101-0.384-1.979-0.624
		c-0.943-0.271-1.691-0.548-2.244-0.828c-0.553-0.278-0.969-0.636-1.248-1.065c-0.279-0.435-0.42-0.992-0.42-1.68
		c0-1.104,0.438-1.94,1.31-2.511c0.872-0.565,2.044-0.853,3.516-0.853c0.771,0,1.521,0.072,2.257,0.217
		c0.734,0.146,1.327,0.345,1.775,0.6v2.018c-0.465-0.271-1.036-0.487-1.716-0.647c-0.683-0.159-1.372-0.239-2.076-0.239
		c-0.851,0-1.496,0.104-1.944,0.313c-0.445,0.208-0.672,0.575-0.672,1.104c0,0.336,0.096,0.606,0.288,0.814s0.5,0.389,0.925,0.54
		c0.423,0.151,1.102,0.348,2.027,0.588c1.455,0.399,2.468,0.872,3.036,1.416c0.565,0.544,0.852,1.296,0.852,2.256
		c0,0.992-0.405,1.784-1.224,2.376c-0.817,0.594-2.024,0.891-3.624,0.891C107.87,245.061,107.022,244.959,106.126,244.759z"/>
	<path d="M125.038,226.963h2.424v17.736h-2.424V226.963z"/>
	<path d="M131.913,243.463c-1.208-1.063-1.813-2.563-1.813-4.5c0-1.888,0.54-3.384,1.62-4.486c1.08-1.104,2.619-1.656,4.619-1.656
		c1.328,0,2.457,0.253,3.385,0.757c0.93,0.504,1.629,1.198,2.102,2.088c0.473,0.888,0.709,1.899,0.709,3.036v1.199h-10.129
		c0.08,1.088,0.54,1.899,1.381,2.437c0.84,0.536,1.979,0.806,3.42,0.806c0.734,0,1.479-0.067,2.229-0.203
		c0.752-0.138,1.416-0.316,1.992-0.541v1.942c-0.513,0.208-1.188,0.38-2.026,0.519c-0.842,0.136-1.668,0.203-2.484,0.203
		C134.79,245.061,133.122,244.527,131.913,243.463z M140.253,238.195c-0.031-1.088-0.388-1.932-1.067-2.532
		c-0.681-0.601-1.644-0.899-2.892-0.899c-1.217,0-2.16,0.313-2.832,0.938s-1.024,1.456-1.057,2.494H140.253L140.253,238.195z"/>
	<path d="M146.878,244.759c-0.896-0.198-1.601-0.468-2.113-0.804v-2.063c0.625,0.366,1.346,0.668,2.16,0.897
		c0.816,0.231,1.608,0.351,2.377,0.351c0.863,0,1.496-0.104,1.896-0.313c0.398-0.209,0.601-0.544,0.601-1.009
		c0-0.353-0.093-0.635-0.276-0.854c-0.185-0.216-0.496-0.41-0.937-0.588c-0.439-0.176-1.101-0.384-1.979-0.624
		c-0.942-0.271-1.69-0.548-2.244-0.828c-0.552-0.278-0.968-0.636-1.248-1.065c-0.278-0.435-0.42-0.992-0.42-1.68
		c0-1.104,0.438-1.94,1.31-2.511c0.872-0.565,2.044-0.853,3.516-0.853c0.771,0,1.521,0.072,2.257,0.217
		c0.735,0.146,1.327,0.345,1.776,0.6v2.018c-0.465-0.271-1.037-0.487-1.717-0.647c-0.682-0.159-1.372-0.239-2.076-0.239
		c-0.85,0-1.496,0.104-1.943,0.313c-0.448,0.208-0.672,0.575-0.672,1.104c0,0.336,0.096,0.606,0.287,0.814
		c0.19,0.208,0.5,0.389,0.925,0.54c0.423,0.151,1.102,0.348,2.028,0.588c1.455,0.399,2.467,0.872,3.035,1.416
		c0.566,0.544,0.852,1.296,0.852,2.256c0,0.992-0.407,1.784-1.223,2.376c-0.816,0.594-2.025,0.891-3.625,0.891
		C148.621,245.061,147.772,244.959,146.878,244.759z"/>
	<path d="M167.601,244.809c-0.936-0.168-1.697-0.396-2.291-0.686v-2.208c1.535,0.72,3.191,1.08,4.969,1.08
		c2.494,0,3.742-0.84,3.742-2.521c0-0.576-0.136-1.039-0.406-1.394c-0.271-0.353-0.664-0.66-1.178-0.924
		c-0.512-0.265-1.344-0.63-2.494-1.093c-1.584-0.641-2.729-1.344-3.434-2.111s-1.056-1.735-1.056-2.904
		c0-0.879,0.239-1.658,0.72-2.34c0.48-0.68,1.152-1.208,2.016-1.584c0.865-0.375,1.856-0.563,2.979-0.563
		c0.912,0,1.736,0.07,2.473,0.217c0.734,0.144,1.455,0.376,2.159,0.695v2.11c-1.392-0.624-2.8-0.937-4.224-0.937
		c-1.152,0-2.032,0.207-2.643,0.623c-0.605,0.416-0.91,1.01-0.91,1.775c0,0.528,0.133,0.973,0.396,1.332
		c0.265,0.36,0.656,0.682,1.176,0.96c0.521,0.28,1.292,0.629,2.316,1.045c1.136,0.464,2.031,0.903,2.688,1.319
		c0.656,0.416,1.155,0.924,1.5,1.523c0.345,0.601,0.517,1.349,0.517,2.244c0,1.456-0.521,2.584-1.561,3.385
		c-1.041,0.8-2.575,1.199-4.607,1.199C169.485,245.061,168.537,244.977,167.601,244.809z"/>
	<path d="M179.253,227.923h2.447v16.776h-2.447V227.923z M181.821,236.154l7.654-8.231h2.977l-7.655,8.231l8.136,8.545h-2.976
		L181.821,236.154z"/>
	<path d="M197.133,243.967c-1.344-0.728-2.399-1.755-3.168-3.084c-0.769-1.326-1.151-2.848-1.151-4.56s0.385-3.231,1.151-4.56
		c0.77-1.33,1.824-2.361,3.168-3.099c1.345-0.733,2.849-1.104,4.513-1.104c1.663,0,3.168,0.367,4.514,1.104
		c1.344,0.735,2.398,1.771,3.168,3.099c0.768,1.326,1.15,2.848,1.15,4.56s-0.385,3.231-1.15,4.56
		c-0.77,1.329-1.824,2.356-3.168,3.084c-1.346,0.729-2.851,1.094-4.514,1.094C199.979,245.061,198.478,244.695,197.133,243.967z
		 M204.873,242.047c0.968-0.535,1.729-1.296,2.292-2.279c0.56-0.982,0.84-2.132,0.84-3.442c0-1.298-0.275-2.437-0.828-3.421
		c-0.552-0.983-1.308-1.743-2.268-2.279c-0.961-0.536-2.032-0.805-3.217-0.805c-1.199,0-2.283,0.265-3.252,0.791
		c-0.97,0.529-1.736,1.289-2.306,2.281c-0.567,0.991-0.853,2.135-0.853,3.433c0,1.313,0.279,2.46,0.841,3.442
		c0.56,0.983,1.323,1.744,2.292,2.279c0.968,0.536,2.043,0.805,3.229,0.805S203.905,242.583,204.873,242.047z"/>
	<path d="M216.837,243.967c-1.344-0.728-2.4-1.755-3.168-3.084c-0.768-1.326-1.152-2.848-1.152-4.56s0.387-3.231,1.152-4.56
		c0.768-1.33,1.824-2.361,3.168-3.099c1.344-0.733,2.848-1.104,4.512-1.104s3.168,0.367,4.514,1.104
		c1.345,0.737,2.398,1.771,3.168,3.099c0.769,1.326,1.15,2.848,1.15,4.56s-0.384,3.231-1.15,4.56
		c-0.77,1.329-1.823,2.356-3.168,3.084c-1.346,0.729-2.85,1.094-4.514,1.094S218.181,244.695,216.837,243.967z M224.577,242.047
		c0.968-0.535,1.729-1.296,2.292-2.279c0.56-0.982,0.84-2.132,0.84-3.442c0-1.298-0.276-2.437-0.828-3.421
		c-0.552-0.983-1.308-1.743-2.269-2.279c-0.959-0.536-2.031-0.805-3.215-0.805c-1.201,0-2.285,0.265-3.252,0.791
		c-0.971,0.529-1.736,1.289-2.307,2.281c-0.568,0.991-0.852,2.135-0.852,3.433c0,1.313,0.277,2.46,0.84,3.442
		c0.56,0.983,1.322,1.744,2.292,2.279c0.968,0.536,2.044,0.805,3.228,0.805C222.532,242.852,223.608,242.583,224.577,242.047z"/>
	<path d="M232.821,227.923h2.328l8.543,12.647v-12.647h2.473v16.776h-2.354l-8.544-12.648v12.648h-2.445V227.923z"/>
	<path d="M249.284,227.923h11.063v2.063h-8.615v5.305h6.434v2.04h-6.434v5.328h8.615v2.04h-11.063V227.923z"/>
	<path d="M262.868,227.923h6.744c1.791,0,3.168,0.433,4.128,1.296c0.96,0.864,1.438,2.129,1.438,3.793
		c0,1.231-0.328,2.275-0.982,3.133c-0.656,0.854-1.584,1.437-2.784,1.738l3.696,6.816h-2.547l-3.573-6.624h-3.673v6.624h-2.447
		V227.923z M269.204,236.011c1.072,0,1.924-0.252,2.557-0.756c0.631-0.504,0.947-1.251,0.947-2.244c0-1.087-0.309-1.862-0.924-2.327
		c-0.616-0.463-1.479-0.694-2.58-0.694h-3.889v6.021H269.204z"/>
	<path d="M279.632,244.809c-0.936-0.168-1.7-0.396-2.292-0.686v-2.208c1.536,0.72,3.192,1.08,4.968,1.08
		c2.496,0,3.744-0.84,3.744-2.521c0-0.576-0.137-1.039-0.408-1.394c-0.271-0.353-0.662-0.66-1.176-0.924
		c-0.512-0.265-1.344-0.63-2.496-1.093c-1.584-0.641-2.729-1.344-3.432-2.111c-0.705-0.77-1.057-1.735-1.057-2.904
		c0-0.879,0.238-1.658,0.721-2.34c0.479-0.68,1.152-1.208,2.016-1.584c0.864-0.375,1.855-0.563,2.979-0.563
		c0.912,0,1.733,0.07,2.472,0.217c0.735,0.144,1.456,0.376,2.159,0.695v2.11c-1.392-0.624-2.799-0.937-4.223-0.937
		c-1.152,0-2.033,0.207-2.643,0.623c-0.606,0.416-0.912,1.01-0.912,1.775c0,0.528,0.134,0.973,0.396,1.332
		c0.264,0.36,0.655,0.682,1.176,0.96c0.521,0.28,1.291,0.629,2.316,1.045c1.135,0.464,2.031,0.903,2.688,1.319
		c0.657,0.416,1.156,0.924,1.5,1.523c0.344,0.601,0.518,1.349,0.518,2.244c0,1.456-0.521,2.584-1.562,3.385
		c-1.04,0.8-2.577,1.199-4.608,1.199C281.516,245.061,280.567,244.977,279.632,244.809z"/>
</g>
<g enable-background="new    ">
	<path d="M35.483,272.262c-1.209-1.063-1.813-2.563-1.813-4.5c0-1.888,0.54-3.384,1.62-4.486c1.079-1.104,2.62-1.655,4.62-1.655
		c1.328,0,2.455,0.252,3.384,0.756c0.928,0.504,1.628,1.2,2.103,2.088c0.471,0.89,0.707,1.9,0.707,3.036v1.2h-10.13
		c0.08,1.088,0.541,1.899,1.382,2.437c0.84,0.535,1.979,0.805,3.42,0.805c0.734,0,1.479-0.067,2.23-0.203
		c0.752-0.137,1.416-0.316,1.992-0.541v1.943c-0.513,0.209-1.188,0.381-2.028,0.518c-0.84,0.136-1.668,0.203-2.481,0.203
		C38.358,273.857,36.69,273.326,35.483,272.262z M43.823,266.994c-0.033-1.088-0.391-1.932-1.068-2.532
		c-0.68-0.601-1.645-0.899-2.893-0.899c-1.216,0-2.16,0.313-2.832,0.938s-1.023,1.456-1.058,2.496L43.823,266.994L43.823,266.994z"
		/>
	<path d="M50.481,272.85c-0.633-0.672-0.947-1.623-0.947-2.854v-6.146h-1.752v-1.871h1.752v-3.455h2.447v3.455h2.832v1.871h-2.832
		v5.979c0,0.77,0.146,1.313,0.443,1.632c0.296,0.319,0.836,0.479,1.619,0.479c0.465,0,0.929-0.104,1.393-0.313v1.92
		c-0.605,0.208-1.357,0.313-2.256,0.313C52.015,273.857,51.114,273.521,50.481,272.85z"/>
	<path d="M66.599,261.979h2.305v1.655c0.545-0.672,1.158-1.176,1.849-1.512s1.399-0.504,2.136-0.504c0.93,0,1.664,0.155,2.209,0.468
		c0.543,0.313,0.943,0.788,1.199,1.428c0.512-0.623,1.141-1.096,1.885-1.416c0.743-0.317,1.491-0.479,2.243-0.479
		c1.408,0,2.425,0.355,3.048,1.068c0.625,0.711,0.938,1.764,0.938,3.153v7.656h-2.354v-7.345c0-0.943-0.176-1.611-0.525-2.004
		c-0.354-0.394-0.953-0.588-1.803-0.588c-1.216,0-2.207,0.526-2.976,1.584c0.032,0.238,0.048,0.631,0.048,1.176v7.177h-2.352v-7.345
		c0-0.943-0.16-1.611-0.48-2.004c-0.318-0.394-0.896-0.588-1.728-0.588c-1.218,0-2.306,0.688-3.267,2.063v7.872h-2.375V261.979
		L66.599,261.979z"/>
	<path d="M88.474,272.609c-0.792-0.832-1.188-1.943-1.188-3.336v-7.295h2.424v7.197c0,1.842,0.92,2.762,2.76,2.762
		c1.615,0,2.88-0.729,3.792-2.186v-7.773h2.424v11.52h-2.353v-1.632c-0.543,0.688-1.188,1.192-1.932,1.512
		c-0.744,0.32-1.55,0.479-2.412,0.479C90.438,273.857,89.266,273.441,88.474,272.609z"/>
	<path d="M101.806,261.979h2.354v1.655c0.544-0.688,1.213-1.194,2.004-1.522c0.793-0.327,1.621-0.491,2.484-0.491
		c1.535,0,2.68,0.407,3.432,1.224s1.129,1.912,1.129,3.288v7.368h-2.424v-7.128c0-1.872-0.896-2.81-2.688-2.81
		c-0.77,0-1.483,0.182-2.146,0.539c-0.665,0.36-1.236,0.91-1.717,1.646v7.752h-2.424v-11.521H101.806L101.806,261.979z"/>
	<path d="M116.613,259.314c-0.272-0.272-0.407-0.608-0.407-1.01c0-0.398,0.135-0.734,0.407-1.009
		c0.271-0.271,0.606-0.407,1.009-0.407c0.416,0,0.764,0.137,1.043,0.407c0.28,0.271,0.42,0.606,0.42,1.009
		c0,0.4-0.14,0.735-0.42,1.01c-0.279,0.271-0.627,0.406-1.043,0.406C117.222,259.723,116.886,259.586,116.613,259.314z
		 M116.397,261.979h2.473V273.5h-2.473V261.979z"/>
	<path d="M123.909,273.559c-0.896-0.199-1.602-0.469-2.111-0.805v-2.063c0.623,0.367,1.344,0.668,2.16,0.897
		c0.814,0.231,1.607,0.351,2.375,0.351c0.864,0,1.496-0.104,1.896-0.313c0.398-0.209,0.6-0.544,0.6-1.008
		c0-0.353-0.092-0.636-0.275-0.853c-0.185-0.218-0.496-0.412-0.936-0.588c-0.441-0.178-1.104-0.386-1.98-0.625
		c-0.942-0.271-1.69-0.549-2.244-0.828c-0.553-0.279-0.969-0.637-1.248-1.066c-0.278-0.434-0.42-0.992-0.42-1.68
		c0-1.104,0.438-1.94,1.311-2.511c0.87-0.565,2.043-0.852,3.516-0.852c0.768,0,1.521,0.071,2.256,0.216
		c0.735,0.146,1.328,0.346,1.775,0.602v2.017c-0.464-0.272-1.035-0.488-1.715-0.647c-0.684-0.16-1.373-0.24-2.076-0.24
		c-0.85,0-1.496,0.104-1.944,0.313s-0.673,0.576-0.673,1.104c0,0.336,0.098,0.606,0.289,0.814c0.189,0.208,0.5,0.391,0.924,0.54
		c0.424,0.152,1.1,0.349,2.027,0.588c1.456,0.4,2.469,0.872,3.036,1.416c0.565,0.544,0.853,1.298,0.853,2.257
		c0,0.991-0.408,1.783-1.225,2.377c-0.815,0.592-2.023,0.889-3.623,0.889C125.653,273.857,124.806,273.758,123.909,273.559z"/>
	<path d="M133.462,265.361h7.655v1.992h-7.655V265.361z"/>
	<path d="M145.497,272.85c-0.632-0.672-0.947-1.623-0.947-2.854v-6.146h-1.752v-1.871h1.752v-3.455h2.447v3.455h2.832v1.871h-2.832
		v5.979c0,0.77,0.146,1.313,0.443,1.632s0.837,0.479,1.619,0.479c0.465,0,0.93-0.104,1.394-0.313v1.92
		c-0.608,0.208-1.36,0.313-2.256,0.313C147.029,273.857,146.129,273.521,145.497,272.85z"/>
	<path d="M155.266,273.126c-0.981-0.487-1.752-1.19-2.304-2.112c-0.553-0.92-0.828-2.004-0.828-3.252
		c0-1.229,0.271-2.312,0.816-3.238c0.543-0.928,1.311-1.646,2.304-2.147c0.991-0.504,2.136-0.756,3.433-0.756
		s2.439,0.252,3.434,0.756c0.991,0.504,1.764,1.222,2.313,2.147c0.553,0.928,0.828,2.009,0.828,3.238
		c0,1.248-0.274,2.332-0.828,3.252c-0.552,0.922-1.322,1.625-2.313,2.112c-0.992,0.488-2.137,0.731-3.434,0.731
		S156.249,273.614,155.266,273.126z M161.661,270.786c0.736-0.769,1.104-1.776,1.104-3.024c0-1.296-0.366-2.318-1.104-3.07
		c-0.735-0.752-1.729-1.129-2.978-1.129c-1.247,0-2.238,0.377-2.976,1.129c-0.735,0.752-1.104,1.774-1.104,3.07
		c0,1.248,0.367,2.256,1.104,3.024s1.729,1.151,2.976,1.151C159.933,271.938,160.926,271.555,161.661,270.786z"/>
	<path d="M168.31,259.314c-0.271-0.272-0.406-0.608-0.406-1.01c0-0.398,0.136-0.734,0.406-1.009c0.271-0.271,0.607-0.407,1.01-0.407
		c0.416,0,0.764,0.137,1.044,0.407c0.278,0.271,0.42,0.606,0.42,1.009c0,0.4-0.142,0.735-0.42,1.01
		c-0.28,0.271-0.63,0.406-1.044,0.406C168.917,259.723,168.581,259.586,168.31,259.314z M168.093,261.979h2.475V273.5h-2.475
		V261.979z"/>
	<path d="M185.241,273.102c-0.92-0.504-1.643-1.215-2.16-2.136c-0.521-0.92-0.779-1.987-0.779-3.204c0-1.199,0.26-2.264,0.779-3.191
		c0.519-0.926,1.24-1.65,2.16-2.172c0.92-0.521,1.956-0.778,3.105-0.778c2.08,0,3.656,0.632,4.729,1.896v-7.752h2.424v17.735h-2.353
		v-1.681c-0.642,0.705-1.341,1.221-2.101,1.549c-0.761,0.326-1.66,0.492-2.701,0.492
		C187.197,273.857,186.161,273.605,185.241,273.102z M191.505,271.158c0.744-0.52,1.268-1.221,1.572-2.102v-2.593
		c-0.271-0.88-0.788-1.584-1.548-2.11c-0.761-0.527-1.636-0.791-2.628-0.791c-0.784,0-1.492,0.176-2.124,0.525
		c-0.632,0.354-1.128,0.85-1.488,1.488s-0.54,1.367-0.54,2.184s0.18,1.547,0.54,2.186c0.36,0.641,0.854,1.133,1.488,1.477
		c0.632,0.346,1.34,0.518,2.124,0.518C189.894,271.938,190.761,271.678,191.505,271.158z"/>
	<path d="M199.953,272.262c-1.208-1.063-1.813-2.563-1.813-4.5c0-1.888,0.539-3.384,1.619-4.486c1.08-1.104,2.62-1.655,4.62-1.655
		c1.328,0,2.456,0.252,3.384,0.756c0.93,0.504,1.631,1.2,2.103,2.088c0.472,0.89,0.708,1.9,0.708,3.036v1.2h-10.129
		c0.08,1.088,0.541,1.899,1.381,2.437c0.84,0.535,1.979,0.805,3.42,0.805c0.736,0,1.479-0.067,2.232-0.203
		c0.752-0.137,1.416-0.316,1.99-0.541v1.943c-0.514,0.209-1.188,0.381-2.027,0.518c-0.841,0.136-1.668,0.203-2.483,0.203
		C202.829,273.857,201.161,273.326,199.953,272.262z M208.293,266.994c-0.032-1.088-0.388-1.932-1.067-2.532
		c-0.681-0.601-1.645-0.899-2.893-0.899c-1.217,0-2.16,0.313-2.832,0.938s-1.023,1.456-1.057,2.496L208.293,266.994L208.293,266.994
		z"/>
</g>
<g enable-background="new    ">
	<path d="M34.151,284.563h2.424v17.736h-2.424V284.563z"/>
	<path d="M40.799,285.163h2.399l-1.896,4.68h-2.088L40.799,285.163z"/>
	<path d="M47.171,301.063c-1.209-1.063-1.813-2.563-1.813-4.5c0-1.888,0.54-3.383,1.619-4.485c1.078-1.103,2.619-1.656,4.619-1.656
		c1.328,0,2.455,0.252,3.386,0.756c0.928,0.505,1.628,1.2,2.101,2.089c0.471,0.889,0.707,1.899,0.707,3.035v1.2H47.662
		c0.08,1.088,0.54,1.9,1.38,2.437c0.84,0.535,1.98,0.806,3.42,0.806c0.736,0,1.48-0.068,2.232-0.204s1.416-0.316,1.992-0.54v1.943
		c-0.515,0.208-1.188,0.38-2.028,0.517c-0.84,0.136-1.668,0.204-2.483,0.204C50.046,302.659,48.378,302.127,47.171,301.063z
		 M55.511,295.795c-0.033-1.088-0.389-1.932-1.066-2.531c-0.682-0.601-1.646-0.898-2.895-0.898c-1.216,0-2.16,0.313-2.832,0.936
		c-0.672,0.624-1.021,1.456-1.056,2.496L55.511,295.795L55.511,295.795z M51.935,285.354h2.568l-1.992,4.129h-2.209L51.935,285.354z
		"/>
	<path d="M70.726,300.763c-0.525,0.624-1.207,1.099-2.039,1.416c-0.832,0.32-1.729,0.48-2.688,0.48c-1.168,0-2.208-0.257-3.12-0.771
		c-0.912-0.512-1.628-1.229-2.146-2.158c-0.521-0.93-0.779-1.992-0.779-3.191c0-1.217,0.26-2.284,0.779-3.204
		c0.521-0.92,1.238-1.636,2.159-2.147c0.921-0.513,1.957-0.769,3.107-0.769c2.018,0,3.616,0.688,4.8,2.063v-1.703h2.354v16.773
		h-2.424v-6.791L70.726,300.763L70.726,300.763z M69.166,299.947c0.769-0.528,1.288-1.232,1.56-2.112v-2.592
		c-0.318-0.896-0.852-1.601-1.596-2.112c-0.744-0.511-1.604-0.768-2.58-0.768c-0.781,0-1.49,0.172-2.123,0.516
		s-1.129,0.832-1.486,1.464c-0.36,0.632-0.541,1.364-0.541,2.196s0.181,1.568,0.541,2.208c0.357,0.64,0.854,1.132,1.486,1.476
		c0.631,0.347,1.34,0.519,2.123,0.519C67.526,300.739,68.397,300.475,69.166,299.947z"/>
	<path d="M77.338,301.411c-0.792-0.832-1.188-1.944-1.188-3.336v-7.296h2.424v7.199c0,1.841,0.92,2.761,2.761,2.761
		c1.616,0,2.88-0.729,3.792-2.187v-7.773h2.424v11.52h-2.352v-1.632c-0.546,0.688-1.188,1.192-1.934,1.512
		c-0.744,0.32-1.549,0.48-2.412,0.48C79.302,302.659,78.13,302.243,77.338,301.411z"/>
	<path d="M91.077,288.115c-0.271-0.272-0.408-0.608-0.408-1.01c0-0.398,0.137-0.734,0.408-1.008
		c0.271-0.271,0.607-0.408,1.008-0.408c0.416,0,0.764,0.138,1.045,0.408c0.279,0.271,0.42,0.607,0.42,1.008
		c0,0.399-0.141,0.735-0.42,1.01c-0.281,0.271-0.629,0.406-1.045,0.406C91.685,288.521,91.349,288.387,91.077,288.115z
		 M90.861,290.779h2.472v11.52h-2.472V290.779z"/>
	<path d="M96.669,290.779h2.354v1.703c1.185-1.375,2.783-2.063,4.801-2.063c1.15,0,2.188,0.256,3.105,0.769
		c0.92,0.514,1.643,1.229,2.16,2.147c0.521,0.919,0.78,1.988,0.78,3.204c0,1.2-0.261,2.264-0.78,3.191
		c-0.52,0.929-1.234,1.646-2.146,2.158c-0.912,0.514-1.952,0.771-3.12,0.771c-0.96,0-1.855-0.16-2.688-0.48
		c-0.832-0.317-1.512-0.792-2.041-1.416v6.792H96.67L96.669,290.779L96.669,290.779z M105.394,300.223
		c0.634-0.344,1.129-0.836,1.488-1.476s0.539-1.376,0.539-2.208s-0.18-1.564-0.539-2.196c-0.358-0.632-0.854-1.12-1.488-1.464
		c-0.633-0.344-1.34-0.516-2.124-0.516c-0.976,0-1.836,0.256-2.579,0.768c-0.743,0.514-1.275,1.217-1.598,2.112v2.592
		c0.272,0.88,0.793,1.584,1.563,2.112c0.768,0.525,1.641,0.792,2.614,0.792C104.054,300.739,104.761,300.567,105.394,300.223z"/>
	<path d="M113.841,301.063c-1.208-1.063-1.812-2.563-1.812-4.5c0-1.888,0.54-3.383,1.62-4.485c1.078-1.104,2.617-1.656,4.617-1.656
		c1.328,0,2.457,0.252,3.387,0.756c0.928,0.505,1.628,1.2,2.1,2.089c0.473,0.889,0.709,1.899,0.709,3.035v1.2h-10.129
		c0.08,1.088,0.54,1.9,1.381,2.437c0.84,0.535,1.979,0.806,3.42,0.806c0.735,0,1.479-0.068,2.231-0.204s1.416-0.316,1.99-0.54v1.943
		c-0.513,0.208-1.188,0.38-2.026,0.517c-0.84,0.136-1.668,0.204-2.484,0.204C116.718,302.659,115.05,302.127,113.841,301.063z
		 M122.181,295.795c-0.029-1.088-0.388-1.932-1.065-2.531c-0.683-0.601-1.646-0.898-2.894-0.898c-1.217,0-2.16,0.313-2.832,0.936
		c-0.672,0.624-1.022,1.456-1.057,2.496L122.181,295.795L122.181,295.795z"/>
	<path d="M127.101,290.779h2.307v1.654c0.543-0.673,1.16-1.177,1.848-1.513c0.688-0.336,1.4-0.504,2.137-0.504
		c0.93,0,1.663,0.156,2.207,0.468c0.544,0.313,0.944,0.788,1.2,1.43c0.513-0.625,1.142-1.098,1.884-1.416
		c0.744-0.319,1.492-0.479,2.244-0.479c1.408,0,2.424,0.356,3.049,1.067c0.623,0.713,0.938,1.765,0.938,3.156v7.654h-2.354v-7.344
		c0-0.944-0.177-1.612-0.527-2.004c-0.354-0.395-0.951-0.59-1.799-0.59c-1.219,0-2.209,0.527-2.979,1.584
		c0.031,0.24,0.048,0.634,0.048,1.178v7.176h-2.352v-7.344c0-0.944-0.16-1.612-0.479-2.004c-0.318-0.395-0.896-0.59-1.729-0.59
		c-1.219,0-2.307,0.688-3.266,2.063v7.872h-2.377V290.779L127.101,290.779z"/>
	<path d="M149.241,301.063c-1.209-1.063-1.813-2.563-1.813-4.5c0-1.888,0.54-3.383,1.62-4.485c1.079-1.104,2.62-1.656,4.62-1.656
		c1.328,0,2.455,0.252,3.384,0.756c0.928,0.505,1.628,1.2,2.103,2.089c0.471,0.889,0.707,1.899,0.707,3.035v1.2h-10.129
		c0.079,1.088,0.541,1.9,1.381,2.437c0.84,0.535,1.979,0.806,3.42,0.806c0.735,0,1.479-0.068,2.23-0.204
		c0.753-0.136,1.416-0.316,1.992-0.54v1.943c-0.513,0.208-1.188,0.38-2.028,0.517c-0.84,0.136-1.668,0.204-2.481,0.204
		C152.116,302.659,150.448,302.127,149.241,301.063z M157.581,295.795c-0.033-1.088-0.389-1.932-1.068-2.531
		c-0.68-0.601-1.645-0.898-2.893-0.898c-1.216,0-2.16,0.313-2.832,0.936c-0.672,0.624-1.023,1.456-1.057,2.496L157.581,295.795
		L157.581,295.795z"/>
	<path d="M162.501,290.779h2.352v1.654c0.543-0.688,1.214-1.195,2.006-1.522c0.792-0.328,1.619-0.492,2.482-0.492
		c1.535,0,2.682,0.408,3.434,1.224c0.752,0.816,1.128,1.912,1.128,3.289v7.367h-2.424v-7.128c0-1.872-0.896-2.808-2.688-2.808
		c-0.768,0-1.482,0.18-2.146,0.539c-0.665,0.358-1.236,0.908-1.716,1.645v7.752h-2.426L162.501,290.779L162.501,290.779z"/>
	<path d="M178.64,301.65c-0.631-0.674-0.945-1.623-0.945-2.855v-6.145h-1.752v-1.871h1.752v-3.456h2.445v3.456h2.832v1.871h-2.832
		v5.977c0,0.768,0.148,1.313,0.445,1.632c0.295,0.32,0.836,0.48,1.619,0.48c0.464,0,0.928-0.104,1.393-0.313v1.92
		c-0.606,0.208-1.358,0.313-2.256,0.313C180.173,302.659,179.272,302.323,178.64,301.65z"/>
</g>
<g enable-background="new    ">
	<path d="M34.151,319.58h2.352v1.655c0.543-0.688,1.212-1.195,2.004-1.523s1.62-0.492,2.484-0.492c1.535,0,2.68,0.408,3.432,1.226
		c0.752,0.814,1.128,1.911,1.128,3.288v7.366h-2.424v-7.128c0-1.872-0.896-2.808-2.688-2.808c-0.77,0-1.484,0.18-2.147,0.539
		c-0.665,0.358-1.234,0.909-1.716,1.645v7.752h-2.424L34.151,319.58L34.151,319.58z"/>
	<path d="M49.883,329.863c-1.208-1.063-1.812-2.563-1.812-4.5c0-1.89,0.539-3.386,1.619-4.487c1.078-1.104,2.618-1.656,4.618-1.656
		c1.328,0,2.456,0.252,3.386,0.756c0.928,0.506,1.629,1.2,2.101,2.09c0.472,0.888,0.708,1.898,0.708,3.034v1.2H50.374
		c0.08,1.088,0.541,1.9,1.381,2.438s1.98,0.805,3.42,0.805c0.736,0,1.479-0.068,2.232-0.204c0.752-0.136,1.416-0.314,1.992-0.54
		v1.943c-0.516,0.208-1.188,0.38-2.029,0.517c-0.84,0.136-1.668,0.204-2.483,0.204C52.759,331.46,51.091,330.928,49.883,329.863z
		 M58.223,324.596c-0.03-1.088-0.388-1.932-1.065-2.53c-0.683-0.602-1.646-0.899-2.895-0.899c-1.217,0-2.16,0.313-2.832,0.936
		c-0.672,0.624-1.021,1.456-1.057,2.496L58.223,324.596L58.223,324.596z M54.647,314.155h2.566l-1.992,4.128h-2.208L54.647,314.155z
		"/>
	<path d="M65.806,330.739c-0.99-0.479-1.764-1.182-2.313-2.102s-0.828-2.012-0.828-3.274c0-1.266,0.276-2.355,0.828-3.275
		s1.327-1.628,2.327-2.124s2.146-0.744,3.443-0.744c1.762,0,3.168,0.346,4.225,1.032v1.991c-1.039-0.72-2.367-1.079-3.983-1.079
		c-1.312,0-2.372,0.355-3.18,1.067c-0.811,0.712-1.212,1.756-1.212,3.132c0,1.377,0.397,2.416,1.197,3.12
		c0.803,0.704,1.851,1.057,3.146,1.057c1.615,0,3.008-0.385,4.176-1.152v1.97c-0.561,0.384-1.196,0.662-1.908,0.84
		c-0.712,0.176-1.548,0.265-2.508,0.265C67.934,331.46,66.798,331.22,65.806,330.739z"/>
	<path d="M77.603,329.863c-1.209-1.063-1.813-2.563-1.813-4.5c0-1.89,0.54-3.386,1.62-4.487c1.079-1.104,2.62-1.656,4.62-1.656
		c1.328,0,2.455,0.252,3.384,0.756c0.928,0.506,1.628,1.2,2.101,2.09c0.473,0.888,0.707,1.898,0.707,3.034v1.2H78.094
		c0.08,1.088,0.54,1.9,1.38,2.438s1.98,0.805,3.42,0.805c0.736,0,1.48-0.068,2.232-0.204s1.416-0.314,1.992-0.54v1.943
		c-0.513,0.208-1.188,0.38-2.028,0.517c-0.84,0.136-1.668,0.204-2.481,0.204C80.478,331.46,78.81,330.928,77.603,329.863z
		 M85.942,324.596c-0.033-1.088-0.391-1.932-1.068-2.53c-0.68-0.602-1.645-0.899-2.893-0.899c-1.218,0-2.16,0.313-2.832,0.936
		c-0.672,0.624-1.023,1.456-1.058,2.496L85.942,324.596L85.942,324.596z"/>
	<path d="M92.565,331.159c-0.896-0.199-1.602-0.468-2.111-0.804v-2.063c0.623,0.368,1.344,0.668,2.16,0.899
		c0.813,0.23,1.605,0.349,2.375,0.349c0.863,0,1.496-0.104,1.896-0.313c0.4-0.209,0.602-0.544,0.602-1.008
		c0-0.352-0.094-0.636-0.275-0.853c-0.187-0.216-0.496-0.411-0.937-0.588c-0.44-0.178-1.103-0.386-1.979-0.624
		c-0.944-0.271-1.692-0.548-2.244-0.828c-0.553-0.279-0.969-0.636-1.248-1.067c-0.28-0.433-0.42-0.992-0.42-1.68
		c0-1.104,0.437-1.94,1.309-2.509c0.871-0.567,2.043-0.854,3.518-0.854c0.768,0,1.52,0.072,2.256,0.216
		c0.735,0.146,1.328,0.347,1.774,0.602v2.017c-0.465-0.271-1.034-0.486-1.716-0.646c-0.682-0.159-1.373-0.239-2.075-0.239
		c-0.85,0-1.495,0.104-1.943,0.312c-0.448,0.209-0.673,0.576-0.673,1.104c0,0.336,0.097,0.607,0.289,0.815
		c0.189,0.208,0.5,0.389,0.924,0.54c0.424,0.15,1.1,0.348,2.025,0.588c1.456,0.398,2.471,0.872,3.037,1.416s0.854,1.296,0.854,2.256
		c0,0.992-0.408,1.784-1.227,2.376c-0.813,0.592-2.021,0.889-3.623,0.889C94.31,331.46,93.462,331.359,92.565,331.159z"/>
	<path d="M103.702,331.159c-0.896-0.199-1.6-0.468-2.112-0.804v-2.063c0.624,0.368,1.345,0.668,2.16,0.899
		c0.815,0.23,1.608,0.349,2.376,0.349c0.863,0,1.496-0.104,1.896-0.313c0.397-0.208,0.6-0.544,0.6-1.008
		c0-0.352-0.092-0.636-0.275-0.853c-0.186-0.216-0.496-0.411-0.937-0.588c-0.441-0.178-1.103-0.386-1.979-0.624
		c-0.943-0.271-1.691-0.548-2.244-0.828c-0.553-0.279-0.969-0.636-1.248-1.067c-0.279-0.433-0.42-0.992-0.42-1.68
		c0-1.104,0.438-1.94,1.31-2.509c0.87-0.567,2.044-0.854,3.516-0.854c0.771,0,1.521,0.072,2.257,0.216
		c0.734,0.146,1.327,0.347,1.775,0.602v2.017c-0.465-0.271-1.036-0.486-1.716-0.646c-0.683-0.159-1.372-0.239-2.076-0.239
		c-0.851,0-1.496,0.104-1.944,0.312c-0.447,0.209-0.672,0.576-0.672,1.104c0,0.336,0.096,0.607,0.288,0.815
		c0.19,0.208,0.5,0.389,0.925,0.54c0.423,0.15,1.102,0.348,2.027,0.588c1.455,0.398,2.468,0.872,3.036,1.416
		c0.565,0.544,0.852,1.296,0.852,2.256c0,0.992-0.407,1.784-1.224,2.376c-0.817,0.592-2.024,0.889-3.624,0.889
		C105.446,331.46,104.598,331.359,103.702,331.159z"/>
	<path d="M114.153,330.392c-0.84-0.712-1.262-1.676-1.262-2.892c0-1.28,0.404-2.269,1.215-2.965
		c0.807-0.695,1.953-1.044,3.441-1.044c1.584,0,2.928,0.318,4.032,0.96v-0.602c0-0.91-0.276-1.588-0.828-2.026
		c-0.552-0.439-1.42-0.659-2.604-0.659c-0.702,0-1.389,0.066-2.052,0.203c-0.664,0.137-1.261,0.324-1.789,0.563v-1.968
		c0.48-0.225,1.104-0.404,1.873-0.54c0.77-0.136,1.514-0.204,2.231-0.204c1.902,0,3.313,0.42,4.234,1.26
		c0.921,0.842,1.382,2.006,1.382,3.492v7.128h-2.28v-1.296c-0.496,0.544-1.084,0.956-1.766,1.236
		c-0.681,0.279-1.509,0.42-2.482,0.42C116.11,331.46,114.994,331.104,114.153,330.392z M120.19,329.155
		c0.623-0.306,1.088-0.729,1.392-1.271v-1.561c-1.04-0.672-2.2-1.008-3.479-1.008c-0.929,0-1.621,0.181-2.076,0.54
		c-0.457,0.358-0.685,0.906-0.685,1.645c0,1.408,0.92,2.111,2.761,2.111C118.87,329.611,119.565,329.46,120.19,329.155z"/>
	<path d="M127.438,316.916c-0.271-0.272-0.406-0.608-0.406-1.009c0-0.399,0.135-0.735,0.406-1.008
		c0.271-0.271,0.607-0.408,1.01-0.408c0.416,0,0.764,0.137,1.043,0.408c0.279,0.271,0.42,0.606,0.42,1.008
		c0,0.398-0.141,0.734-0.42,1.009c-0.279,0.271-0.627,0.407-1.043,0.407C128.046,317.323,127.71,317.188,127.438,316.916z
		 M127.222,319.58h2.475v11.52h-2.475V319.58z"/>
	<path d="M133.03,319.58h2.352v2.063c0.48-0.702,1.156-1.224,2.027-1.56c0.873-0.336,1.885-0.504,3.037-0.504v1.896
		c-1.232,0-2.289,0.2-3.168,0.602c-0.881,0.398-1.488,1.032-1.824,1.896v7.128h-2.424V319.58L133.03,319.58z"/>
	<path d="M143.218,329.863c-1.209-1.063-1.813-2.563-1.813-4.5c0-1.89,0.54-3.386,1.62-4.487c1.079-1.104,2.62-1.656,4.62-1.656
		c1.326,0,2.453,0.252,3.384,0.756c0.928,0.506,1.628,1.2,2.101,2.09c0.471,0.888,0.707,1.898,0.707,3.034v1.2h-10.128
		c0.08,1.088,0.54,1.9,1.38,2.438s1.98,0.805,3.42,0.805c0.736,0,1.48-0.068,2.232-0.204s1.416-0.314,1.992-0.54v1.943
		c-0.515,0.208-1.188,0.38-2.028,0.517c-0.84,0.136-1.668,0.204-2.483,0.204C146.093,331.46,144.425,330.928,143.218,329.863z
		 M151.558,324.596c-0.031-1.088-0.389-1.932-1.066-2.53c-0.682-0.602-1.646-0.899-2.895-0.899c-1.216,0-2.16,0.313-2.832,0.936
		c-0.672,0.624-1.021,1.456-1.056,2.496L151.558,324.596L151.558,324.596z"/>
	<path d="M157.94,329.827h2.545l-2.28,4.824h-2.208L157.94,329.827z"/>
	<path d="M173.337,329.863c-1.209-1.063-1.813-2.563-1.813-4.5c0-1.89,0.541-3.386,1.621-4.487c1.077-1.104,2.617-1.656,4.617-1.656
		c1.328,0,2.456,0.252,3.387,0.756c0.928,0.506,1.627,1.2,2.1,2.09c0.472,0.888,0.708,1.898,0.708,3.034v1.2h-10.128
		c0.08,1.088,0.539,1.9,1.38,2.438c0.84,0.536,1.979,0.805,3.42,0.805c0.735,0,1.479-0.068,2.231-0.204s1.416-0.314,1.99-0.54v1.943
		c-0.512,0.208-1.188,0.38-2.025,0.517c-0.84,0.136-1.668,0.204-2.484,0.204C176.213,331.46,174.545,330.928,173.337,329.863z
		 M181.677,324.596c-0.031-1.088-0.389-1.932-1.066-2.53c-0.682-0.602-1.646-0.899-2.894-0.899c-1.216,0-2.16,0.313-2.832,0.936
		c-0.672,0.624-1.022,1.456-1.056,2.496L181.677,324.596L181.677,324.596z"/>
	<path d="M188.336,330.451c-0.632-0.672-0.948-1.623-0.948-2.855v-6.145h-1.752v-1.871h1.752v-3.456h2.448v3.456h2.832v1.871h-2.832
		v5.977c0,0.77,0.147,1.313,0.444,1.632c0.296,0.32,0.836,0.48,1.619,0.48c0.465,0,0.929-0.104,1.393-0.313v1.922
		c-0.607,0.208-1.359,0.313-2.256,0.313C189.868,331.46,188.968,331.124,188.336,330.451z"/>
</g>
<g enable-background="new    ">
	<path d="M35.483,358.662c-1.209-1.063-1.813-2.563-1.813-4.5c0-1.888,0.54-3.384,1.62-4.487c1.079-1.104,2.62-1.656,4.62-1.656
		c1.328,0,2.455,0.253,3.384,0.758c0.928,0.504,1.628,1.198,2.103,2.088c0.471,0.888,0.707,1.898,0.707,3.036v1.198h-10.13
		c0.08,1.089,0.541,1.9,1.382,2.438c0.84,0.536,1.979,0.805,3.42,0.805c0.734,0,1.479-0.066,2.23-0.204
		c0.752-0.136,1.416-0.314,1.992-0.54v1.943c-0.513,0.208-1.188,0.38-2.028,0.517c-0.84,0.138-1.668,0.204-2.481,0.204
		C38.358,360.259,36.69,359.727,35.483,358.662z M43.823,353.395c-0.033-1.088-0.391-1.932-1.068-2.53
		c-0.68-0.602-1.645-0.899-2.893-0.899c-1.216,0-2.16,0.313-2.832,0.938s-1.023,1.456-1.058,2.496h7.851V353.395z"/>
	<path d="M48.743,348.379h2.352v1.655c0.543-0.688,1.212-1.195,2.004-1.523s1.62-0.492,2.484-0.492c1.535,0,2.68,0.408,3.432,1.226
		c0.752,0.814,1.129,1.912,1.129,3.288v7.368h-2.425v-7.128c0-1.872-0.896-2.81-2.688-2.81c-0.77,0-1.484,0.18-2.147,0.539
		c-0.665,0.36-1.234,0.909-1.716,1.646v7.753h-2.424L48.743,348.379L48.743,348.379z"/>
	<path d="M64.847,359.958c-0.896-0.199-1.601-0.468-2.113-0.804v-2.063c0.625,0.368,1.347,0.668,2.16,0.899
		c0.816,0.23,1.608,0.349,2.377,0.349c0.863,0,1.496-0.104,1.896-0.313s0.601-0.544,0.601-1.01c0-0.352-0.093-0.636-0.274-0.853
		c-0.187-0.216-0.496-0.411-0.938-0.588c-0.438-0.176-1.1-0.384-1.979-0.624c-0.944-0.271-1.692-0.548-2.244-0.828
		c-0.552-0.279-0.968-0.636-1.248-1.067c-0.28-0.433-0.42-0.99-0.42-1.68c0-1.104,0.436-1.938,1.308-2.509
		c0.872-0.567,2.044-0.854,3.516-0.854c0.771,0,1.521,0.072,2.259,0.218c0.733,0.145,1.325,0.345,1.774,0.6v2.017
		c-0.465-0.271-1.037-0.486-1.717-0.646c-0.68-0.159-1.372-0.239-2.076-0.239c-0.848,0-1.496,0.104-1.943,0.313
		c-0.446,0.209-0.672,0.574-0.672,1.104c0,0.336,0.097,0.607,0.287,0.815c0.192,0.208,0.5,0.389,0.926,0.54
		c0.423,0.15,1.101,0.348,2.027,0.588c1.455,0.398,2.467,0.872,3.035,1.416s0.852,1.296,0.852,2.256
		c0,0.992-0.405,1.784-1.223,2.376c-0.816,0.592-2.025,0.889-3.625,0.889C66.59,360.259,65.741,360.158,64.847,359.958z"/>
	<path d="M76.21,358.662c-1.208-1.063-1.813-2.563-1.813-4.5c0-1.888,0.541-3.384,1.619-4.487c1.08-1.104,2.619-1.656,4.619-1.656
		c1.328,0,2.457,0.253,3.387,0.758c0.928,0.504,1.628,1.198,2.1,2.088c0.473,0.888,0.709,1.898,0.709,3.036v1.198H76.702
		c0.08,1.089,0.54,1.9,1.381,2.438c0.84,0.536,1.979,0.805,3.42,0.805c0.735,0,1.479-0.066,2.23-0.204
		c0.752-0.136,1.416-0.314,1.991-0.54v1.943c-0.513,0.208-1.188,0.38-2.026,0.517c-0.84,0.138-1.668,0.204-2.484,0.204
		C79.087,360.259,77.419,359.727,76.21,358.662z M84.55,353.395c-0.031-1.088-0.388-1.932-1.066-2.53
		c-0.682-0.602-1.645-0.899-2.893-0.899c-1.217,0-2.16,0.313-2.832,0.938s-1.022,1.456-1.057,2.496h7.848V353.395z"/>
	<path d="M89.47,348.379h2.307v1.655c0.543-0.672,1.158-1.176,1.848-1.512c0.688-0.338,1.4-0.506,2.137-0.506
		c0.93,0,1.663,0.156,2.207,0.47c0.544,0.313,0.944,0.788,1.2,1.428c0.513-0.624,1.14-1.096,1.884-1.416
		c0.744-0.319,1.492-0.479,2.244-0.479c1.408,0,2.424,0.356,3.049,1.068c0.623,0.712,0.938,1.764,0.938,3.155v7.656h-2.354v-7.346
		c0-0.942-0.177-1.61-0.527-2.004c-0.354-0.393-0.951-0.588-1.801-0.588c-1.217,0-2.209,0.527-2.977,1.584
		c0.031,0.239,0.048,0.632,0.048,1.176v7.178h-2.353v-7.346c0-0.942-0.159-1.61-0.479-2.004c-0.32-0.393-0.896-0.588-1.729-0.588
		c-1.218,0-2.306,0.688-3.265,2.063v7.872h-2.377L89.47,348.379L89.47,348.379z"/>
	<path d="M114.729,359.767c-0.76-0.326-1.459-0.844-2.1-1.548v1.682h-2.352v-17.736h2.424v7.752
		c0.525-0.624,1.207-1.096,2.039-1.416c0.832-0.319,1.729-0.479,2.688-0.479c1.151,0,2.188,0.261,3.108,0.779
		c0.92,0.521,1.64,1.244,2.16,2.172c0.52,0.93,0.777,1.992,0.777,3.191c0,1.217-0.26,2.284-0.777,3.204
		c-0.521,0.921-1.24,1.632-2.16,2.136c-0.92,0.505-1.957,0.757-3.108,0.757C116.39,360.259,115.489,360.094,114.729,359.767z
		 M119.002,357.822c0.632-0.346,1.128-0.836,1.487-1.478c0.358-0.64,0.541-1.368,0.541-2.185c0-0.815-0.183-1.544-0.541-2.186
		c-0.359-0.64-0.855-1.136-1.487-1.486c-0.632-0.354-1.341-0.527-2.124-0.527c-0.977,0-1.848,0.264-2.616,0.792
		c-0.769,0.527-1.288,1.231-1.56,2.111v2.592c0.303,0.881,0.828,1.581,1.572,2.101c0.741,0.521,1.609,0.78,2.604,0.78
		C117.661,358.339,118.37,358.167,119.002,357.822z"/>
	<path d="M126.118,342.162h2.424v17.736h-2.424V342.162z"/>
	<path d="M132.993,358.662c-1.209-1.063-1.813-2.563-1.813-4.5c0-1.888,0.541-3.384,1.621-4.487
		c1.079-1.104,2.619-1.656,4.619-1.656c1.328,0,2.456,0.253,3.385,0.758c0.929,0.504,1.627,1.198,2.102,2.088
		c0.472,0.888,0.708,1.898,0.708,3.036v1.198h-10.129c0.079,1.089,0.538,1.9,1.381,2.438c0.84,0.536,1.979,0.805,3.42,0.805
		c0.733,0,1.479-0.066,2.229-0.204c0.752-0.136,1.416-0.314,1.992-0.54v1.943c-0.512,0.208-1.188,0.38-2.027,0.517
		c-0.84,0.138-1.668,0.204-2.482,0.204C135.869,360.259,134.201,359.727,132.993,358.662z M141.333,353.395
		c-0.032-1.088-0.389-1.932-1.068-2.53c-0.68-0.602-1.644-0.899-2.892-0.899c-1.216,0-2.16,0.313-2.832,0.938
		s-1.024,1.456-1.056,2.496h7.848V353.395z"/>
	<path d="M156.837,359.958c-0.896-0.199-1.6-0.468-2.112-0.804v-2.063c0.624,0.368,1.347,0.668,2.16,0.899
		c0.815,0.23,1.608,0.349,2.376,0.349c0.863,0,1.496-0.104,1.896-0.313c0.397-0.208,0.6-0.544,0.6-1.01
		c0-0.352-0.092-0.636-0.275-0.853c-0.186-0.216-0.494-0.411-0.937-0.588c-0.44-0.176-1.101-0.384-1.979-0.624
		c-0.943-0.271-1.691-0.548-2.242-0.828c-0.555-0.279-0.971-0.636-1.248-1.067c-0.281-0.433-0.422-0.99-0.422-1.68
		c0-1.104,0.438-1.938,1.31-2.509c0.872-0.567,2.044-0.854,3.516-0.854c0.771,0,1.521,0.072,2.257,0.218
		c0.734,0.145,1.327,0.345,1.775,0.6v2.017c-0.465-0.271-1.036-0.486-1.716-0.646c-0.683-0.159-1.372-0.239-2.076-0.239
		c-0.849,0-1.496,0.104-1.944,0.313c-0.445,0.208-0.672,0.574-0.672,1.104c0,0.336,0.098,0.607,0.288,0.815
		c0.192,0.208,0.5,0.389,0.925,0.54c0.424,0.15,1.102,0.348,2.027,0.588c1.455,0.398,2.468,0.872,3.036,1.416
		c0.565,0.544,0.852,1.296,0.852,2.256c0,0.992-0.405,1.784-1.224,2.376s-2.024,0.889-3.624,0.889
		C158.581,360.259,157.731,360.158,156.837,359.958z"/>
	<path d="M167.288,359.19c-0.84-0.714-1.26-1.678-1.26-2.894c0-1.28,0.402-2.269,1.213-2.965c0.807-0.695,1.955-1.044,3.441-1.044
		c1.584,0,2.93,0.32,4.032,0.96v-0.6c0-0.912-0.274-1.59-0.828-2.028c-0.552-0.439-1.42-0.659-2.604-0.659
		c-0.703,0-1.39,0.067-2.052,0.203c-0.663,0.137-1.262,0.324-1.788,0.563v-1.968c0.479-0.225,1.104-0.403,1.873-0.54
		c0.768-0.136,1.512-0.204,2.229-0.204c1.903,0,3.315,0.42,4.235,1.262c0.92,0.84,1.381,2.004,1.381,3.49v7.128h-2.28v-1.296
		c-0.496,0.544-1.084,0.956-1.765,1.236c-0.682,0.279-1.509,0.42-2.483,0.42C169.245,360.259,168.129,359.902,167.288,359.19z
		 M173.325,357.954c0.623-0.304,1.088-0.729,1.392-1.271v-1.561c-1.04-0.672-2.2-1.008-3.479-1.008c-0.931,0-1.621,0.181-2.076,0.54
		c-0.457,0.358-0.687,0.908-0.687,1.645c0,1.408,0.92,2.111,2.762,2.111C172.005,358.41,172.7,358.259,173.325,357.954z"/>
	<path d="M181.231,359.011c-0.791-0.832-1.188-1.942-1.188-3.336v-7.296h2.424v7.199c0,1.841,0.92,2.761,2.761,2.761
		c1.616,0,2.881-0.729,3.792-2.185v-7.775h2.425V359.9h-2.353v-1.634c-0.545,0.688-1.188,1.192-1.932,1.514
		c-0.744,0.318-1.55,0.479-2.412,0.479C183.196,360.259,182.024,359.843,181.231,359.011z"/>
	<path d="M193.484,348.379h2.565l3.387,8.279l3.384-8.279h2.565L200.49,359.9h-2.112L193.484,348.379z"/>
	<path d="M209.12,359.526c-0.984-0.488-1.752-1.191-2.304-2.112c-0.554-0.92-0.828-2.004-0.828-3.252
		c0-1.231,0.271-2.313,0.813-3.239c0.545-0.928,1.313-1.645,2.307-2.146c0.991-0.505,2.136-0.758,3.432-0.758
		c1.297,0,2.439,0.253,3.432,0.758c0.993,0.504,1.767,1.221,2.316,2.146c0.553,0.928,0.828,2.008,0.828,3.239
		c0,1.248-0.275,2.332-0.828,3.252c-0.552,0.921-1.324,1.624-2.316,2.112c-0.991,0.486-2.135,0.73-3.432,0.73
		C211.244,360.259,210.104,360.015,209.12,359.526z M215.517,357.188c0.735-0.77,1.104-1.775,1.104-3.023
		c0-1.296-0.368-2.319-1.104-3.071c-0.734-0.752-1.729-1.128-2.977-1.128s-2.24,0.376-2.979,1.128
		c-0.733,0.752-1.104,1.775-1.104,3.071c0,1.248,0.368,2.256,1.104,3.023c0.736,0.769,1.729,1.151,2.979,1.151
		S214.78,357.954,215.517,357.188z"/>
	<path d="M221.757,348.379h2.354v1.655c0.543-0.688,1.212-1.195,2.004-1.523s1.62-0.492,2.482-0.492
		c1.535,0,2.682,0.408,3.434,1.226c0.752,0.814,1.128,1.912,1.128,3.288v7.368h-2.424v-7.128c0-1.872-0.896-2.81-2.688-2.81
		c-0.768,0-1.482,0.18-2.146,0.539c-0.665,0.36-1.236,0.909-1.716,1.646v7.753h-2.424v-11.521H221.757z"/>
	<path d="M237.86,359.958c-0.896-0.199-1.602-0.468-2.112-0.804v-2.063c0.624,0.368,1.345,0.668,2.16,0.899
		c0.813,0.23,1.606,0.349,2.376,0.349c0.863,0,1.496-0.104,1.896-0.313c0.399-0.208,0.602-0.544,0.602-1.01
		c0-0.352-0.094-0.636-0.275-0.853c-0.187-0.216-0.496-0.411-0.938-0.588c-0.438-0.176-1.101-0.384-1.979-0.624
		c-0.945-0.271-1.693-0.548-2.244-0.828c-0.553-0.279-0.969-0.636-1.248-1.067c-0.281-0.433-0.42-0.99-0.42-1.68
		c0-1.104,0.436-1.938,1.308-2.509c0.872-0.567,2.044-0.854,3.518-0.854c0.769,0,1.521,0.072,2.257,0.218
		c0.732,0.145,1.327,0.345,1.773,0.6v2.017c-0.465-0.271-1.034-0.486-1.716-0.646c-0.681-0.159-1.372-0.239-2.074-0.239
		c-0.851,0-1.496,0.104-1.944,0.313c-0.447,0.208-0.672,0.574-0.672,1.104c0,0.336,0.096,0.607,0.288,0.815
		c0.19,0.208,0.5,0.389,0.925,0.54c0.423,0.15,1.1,0.348,2.026,0.588c1.454,0.398,2.469,0.872,3.036,1.416
		c0.566,0.544,0.853,1.296,0.853,2.256c0,0.992-0.407,1.784-1.225,2.376c-0.816,0.592-2.023,0.889-3.623,0.889
		C239.604,360.259,238.756,360.158,237.86,359.958z"/>
</g>
<g enable-background="new    ">
	<path d="M34.151,377.18h2.352v1.655c0.543-0.688,1.212-1.195,2.004-1.523c0.792-0.326,1.62-0.49,2.484-0.49
		c1.535,0,2.68,0.406,3.432,1.224s1.128,1.912,1.128,3.288v7.368h-2.424v-7.128c0-1.872-0.896-2.81-2.688-2.81
		c-0.77,0-1.484,0.182-2.147,0.539c-0.665,0.36-1.234,0.909-1.716,1.646v7.752h-2.424L34.151,377.18L34.151,377.18z"/>
	<path d="M50.843,388.327c-0.982-0.488-1.752-1.191-2.304-2.112c-0.552-0.92-0.828-2.004-0.828-3.252
		c0-1.229,0.272-2.312,0.815-3.239c0.545-0.928,1.313-1.645,2.305-2.146s2.136-0.756,3.432-0.756c1.297,0,2.439,0.252,3.434,0.756
		s1.765,1.221,2.314,2.146c0.555,0.93,0.828,2.01,0.828,3.239c0,1.248-0.273,2.332-0.828,3.252
		c-0.552,0.921-1.322,1.624-2.314,2.112s-2.137,0.73-3.434,0.73C52.967,389.06,51.827,388.815,50.843,388.327z M57.239,385.987
		c0.733-0.771,1.104-1.776,1.104-3.024c0-1.296-0.368-2.319-1.104-3.071c-0.736-0.752-1.729-1.128-2.979-1.128
		s-2.238,0.376-2.977,1.128c-0.735,0.752-1.104,1.775-1.104,3.071c0,1.248,0.368,2.256,1.104,3.024
		c0.734,0.768,1.729,1.15,2.977,1.15S56.503,386.755,57.239,385.987z"/>
	<path d="M64.858,388.051c-0.634-0.672-0.947-1.623-0.947-2.854v-6.146h-1.752v-1.871h1.752v-3.456h2.447v3.456h2.832v1.871h-2.832
		v5.979c0,0.768,0.146,1.312,0.442,1.632c0.296,0.319,0.836,0.479,1.62,0.479c0.463,0,0.928-0.104,1.393-0.313v1.92
		c-0.607,0.208-1.359,0.313-2.257,0.313C66.391,389.06,65.49,388.724,64.858,388.051z"/>
	<path d="M72.095,377.18h2.354v2.063c0.479-0.704,1.154-1.226,2.025-1.562c0.873-0.336,1.887-0.504,3.037-0.504v1.896
		c-1.23,0-2.289,0.2-3.168,0.6c-0.881,0.4-1.488,1.032-1.824,1.896v7.128h-2.424V377.18L72.095,377.18z"/>
	<path d="M82.282,387.463c-1.209-1.063-1.813-2.563-1.813-4.5c0-1.888,0.541-3.384,1.621-4.487c1.079-1.104,2.619-1.654,4.619-1.654
		c1.328,0,2.456,0.252,3.385,0.756s1.627,1.2,2.102,2.088c0.472,0.888,0.708,1.9,0.708,3.036v1.2H82.774
		c0.079,1.088,0.538,1.898,1.381,2.436c0.84,0.536,1.979,0.805,3.42,0.805c0.733,0,1.479-0.066,2.229-0.202
		c0.752-0.138,1.416-0.316,1.992-0.54v1.941c-0.512,0.208-1.188,0.38-2.027,0.519c-0.84,0.136-1.668,0.203-2.482,0.203
		C85.158,389.06,83.49,388.527,82.282,387.463z M90.622,382.195c-0.032-1.088-0.389-1.934-1.068-2.532
		c-0.68-0.602-1.644-0.899-2.892-0.899c-1.216,0-2.16,0.313-2.832,0.938s-1.024,1.456-1.056,2.496L90.622,382.195L90.622,382.195z"
		/>
	<path d="M106.161,388.051c-0.632-0.672-0.947-1.623-0.947-2.854v-6.146h-1.752v-1.871h1.752v-3.456h2.447v3.456h2.832v1.871h-2.832
		v5.979c0,0.768,0.146,1.312,0.443,1.632c0.297,0.319,0.837,0.479,1.619,0.479c0.465,0,0.93-0.104,1.394-0.313v1.92
		c-0.608,0.208-1.36,0.313-2.256,0.313C107.693,389.06,106.793,388.724,106.161,388.051z"/>
	<path d="M114.729,387.463c-1.209-1.063-1.813-2.563-1.813-4.5c0-1.888,0.541-3.384,1.621-4.487
		c1.079-1.104,2.619-1.654,4.619-1.654c1.328,0,2.456,0.252,3.385,0.756c0.928,0.504,1.627,1.2,2.1,2.088
		c0.474,0.888,0.708,1.9,0.708,3.036v1.2h-10.128c0.08,1.088,0.539,1.898,1.38,2.436c0.842,0.537,1.979,0.805,3.421,0.805
		c0.734,0,1.479-0.066,2.23-0.202c0.752-0.138,1.416-0.316,1.992-0.54v1.941c-0.512,0.208-1.188,0.38-2.027,0.519
		c-0.84,0.136-1.668,0.203-2.484,0.203C117.604,389.06,115.938,388.527,114.729,387.463z M123.069,382.195
		c-0.032-1.088-0.391-1.934-1.068-2.532c-0.68-0.602-1.645-0.899-2.892-0.899c-1.216,0-2.16,0.313-2.832,0.938
		c-0.673,0.624-1.024,1.456-1.058,2.496L123.069,382.195L123.069,382.195z"/>
	<path d="M127.989,377.18h2.352v2.063c0.48-0.704,1.156-1.226,2.028-1.562s1.884-0.504,3.036-0.504v1.896
		c-1.232,0-2.288,0.2-3.168,0.6c-0.881,0.4-1.488,1.032-1.824,1.896v7.128h-2.424V377.18L127.989,377.18z"/>
	<path d="M137.444,377.18h2.353v2.063c0.479-0.704,1.155-1.226,2.028-1.562c0.871-0.336,1.884-0.504,3.035-0.504v1.896
		c-1.232,0-2.287,0.2-3.168,0.6c-0.881,0.4-1.488,1.032-1.824,1.896v7.128h-2.424V377.18L137.444,377.18z"/>
	<path d="M147.633,387.463c-1.208-1.063-1.812-2.563-1.812-4.5c0-1.888,0.539-3.384,1.619-4.487
		c1.078-1.104,2.618-1.654,4.618-1.654c1.328,0,2.456,0.252,3.386,0.756c0.928,0.504,1.629,1.2,2.101,2.088s0.708,1.9,0.708,3.036
		v1.2h-10.129c0.08,1.088,0.541,1.898,1.381,2.436s1.98,0.805,3.42,0.805c0.736,0,1.479-0.066,2.232-0.202
		c0.752-0.138,1.416-0.316,1.992-0.54v1.941c-0.516,0.208-1.188,0.38-2.029,0.519c-0.84,0.136-1.668,0.203-2.483,0.203
		C150.509,389.06,148.841,388.527,147.633,387.463z M155.973,382.195c-0.03-1.088-0.388-1.934-1.065-2.532
		c-0.683-0.602-1.646-0.899-2.895-0.899c-1.217,0-2.16,0.313-2.832,0.938s-1.021,1.456-1.057,2.496L155.973,382.195L155.973,382.195
		z"/>
	<path d="M160.736,388.375c-0.216-0.216-0.323-0.483-0.323-0.804c0-0.321,0.107-0.593,0.323-0.816
		c0.216-0.223,0.481-0.336,0.804-0.336c0.32,0,0.592,0.112,0.816,0.336c0.225,0.227,0.336,0.496,0.336,0.816
		c0,0.318-0.111,0.588-0.336,0.804c-0.227,0.216-0.496,0.324-0.816,0.324S160.952,388.591,160.736,388.375z"/>
</g>
</svg>
