<?xml version="1.0" encoding="utf-8"?>
<!-- Generator: Adobe Illustrator 16.0.0, SVG Export Plug-In . SVG Version: 6.00 Build 0)  -->
<!DOCTYPE svg PUBLIC "-//W3C//DTD SVG 1.1//EN" "http://www.w3.org/Graphics/SVG/1.1/DTD/svg11.dtd">
<svg version="1.1" id="Calque_1" xmlns="http://www.w3.org/2000/svg" xmlns:xlink="http://www.w3.org/1999/xlink" x="0px" y="0px"
	 width="184.497px" height="195.847px" viewBox="0 0 184.497 195.847" enable-background="new 0 0 184.497 195.847"
	 xml:space="preserve">
<path fill-rule="evenodd" clip-rule="evenodd" fill="#FFFFFF" d="M91.65,193.306c13.677,5.396,19.516,2.413,21.88-11.018
	c3.099-17.598,1.134-35.194-0.637-52.757c-0.258-2.556-0.437-4.259,2.162-6.225c4.913-3.716,5.527-8.496,2.064-11.294
	c-5.177-4.184-10.582-8.088-15.98-11.986c-2.722-1.966-5.542-1.68-7.383,1.175c-1.465,2.273-2.234,4.986-3.42,7.452
	c-0.577,1.2-1.145,2.693-2.167,3.326c-1.808,1.12-3.918,1.822-5.976,2.46c-20.761,6.433-42.013,6.31-63.354,4.507
	c-5.72-0.484-11.396-1.5-18.84-2.508c3.053,6.152,5.437,11.16,8.006,16.07c2.303,4.4,6.023,6.348,11.049,6.233
	c7.042-0.16,14.09-0.041,21.136-0.041c0.115,0.546,0.23,1.091,0.346,1.637c-7.175,1.979-14.351,3.956-22.807,6.288
	c8.197,7.292,15.886,14.299,23.829,21.003c1.096,0.926,3.701,0.972,5.184,0.373c7.043-2.841,13.987-5.945,20.863-9.177
	c2.402-1.129,4.507-2.893,6.748-4.366c0.389,0.466,0.777,0.932,1.166,1.397c-7.061,6.853-14.122,13.706-21.796,21.154
	c6.886,3.643,13.781,7.624,20.96,11.005c9.191,4.327,9.859,4.059,14.065-5.116c3.347-7.3,6.185-14.835,9.618-23.157
	C99.047,172.067,95.519,182.598,91.65,193.306z M120.919,102.06c6.249-9.219,12.222-18.018,18.182-26.823
	c14.457-21.36,28.945-42.698,43.332-64.104c2.978-4.431,2.678-8.19-0.536-10.104c-4.193-2.497-6.767-0.064-9.112,3.188
	c-7.979,11.072-16.04,22.084-24.047,33.136c-13.369,18.453-26.721,36.919-40.289,55.668
	C112.563,96.003,116.438,98.812,120.919,102.06z M34.743,65.077c-2.1,8.59-7.022,13.458-15.865,16.015
	c8.959,1.804,13.192,6.834,15.943,14.259c2.086-8.285,7.696-12.083,15.827-14.614C42.122,78.216,36.999,73.675,34.743,65.077z
	 M59.178,46.237c3.509-3.181,7.649-6.935,10.859-9.844c-3.492-3.355-7.504-7.211-10.757-10.337
	c-3.181,3.28-6.916,7.132-10.164,10.482C52.196,39.507,55.873,43.052,59.178,46.237z M88.371,56.838
	c-2.603,2.462-5.351,5.063-7.689,7.274c2.471,2.237,5.206,4.713,7.477,6.769c2.848-2.37,5.715-4.756,8.151-6.783
	C93.843,61.842,90.996,59.239,88.371,56.838z"/>
<path fill-rule="evenodd" clip-rule="evenodd" d="M91.65,193.306c3.869-10.708,7.397-21.239,6.715-33.563
	c-3.433,8.322-6.271,15.857-9.618,23.157c-4.207,9.175-4.874,9.443-14.065,5.116c-7.179-3.381-14.075-7.362-20.96-11.005
	c7.675-7.448,14.735-14.302,21.796-21.154c-0.389-0.466-0.777-0.932-1.166-1.397c-2.241,1.474-4.345,3.237-6.748,4.366
	c-6.875,3.231-13.819,6.336-20.863,9.177c-1.482,0.599-4.088,0.553-5.184-0.373c-7.943-6.704-15.631-13.711-23.829-21.003
	c8.456-2.332,15.631-4.31,22.807-6.288c-0.115-0.546-0.23-1.091-0.346-1.637c-7.046,0-14.094-0.119-21.136,0.041
	c-5.025,0.114-8.746-1.833-11.049-6.233c-2.569-4.91-4.953-9.918-8.006-16.07c7.443,1.008,13.12,2.023,18.84,2.508
	c21.341,1.803,42.593,1.926,63.354-4.507c2.057-0.638,4.167-1.34,5.976-2.46c1.022-0.633,1.591-2.126,2.167-3.326
	c1.186-2.466,1.955-5.179,3.42-7.452c1.841-2.854,4.661-3.141,7.383-1.175c5.398,3.898,10.804,7.803,15.98,11.986
	c3.463,2.798,2.849,7.578-2.064,11.294c-2.599,1.966-2.42,3.669-2.162,6.225c1.771,17.563,3.735,35.159,0.637,52.757
	C111.166,195.719,105.327,198.702,91.65,193.306z"/>
<path fill-rule="evenodd" clip-rule="evenodd" d="M120.919,102.06c-4.481-3.248-8.356-6.057-12.471-9.039
	c13.568-18.75,26.92-37.216,40.289-55.668c8.007-11.051,16.068-22.064,24.047-33.136c2.346-3.252,4.919-5.685,9.112-3.188
	c3.214,1.914,3.514,5.673,0.536,10.104c-14.387,21.407-28.875,42.745-43.332,64.104C133.141,84.042,127.168,92.841,120.919,102.06z"
	/>
<path fill-rule="evenodd" clip-rule="evenodd" d="M34.743,65.077c2.256,8.598,7.379,13.139,15.906,15.66
	c-8.131,2.53-13.741,6.329-15.827,14.614c-2.751-7.425-6.984-12.456-15.943-14.259C27.721,78.535,32.643,73.667,34.743,65.077z"/>
<path fill-rule="evenodd" clip-rule="evenodd" d="M59.641,25.797c1.523,5.805,4.982,8.871,10.739,10.573
	c-5.49,1.708-9.278,4.273-10.686,9.867c-1.858-5.014-4.716-8.41-10.765-9.628C54.899,34.883,58.223,31.596,59.641,25.797z"/>
<path fill-rule="evenodd" clip-rule="evenodd" d="M88.486,57.037c1.017,3.875,3.326,5.922,7.17,7.059
	c-3.666,1.14-6.193,2.853-7.135,6.587c-1.24-3.347-3.147-5.614-7.187-6.428C85.321,63.103,87.539,60.909,88.486,57.037z"/>
</svg>
