<?xml version="1.0" encoding="utf-8"?>
<!-- Generator: Adobe Illustrator 16.0.0, SVG Export Plug-In . SVG Version: 6.00 Build 0)  -->
<!DOCTYPE svg PUBLIC "-//W3C//DTD SVG 1.1//EN" "http://www.w3.org/Graphics/SVG/1.1/DTD/svg11.dtd">
<svg version="1.1" id="Calque_1" xmlns="http://www.w3.org/2000/svg" xmlns:xlink="http://www.w3.org/1999/xlink" x="0px" y="0px"
	 width="294.667px" height="404.98px" viewBox="0 0 294.667 404.98" enable-background="new 0 0 294.667 404.98"
	 xml:space="preserve">
<g>
	<g>
		<g>
			<path d="M144.357,34.623c5.592,0.917,11.615,3.615,16.152,7.082c11.727,8.959,14.822,28.249,7.879,42.358
				c-3.625,7.368-8.494,13.409-16.064,17.11c-10.945,5.35-23.176,2.792-32.632-7.073c-12.005-12.526-13.651-34.246-3.655-47.855
				c4.396-5.984,10.676-9.423,17.664-11.038c1.264-0.291,2.418-0.194,3.659-0.584C139.691,34.623,142.023,34.623,144.357,34.623z"/>
			<path d="M77.223,161.387c0.005-4.332-0.084-8.666,0.021-12.996c0.368-15.227,11.463-26.44,26.715-26.549
				c24.49-0.173,48.982-0.169,73.473-0.008c15.041,0.1,26.215,11.012,26.754,26.076c0.344,9.484,0.309,18.999-0.063,28.479
				c-0.078,2.035-1.861,4.676-3.646,5.873c-34.875,23.47-77.245,27.021-114.113,3.598c-6.906-4.387-10.642-8.772-9.21-16.988
				C77.576,166.446,77.218,163.885,77.223,161.387z"/>
			<path d="M241.902,111.159c-11.66,0.132-11.775,0.025-11.775,0.025c-0.072-5.828-0.104-20.866,0.064-26.686
				c0.104-3.593,0.094-4.54,0.094-4.54c-7.762,0.071-24.254-0.103-31.906,0.171c0,0,0.027-3.063,0.072-5.966
				c0.043-2.816-0.072-6.072-0.072-6.072c8.949,0.241,22,0.084,31.748,0.084c0-7.804,0-23.766,0-31.022
				c0,0.178-1.717,0.115,11.727,0.115c0,7.985,0,22.767,0.008,30.89c0,0,0.004,0.005,6.873,0.009
				c7.98,0.006,15.967,0.002,24.352,0.002c0,3.896,0,7.458,0,11.79c-10.178,0-20.387,0-31.18,0
				C241.902,90.79,241.902,100.878,241.902,111.159z"/>
		</g>
	</g>
</g>
<g enable-background="new    ">
	<path d="M28.943,227.921h2.473v16.776h-2.473V227.921z"/>
	<path d="M34.535,233.178h2.353v1.655c0.543-0.688,1.212-1.194,2.004-1.522s1.62-0.492,2.483-0.492c1.537,0,2.681,0.408,3.433,1.225
		s1.128,1.912,1.128,3.288v7.368h-2.424v-7.129c0-1.871-0.896-2.809-2.688-2.809c-0.769,0-1.484,0.18-2.148,0.539
		c-0.666,0.36-1.236,0.909-1.717,1.645v7.754h-2.424V233.178L34.535,233.178z"/>
	<path d="M50.638,244.757c-0.896-0.198-1.6-0.468-2.112-0.804v-2.063c0.624,0.366,1.345,0.668,2.16,0.897
		c0.815,0.231,1.608,0.351,2.376,0.351c0.863,0,1.496-0.104,1.896-0.313c0.399-0.209,0.6-0.544,0.6-1.009
		c0-0.353-0.092-0.635-0.275-0.854c-0.186-0.216-0.496-0.411-0.937-0.588c-0.44-0.176-1.101-0.384-1.979-0.624
		c-0.945-0.271-1.693-0.548-2.244-0.828c-0.553-0.278-0.969-0.636-1.248-1.065c-0.28-0.435-0.42-0.992-0.42-1.682
		c0-1.104,0.436-1.939,1.308-2.509c0.872-0.565,2.043-0.853,3.516-0.853c0.769,0,1.521,0.072,2.257,0.217
		c0.734,0.145,1.327,0.345,1.775,0.6v2.018c-0.464-0.271-1.036-0.487-1.716-0.647c-0.681-0.159-1.373-0.239-2.076-0.239
		c-0.849,0-1.496,0.104-1.944,0.313c-0.447,0.208-0.672,0.575-0.672,1.104c0,0.336,0.096,0.606,0.288,0.814s0.5,0.389,0.925,0.54
		c0.422,0.151,1.1,0.348,2.027,0.588c1.456,0.399,2.468,0.872,3.036,1.416c0.567,0.544,0.853,1.296,0.853,2.256
		c0,0.992-0.408,1.784-1.225,2.376c-0.816,0.594-2.023,0.891-3.624,0.891C52.382,245.059,51.535,244.957,50.638,244.757z"/>
	<path d="M62.734,244.337c-0.992-0.479-1.764-1.18-2.316-2.101c-0.551-0.92-0.828-2.012-0.828-3.275
		c0-1.263,0.277-2.355,0.828-3.275c0.553-0.92,1.328-1.627,2.328-2.123s2.148-0.744,3.444-0.744c1.761,0,3.168,0.345,4.224,1.031
		v1.991c-1.039-0.72-2.367-1.079-3.983-1.079c-1.312,0-2.372,0.355-3.181,1.067s-1.211,1.756-1.211,3.132
		c0,1.377,0.399,2.416,1.199,3.12c0.801,0.704,1.848,1.058,3.145,1.058c1.615,0,3.008-0.386,4.176-1.152v1.969
		c-0.561,0.384-1.196,0.664-1.908,0.84c-0.712,0.178-1.548,0.266-2.508,0.266C64.862,245.059,63.726,244.816,62.734,244.337z"/>
	<path d="M73.199,233.178h2.352v2.063c0.479-0.704,1.156-1.224,2.027-1.56c0.873-0.336,1.885-0.506,3.037-0.506v1.896
		c-1.232,0-2.289,0.199-3.169,0.6s-1.487,1.032-1.823,1.896v7.129h-2.424V233.178z"/>
	<path d="M83.182,230.514c-0.272-0.271-0.408-0.606-0.408-1.009c0-0.399,0.136-0.735,0.408-1.008
		c0.272-0.271,0.608-0.408,1.008-0.408c0.416,0,0.765,0.138,1.044,0.408c0.28,0.272,0.42,0.608,0.42,1.008s-0.14,0.736-0.42,1.009
		c-0.279,0.271-0.628,0.407-1.044,0.407C83.791,230.921,83.455,230.785,83.182,230.514z M82.966,233.178h2.472v11.521h-2.472
		V233.178z"/>
	<path d="M90.478,244.757c-0.896-0.198-1.6-0.468-2.111-0.804v-2.063c0.623,0.366,1.344,0.668,2.159,0.897
		c0.815,0.231,1.608,0.351,2.376,0.351c0.864,0,1.496-0.104,1.896-0.313s0.6-0.544,0.6-1.009c0-0.353-0.092-0.635-0.275-0.854
		c-0.186-0.216-0.496-0.411-0.937-0.588c-0.44-0.176-1.101-0.384-1.979-0.624c-0.944-0.271-1.692-0.548-2.244-0.828
		c-0.553-0.278-0.969-0.636-1.248-1.065c-0.28-0.435-0.42-0.992-0.42-1.682c0-1.104,0.436-1.939,1.308-2.509
		c0.872-0.565,2.043-0.853,3.517-0.853c0.768,0,1.52,0.072,2.256,0.217c0.734,0.145,1.328,0.345,1.775,0.6v2.018
		c-0.464-0.271-1.035-0.487-1.716-0.647c-0.681-0.159-1.373-0.239-2.076-0.239c-0.848,0-1.496,0.104-1.944,0.313
		c-0.447,0.208-0.672,0.575-0.672,1.104c0,0.336,0.096,0.606,0.289,0.814c0.191,0.208,0.5,0.389,0.924,0.54
		c0.422,0.151,1.1,0.348,2.027,0.588c1.456,0.399,2.469,0.872,3.036,1.416s0.853,1.296,0.853,2.256c0,0.992-0.408,1.784-1.225,2.376
		c-0.816,0.594-2.023,0.891-3.624,0.891C92.222,245.059,91.375,244.957,90.478,244.757z"/>
	<path d="M100.03,236.563h7.656v1.992h-7.656V236.563z"/>
	<path d="M112.065,244.049c-0.632-0.672-0.948-1.623-0.948-2.855v-6.145h-1.752v-1.871h1.752v-3.455h2.448v3.455h2.832v1.871h-2.832
		v5.977c0,0.77,0.147,1.313,0.444,1.634c0.296,0.319,0.836,0.479,1.619,0.479c0.465,0,0.929-0.104,1.393-0.313v1.92
		c-0.607,0.208-1.359,0.313-2.256,0.313C113.598,245.059,112.697,244.723,112.065,244.049z"/>
	<path d="M121.833,244.325c-0.983-0.488-1.752-1.191-2.303-2.112c-0.553-0.92-0.828-2.004-0.828-3.252
		c0-1.23,0.271-2.313,0.815-3.238c0.544-0.928,1.312-1.646,2.304-2.147c0.992-0.505,2.137-0.757,3.432-0.757
		c1.297,0,2.44,0.252,3.433,0.757c0.992,0.504,1.765,1.221,2.315,2.147c0.553,0.928,0.828,2.008,0.828,3.238
		c0,1.248-0.275,2.332-0.828,3.252c-0.551,0.921-1.323,1.624-2.315,2.112c-0.992,0.487-2.136,0.731-3.433,0.731
		C123.958,245.059,122.818,244.813,121.833,244.325z M128.23,241.984c0.736-0.77,1.104-1.775,1.104-3.023
		c0-1.296-0.367-2.318-1.104-3.07s-1.729-1.129-2.977-1.129s-2.239,0.377-2.976,1.129c-0.735,0.752-1.104,1.774-1.104,3.07
		c0,1.248,0.369,2.256,1.104,3.023c0.736,0.769,1.728,1.151,2.976,1.151S127.494,242.753,128.23,241.984z"/>
	<path d="M134.876,230.514c-0.271-0.271-0.407-0.606-0.407-1.009c0-0.399,0.136-0.735,0.407-1.008
		c0.272-0.271,0.608-0.408,1.008-0.408c0.416,0,0.765,0.138,1.045,0.408c0.279,0.272,0.42,0.608,0.42,1.008s-0.141,0.736-0.42,1.009
		c-0.28,0.271-0.629,0.407-1.045,0.407C135.485,230.921,135.149,230.785,134.876,230.514z M134.662,233.178h2.473v11.521h-2.473
		V233.178z"/>
	<path d="M158.228,233.178h2.354v1.703c1.184-1.375,2.785-2.063,4.801-2.063c1.152,0,2.188,0.256,3.107,0.768
		c0.92,0.514,1.641,1.229,2.16,2.148s0.779,1.988,0.779,3.203c0,1.201-0.26,2.265-0.779,3.19c-0.521,0.931-1.236,1.647-2.148,2.16
		c-0.912,0.512-1.951,0.771-3.119,0.771c-0.961,0-1.855-0.16-2.688-0.48c-0.832-0.319-1.514-0.792-2.041-1.416v6.792h-2.426V233.178
		L158.228,233.178z M166.955,242.621c0.631-0.344,1.127-0.836,1.488-1.477c0.357-0.641,0.539-1.375,0.539-2.207
		s-0.182-1.564-0.539-2.196c-0.361-0.632-0.857-1.12-1.488-1.464c-0.633-0.344-1.34-0.518-2.125-0.518
		c-0.977,0-1.836,0.258-2.58,0.77c-0.744,0.513-1.275,1.216-1.596,2.111v2.592c0.271,0.881,0.793,1.584,1.561,2.112
		c0.77,0.526,1.641,0.791,2.615,0.791C165.613,243.139,166.322,242.966,166.955,242.621z"/>
	<path d="M176.121,244.325c-0.984-0.488-1.752-1.191-2.303-2.112c-0.555-0.92-0.828-2.004-0.828-3.252
		c0-1.23,0.27-2.313,0.814-3.238c0.543-0.928,1.313-1.646,2.305-2.147c0.99-0.505,2.137-0.757,3.432-0.757
		c1.297,0,2.441,0.252,3.432,0.757c0.992,0.504,1.766,1.221,2.316,2.147c0.551,0.928,0.828,2.008,0.828,3.238
		c0,1.248-0.275,2.332-0.828,3.252c-0.551,0.921-1.324,1.624-2.316,2.112c-0.99,0.487-2.135,0.731-3.432,0.731
		C178.246,245.059,177.105,244.813,176.121,244.325z M182.517,241.984c0.736-0.77,1.104-1.775,1.104-3.023
		c0-1.296-0.367-2.318-1.104-3.07c-0.734-0.752-1.729-1.129-2.977-1.129s-2.24,0.377-2.975,1.129
		c-0.736,0.752-1.105,1.774-1.105,3.07c0,1.248,0.369,2.256,1.105,3.023c0.734,0.769,1.727,1.151,2.975,1.151
		S181.781,242.753,182.517,241.984z"/>
	<path d="M189.826,243.811c-0.793-0.832-1.189-1.943-1.189-3.336v-7.297h2.424v7.199c0,1.841,0.922,2.762,2.762,2.762
		c1.617,0,2.881-0.729,3.793-2.186v-7.775h2.424v11.521h-2.354v-1.633c-0.545,0.688-1.188,1.191-1.932,1.513
		c-0.746,0.321-1.549,0.479-2.412,0.479C191.789,245.059,190.617,244.643,189.826,243.811z"/>
	<path d="M203.158,233.178h2.352v2.063c0.48-0.704,1.156-1.224,2.027-1.56c0.873-0.336,1.885-0.506,3.037-0.506v1.896
		c-1.232,0-2.289,0.199-3.168,0.6c-0.881,0.4-1.488,1.032-1.824,1.896v7.129h-2.424V233.178z"/>
	<path d="M222.392,243.989c-0.84-0.712-1.26-1.677-1.26-2.892c0-1.281,0.404-2.271,1.213-2.967c0.809-0.693,1.955-1.044,3.443-1.044
		c1.584,0,2.928,0.32,4.033,0.96v-0.6c0-0.912-0.277-1.59-0.828-2.028c-0.553-0.438-1.42-0.659-2.605-0.659
		c-0.703,0-1.387,0.067-2.051,0.203c-0.664,0.139-1.26,0.324-1.789,0.563v-1.967c0.48-0.226,1.105-0.404,1.873-0.541
		c0.77-0.136,1.512-0.203,2.232-0.203c1.902,0,3.313,0.42,4.234,1.261c0.92,0.84,1.379,2.004,1.379,3.491v7.127h-2.277V243.4
		c-0.496,0.543-1.084,0.955-1.766,1.234c-0.68,0.279-1.508,0.422-2.482,0.422C224.349,245.059,223.234,244.701,222.392,243.989z
		 M228.429,242.753c0.623-0.304,1.088-0.728,1.393-1.271v-1.563c-1.041-0.672-2.199-1.008-3.48-1.008
		c-0.928,0-1.619,0.181-2.076,0.54c-0.455,0.358-0.684,0.907-0.684,1.646c0,1.407,0.92,2.11,2.76,2.11
		C227.109,243.209,227.804,243.059,228.429,242.753z"/>
	<path d="M233.708,233.178h2.568l3.383,8.279l3.385-8.279h2.568l-4.896,11.521h-2.113L233.708,233.178z"/>
	<path d="M249.345,244.325c-0.982-0.488-1.752-1.191-2.305-2.112c-0.551-0.92-0.828-2.004-0.828-3.252
		c0-1.23,0.273-2.313,0.816-3.238c0.545-0.928,1.313-1.646,2.305-2.147c0.992-0.505,2.135-0.757,3.432-0.757
		c1.295,0,2.439,0.252,3.434,0.757c0.992,0.504,1.764,1.221,2.314,2.147c0.551,0.928,0.828,2.008,0.828,3.238
		c0,1.248-0.277,2.332-0.828,3.252c-0.553,0.921-1.324,1.624-2.314,2.112c-0.992,0.487-2.139,0.731-3.434,0.731
		C251.468,245.059,250.33,244.813,249.345,244.325z M255.742,241.984c0.734-0.77,1.104-1.775,1.104-3.023
		c0-1.296-0.369-2.318-1.104-3.07c-0.736-0.752-1.73-1.129-2.979-1.129s-2.238,0.377-2.975,1.129
		c-0.738,0.752-1.105,1.774-1.105,3.07c0,1.248,0.369,2.256,1.105,3.023c0.736,0.769,1.727,1.151,2.975,1.151
		S255.005,242.753,255.742,241.984z"/>
	<path d="M262.388,230.514c-0.271-0.271-0.406-0.606-0.406-1.009c0-0.399,0.135-0.735,0.406-1.008
		c0.271-0.271,0.607-0.408,1.008-0.408c0.416,0,0.766,0.138,1.045,0.408c0.279,0.272,0.42,0.608,0.42,1.008s-0.141,0.736-0.42,1.009
		c-0.279,0.271-0.629,0.407-1.045,0.407C262.996,230.921,262.66,230.785,262.388,230.514z M262.171,233.178h2.473v11.521h-2.473
		V233.178z"/>
	<path d="M267.98,233.178h2.352v2.063c0.479-0.704,1.156-1.224,2.029-1.56c0.871-0.336,1.883-0.506,3.035-0.506v1.896
		c-1.232,0-2.287,0.199-3.17,0.6c-0.879,0.4-1.486,1.032-1.822,1.896v7.129h-2.424V233.178z"/>
</g>
<g enable-background="new    ">
	<path d="M29.723,272.79c-0.841-0.712-1.261-1.676-1.261-2.892c0-1.28,0.404-2.271,1.213-2.965c0.808-0.695,1.955-1.045,3.443-1.045
		c1.584,0,2.928,0.319,4.032,0.961v-0.602c0-0.912-0.276-1.588-0.827-2.028c-0.553-0.438-1.421-0.657-2.605-0.657
		c-0.703,0-1.387,0.065-2.051,0.203c-0.664,0.137-1.26,0.322-1.789,0.563v-1.969c0.48-0.226,1.104-0.403,1.873-0.541
		c0.768-0.135,1.512-0.202,2.231-0.202c1.904,0,3.315,0.42,4.235,1.26c0.921,0.84,1.381,2.004,1.381,3.492v7.128h-2.28V272.2
		c-0.495,0.544-1.084,0.956-1.764,1.235c-0.681,0.278-1.509,0.42-2.484,0.42C31.679,273.857,30.563,273.502,29.723,272.79z
		 M35.759,271.555c0.623-0.305,1.088-0.729,1.392-1.271v-1.562c-1.041-0.673-2.2-1.009-3.479-1.009c-0.928,0-1.621,0.181-2.076,0.54
		c-0.456,0.359-0.684,0.908-0.684,1.645c0,1.408,0.92,2.111,2.76,2.111C34.439,272.01,35.134,271.857,35.759,271.555z"/>
	<path d="M44.783,273.139c-0.992-0.479-1.764-1.181-2.316-2.101c-0.551-0.92-0.827-2.013-0.827-3.276
		c0-1.263,0.276-2.354,0.827-3.275c0.553-0.92,1.328-1.627,2.328-2.122c1-0.496,2.148-0.744,3.444-0.744
		c1.761,0,3.169,0.344,4.224,1.03v1.992c-1.039-0.721-2.367-1.08-3.983-1.08c-1.312,0-2.372,0.355-3.181,1.067
		s-1.211,1.757-1.211,3.132c0,1.377,0.399,2.416,1.199,3.12c0.801,0.704,1.848,1.058,3.145,1.058c1.615,0,3.008-0.385,4.176-1.151
		v1.968c-0.561,0.385-1.195,0.664-1.908,0.84c-0.712,0.178-1.548,0.266-2.508,0.266C46.91,273.857,45.774,273.618,44.783,273.139z"
		/>
	<path d="M57.55,273.139c-0.991-0.479-1.764-1.181-2.315-2.101s-0.827-2.013-0.827-3.276c0-1.263,0.275-2.354,0.827-3.275
		c0.552-0.92,1.328-1.627,2.328-2.122c1-0.496,2.147-0.744,3.444-0.744c1.76,0,3.168,0.344,4.224,1.03v1.992
		c-1.04-0.721-2.368-1.08-3.983-1.08c-1.313,0-2.373,0.355-3.181,1.067c-0.81,0.712-1.212,1.757-1.212,3.132
		c0,1.377,0.4,2.416,1.2,3.12s1.848,1.058,3.144,1.058c1.616,0,3.008-0.385,4.176-1.151v1.968c-0.56,0.385-1.195,0.664-1.908,0.84
		c-0.711,0.178-1.547,0.266-2.508,0.266C59.678,273.857,58.542,273.618,57.55,273.139z"/>
	<path d="M69.347,272.262c-1.208-1.063-1.813-2.563-1.813-4.5c0-1.888,0.541-3.384,1.62-4.486c1.08-1.104,2.62-1.655,4.62-1.655
		c1.328,0,2.456,0.252,3.385,0.756c0.928,0.504,1.627,1.2,2.1,2.088c0.472,0.89,0.707,1.9,0.707,3.036v1.2H69.839
		c0.08,1.088,0.539,1.899,1.379,2.437c0.841,0.535,1.98,0.805,3.421,0.805c0.735,0,1.479-0.067,2.231-0.203
		c0.752-0.137,1.416-0.316,1.992-0.541v1.943c-0.513,0.209-1.188,0.381-2.027,0.518c-0.84,0.136-1.668,0.203-2.484,0.203
		C72.223,273.857,70.555,273.326,69.347,272.262z M77.687,266.994c-0.032-1.088-0.389-1.932-1.068-2.532s-1.644-0.899-2.892-0.899
		c-1.216,0-2.16,0.313-2.832,0.938s-1.024,1.456-1.056,2.496L77.687,266.994L77.687,266.994z M70.966,256.555h2.568l1.656,4.127
		h-2.232L70.966,256.555z"/>
	<path d="M84.311,273.559c-0.896-0.199-1.601-0.469-2.112-0.805v-2.063c0.625,0.367,1.344,0.668,2.16,0.897
		c0.816,0.231,1.607,0.351,2.376,0.351c0.864,0,1.496-0.104,1.896-0.313c0.4-0.209,0.601-0.544,0.601-1.008
		c0-0.353-0.092-0.636-0.276-0.853c-0.185-0.218-0.496-0.412-0.936-0.588c-0.439-0.178-1.102-0.386-1.98-0.625
		c-0.943-0.271-1.691-0.549-2.244-0.828c-0.551-0.279-0.967-0.637-1.248-1.066c-0.279-0.434-0.42-0.992-0.42-1.68
		c0-1.104,0.437-1.94,1.309-2.511c0.872-0.565,2.043-0.852,3.516-0.852c0.769,0,1.521,0.071,2.256,0.216
		c0.735,0.146,1.328,0.346,1.776,0.602v2.017c-0.464-0.272-1.036-0.488-1.716-0.647c-0.682-0.16-1.373-0.24-2.076-0.24
		c-0.848,0-1.496,0.104-1.943,0.313c-0.449,0.208-0.672,0.576-0.672,1.104c0,0.336,0.096,0.606,0.287,0.814
		c0.192,0.208,0.5,0.391,0.924,0.54c0.424,0.152,1.101,0.349,2.028,0.588c1.456,0.4,2.468,0.872,3.036,1.416
		c0.566,0.544,0.852,1.298,0.852,2.257c0,0.991-0.408,1.783-1.224,2.377c-0.815,0.592-2.024,0.889-3.624,0.889
		C86.054,273.857,85.207,273.758,84.311,273.559z"/>
	<path d="M104.001,272.79c-0.84-0.712-1.26-1.676-1.26-2.892c0-1.28,0.404-2.271,1.213-2.965c0.808-0.695,1.955-1.045,3.443-1.045
		c1.584,0,2.928,0.319,4.032,0.961v-0.602c0-0.912-0.276-1.588-0.828-2.028c-0.552-0.438-1.42-0.657-2.604-0.657
		c-0.703,0-1.388,0.065-2.052,0.203c-0.663,0.137-1.26,0.322-1.788,0.563v-1.969c0.48-0.226,1.104-0.403,1.873-0.541
		c0.768-0.135,1.512-0.202,2.231-0.202c1.903,0,3.315,0.42,4.235,1.26s1.381,2.004,1.381,3.492v7.128h-2.28V272.2
		c-0.496,0.544-1.084,0.956-1.765,1.235c-0.68,0.278-1.508,0.42-2.483,0.42C105.958,273.857,104.841,273.502,104.001,272.79z
		 M110.039,271.555c0.623-0.305,1.088-0.729,1.392-1.271v-1.562c-1.041-0.673-2.2-1.009-3.479-1.009
		c-0.929,0-1.621,0.181-2.076,0.54c-0.457,0.359-0.685,0.908-0.685,1.645c0,1.408,0.92,2.111,2.761,2.111
		C108.718,272.01,109.414,271.857,110.039,271.555z M105.766,256.555h2.567l1.656,4.127h-2.232L105.766,256.555z"/>
	<path d="M127.498,272.85c-0.631-0.672-0.947-1.623-0.947-2.854v-6.146h-1.752v-1.871h1.752v-3.455h2.447v3.455h2.832v1.871h-2.832
		v5.979c0,0.77,0.148,1.313,0.444,1.632s0.836,0.479,1.62,0.479c0.464,0,0.928-0.104,1.393-0.313v1.92
		c-0.608,0.208-1.361,0.313-2.257,0.313C129.03,273.857,128.128,273.521,127.498,272.85z"/>
	<path d="M137.266,273.126c-0.983-0.487-1.752-1.19-2.304-2.112c-0.553-0.92-0.828-2.004-0.828-3.252
		c0-1.229,0.271-2.312,0.816-3.238c0.543-0.928,1.312-1.646,2.303-2.147c0.992-0.504,2.137-0.756,3.433-0.756
		s2.44,0.252,3.433,0.756c0.991,0.504,1.764,1.222,2.315,2.147c0.552,0.929,0.828,2.009,0.828,3.238
		c0,1.248-0.276,2.332-0.828,3.252c-0.552,0.922-1.324,1.625-2.315,2.112c-0.992,0.488-2.137,0.731-3.433,0.731
		S138.25,273.614,137.266,273.126z M143.662,270.786c0.736-0.769,1.104-1.776,1.104-3.024c0-1.296-0.368-2.318-1.104-3.07
		s-1.728-1.129-2.976-1.129s-2.24,0.377-2.976,1.129c-0.736,0.752-1.104,1.774-1.104,3.07c0,1.248,0.368,2.256,1.104,3.024
		c0.735,0.769,1.728,1.151,2.976,1.151S142.925,271.555,143.662,270.786z"/>
	<path d="M150.97,272.609c-0.793-0.832-1.188-1.943-1.188-3.336v-7.295h2.424v7.197c0,1.842,0.92,2.762,2.76,2.762
		c1.615,0,2.879-0.729,3.791-2.186v-7.773h2.424v11.52h-2.352v-1.632c-0.543,0.688-1.188,1.192-1.932,1.512
		c-0.744,0.32-1.549,0.479-2.412,0.479C152.933,273.857,151.761,273.441,150.97,272.609z"/>
	<path d="M166.005,273.559c-0.896-0.199-1.6-0.469-2.113-0.805v-2.063c0.625,0.367,1.346,0.668,2.16,0.897
		c0.816,0.231,1.609,0.351,2.377,0.351c0.863,0,1.496-0.104,1.896-0.313c0.398-0.209,0.6-0.544,0.6-1.008
		c0-0.353-0.092-0.636-0.275-0.853c-0.186-0.218-0.496-0.412-0.938-0.588c-0.438-0.178-1.1-0.386-1.979-0.625
		c-0.943-0.271-1.691-0.549-2.244-0.828c-0.551-0.279-0.967-0.637-1.248-1.066c-0.279-0.434-0.42-0.992-0.42-1.68
		c0-1.104,0.436-1.94,1.309-2.511c0.871-0.565,2.043-0.852,3.516-0.852c0.77,0,1.521,0.071,2.258,0.216
		c0.732,0.146,1.328,0.346,1.773,0.602v2.017c-0.463-0.272-1.035-0.488-1.715-0.647c-0.682-0.16-1.373-0.24-2.076-0.24
		c-0.848,0-1.496,0.104-1.943,0.313c-0.447,0.208-0.672,0.576-0.672,1.104c0,0.336,0.096,0.606,0.287,0.814s0.5,0.391,0.926,0.54
		c0.422,0.152,1.1,0.349,2.025,0.588c1.457,0.4,2.469,0.872,3.037,1.416c0.566,0.544,0.854,1.298,0.854,2.257
		c0,0.991-0.408,1.783-1.227,2.377c-0.814,0.592-2.021,0.889-3.623,0.889C167.75,273.857,166.902,273.758,166.005,273.559z"/>
	<path d="M184.917,255.762h2.424v17.736h-2.424V255.762z"/>
	<path d="M191.792,272.262c-1.207-1.063-1.811-2.563-1.811-4.5c0-1.888,0.539-3.384,1.617-4.486c1.08-1.104,2.621-1.655,4.621-1.655
		c1.328,0,2.455,0.252,3.385,0.756c0.928,0.504,1.629,1.2,2.1,2.088c0.473,0.89,0.709,1.9,0.709,3.036v1.2h-10.129
		c0.08,1.088,0.541,1.899,1.381,2.437c0.84,0.535,1.979,0.805,3.42,0.805c0.736,0,1.479-0.067,2.232-0.203
		c0.752-0.137,1.416-0.316,1.99-0.541v1.943c-0.514,0.209-1.188,0.381-2.027,0.518c-0.84,0.136-1.668,0.203-2.484,0.203
		C194.669,273.857,193.001,273.326,191.792,272.262z M200.132,266.994c-0.031-1.088-0.387-1.932-1.066-2.532
		c-0.682-0.601-1.645-0.899-2.893-0.899c-1.217,0-2.16,0.313-2.832,0.938s-1.023,1.456-1.057,2.496L200.132,266.994L200.132,266.994
		z"/>
	<path d="M206.757,273.559c-0.896-0.199-1.6-0.469-2.113-0.805v-2.063c0.625,0.367,1.346,0.668,2.16,0.897
		c0.816,0.231,1.609,0.351,2.377,0.351c0.863,0,1.496-0.104,1.896-0.313c0.398-0.209,0.6-0.544,0.6-1.008
		c0-0.353-0.092-0.636-0.275-0.853c-0.186-0.218-0.496-0.412-0.938-0.588c-0.438-0.178-1.1-0.386-1.979-0.625
		c-0.943-0.271-1.691-0.549-2.244-0.828c-0.551-0.279-0.967-0.637-1.248-1.066c-0.279-0.434-0.42-0.992-0.42-1.68
		c0-1.104,0.436-1.94,1.309-2.511c0.871-0.565,2.043-0.852,3.518-0.852c0.768,0,1.52,0.071,2.256,0.216
		c0.732,0.146,1.328,0.346,1.773,0.602v2.017c-0.463-0.272-1.035-0.488-1.715-0.647c-0.682-0.16-1.373-0.24-2.076-0.24
		c-0.848,0-1.496,0.104-1.943,0.313c-0.447,0.208-0.672,0.576-0.672,1.104c0,0.336,0.096,0.606,0.287,0.814s0.5,0.391,0.926,0.54
		c0.422,0.152,1.1,0.349,2.025,0.588c1.457,0.4,2.471,0.872,3.037,1.416s0.854,1.298,0.854,2.257c0,0.991-0.408,1.783-1.227,2.377
		c-0.814,0.592-2.021,0.889-3.623,0.889C208.5,273.857,207.652,273.758,206.757,273.559z"/>
</g>
<g enable-background="new    ">
	<path d="M30.275,301.061c-1.208-1.063-1.813-2.563-1.813-4.5c0-1.888,0.541-3.384,1.621-4.485c1.08-1.104,2.619-1.656,4.619-1.656
		c1.328,0,2.457,0.252,3.385,0.756c0.928,0.505,1.627,1.2,2.1,2.089s0.708,1.899,0.708,3.035v1.2H30.767
		c0.08,1.088,0.54,1.9,1.38,2.437c0.84,0.535,1.979,0.806,3.42,0.806c0.736,0,1.479-0.068,2.231-0.204s1.416-0.316,1.992-0.54v1.943
		c-0.513,0.208-1.188,0.38-2.027,0.517c-0.84,0.136-1.668,0.204-2.484,0.204C33.151,302.657,31.483,302.125,30.275,301.061z
		 M38.615,295.793c-0.031-1.088-0.388-1.932-1.068-2.532c-0.68-0.6-1.644-0.899-2.892-0.899c-1.216,0-2.159,0.313-2.831,0.938
		c-0.673,0.624-1.025,1.456-1.057,2.496L38.615,295.793L38.615,295.793z M35.039,285.354h2.568l-1.992,4.127h-2.207L35.039,285.354z
		"/>
	<path d="M42.095,290.777h2.568l3.383,8.277l3.385-8.277H54l-4.896,11.52h-2.111L42.095,290.777z"/>
	<path d="M57.011,301.061c-1.209-1.063-1.813-2.563-1.813-4.5c0-1.888,0.54-3.384,1.62-4.485c1.08-1.104,2.62-1.656,4.62-1.656
		c1.328,0,2.456,0.252,3.384,0.756c0.929,0.505,1.628,1.2,2.101,2.089c0.472,0.889,0.707,1.899,0.707,3.035v1.2H57.503
		c0.08,1.088,0.539,1.9,1.379,2.437c0.841,0.535,1.98,0.806,3.421,0.806c0.735,0,1.479-0.068,2.231-0.204s1.416-0.316,1.992-0.54
		v1.943c-0.513,0.208-1.188,0.38-2.027,0.517c-0.84,0.136-1.668,0.204-2.484,0.204C59.887,302.657,58.218,302.125,57.011,301.061z
		 M65.351,295.793c-0.032-1.088-0.389-1.932-1.068-2.532c-0.68-0.6-1.644-0.899-2.892-0.899c-1.216,0-2.16,0.313-2.832,0.938
		s-1.024,1.456-1.056,2.496L65.351,295.793L65.351,295.793z M61.774,285.354h2.567l-1.991,4.127h-2.208L61.774,285.354z"/>
	<path d="M70.271,290.777h2.352v1.654c0.543-0.688,1.213-1.195,2.004-1.522c0.793-0.328,1.621-0.492,2.484-0.492
		c1.536,0,2.68,0.408,3.432,1.224c0.752,0.816,1.129,1.912,1.129,3.289v7.367h-2.424v-7.128c0-1.872-0.896-2.808-2.688-2.808
		c-0.769,0-1.483,0.18-2.147,0.539c-0.666,0.358-1.236,0.908-1.717,1.645v7.752h-2.424V290.777L70.271,290.777z"/>
	<path d="M86.001,301.061c-1.207-1.063-1.812-2.563-1.812-4.5c0-1.888,0.54-3.384,1.62-4.485c1.08-1.104,2.62-1.656,4.62-1.656
		c1.327,0,2.456,0.252,3.384,0.756c0.928,0.505,1.628,1.2,2.1,2.089c0.473,0.889,0.709,1.899,0.709,3.035v1.2H86.494
		c0.08,1.088,0.541,1.9,1.381,2.437c0.84,0.535,1.979,0.806,3.42,0.806c0.736,0,1.479-0.068,2.231-0.204
		c0.752-0.136,1.416-0.316,1.992-0.54v1.943c-0.513,0.208-1.188,0.38-2.028,0.517c-0.84,0.136-1.668,0.204-2.484,0.204
		C88.878,302.657,87.21,302.125,86.001,301.061z M94.341,295.793c-0.031-1.088-0.387-1.932-1.067-2.532
		c-0.68-0.6-1.644-0.899-2.892-0.899c-1.217,0-2.16,0.313-2.832,0.938s-1.024,1.456-1.057,2.496L94.341,295.793L94.341,295.793z"/>
	<path d="M99.262,290.777h2.304v1.654c0.544-0.673,1.16-1.177,1.848-1.513c0.688-0.336,1.4-0.504,2.137-0.504
		c0.928,0,1.664,0.155,2.207,0.468s0.945,0.788,1.201,1.43c0.512-0.625,1.14-1.098,1.883-1.416c0.744-0.319,1.492-0.479,2.244-0.479
		c1.408,0,2.424,0.356,3.049,1.067c0.623,0.713,0.936,1.765,0.936,3.156v7.654h-2.352v-7.344c0-0.944-0.176-1.612-0.528-2.004
		c-0.353-0.395-0.952-0.59-1.8-0.59c-1.217,0-2.208,0.527-2.977,1.584c0.032,0.24,0.049,0.634,0.049,1.178v7.176h-2.353v-7.344
		c0-0.944-0.159-1.612-0.479-2.004c-0.32-0.395-0.896-0.59-1.729-0.59c-1.216,0-2.304,0.688-3.264,2.063v7.872h-2.377
		L99.262,290.777L99.262,290.777z"/>
	<path d="M121.402,301.061c-1.208-1.063-1.813-2.563-1.813-4.5c0-1.888,0.541-3.384,1.621-4.485c1.08-1.104,2.619-1.656,4.619-1.656
		c1.328,0,2.457,0.252,3.385,0.756c0.928,0.505,1.627,1.2,2.1,2.089s0.708,1.899,0.708,3.035v1.2h-10.128
		c0.08,1.088,0.54,1.9,1.38,2.437c0.841,0.535,1.979,0.806,3.42,0.806c0.736,0,1.479-0.068,2.231-0.204
		c0.753-0.136,1.416-0.316,1.992-0.54v1.943c-0.512,0.208-1.188,0.38-2.027,0.517c-0.84,0.136-1.668,0.204-2.484,0.204
		C124.278,302.657,122.61,302.125,121.402,301.061z M129.742,295.793c-0.031-1.088-0.388-1.932-1.068-2.532
		c-0.68-0.6-1.644-0.899-2.891-0.899c-1.217,0-2.16,0.313-2.832,0.938c-0.673,0.624-1.025,1.456-1.057,2.496L129.742,295.793
		L129.742,295.793z"/>
	<path d="M134.662,290.777h2.353v1.654c0.543-0.688,1.212-1.195,2.004-1.522c0.792-0.328,1.62-0.492,2.483-0.492
		c1.537,0,2.681,0.408,3.433,1.224c0.752,0.816,1.128,1.912,1.128,3.289v7.367h-2.424v-7.128c0-1.872-0.896-2.808-2.688-2.808
		c-0.769,0-1.484,0.18-2.148,0.539c-0.666,0.358-1.236,0.908-1.717,1.645v7.752h-2.424V290.777L134.662,290.777z"/>
	<path d="M150.8,301.648c-0.631-0.674-0.947-1.623-0.947-2.855v-6.145h-1.752v-1.871h1.752v-3.457h2.447v3.457h2.832v1.871H152.3
		v5.977c0,0.768,0.148,1.313,0.445,1.632c0.295,0.32,0.836,0.48,1.619,0.48c0.465,0,0.928-0.104,1.393-0.313v1.92
		c-0.607,0.208-1.359,0.313-2.256,0.313C152.333,302.657,151.433,302.321,150.8,301.648z"/>
	<path d="M159.261,302.356c-0.896-0.199-1.6-0.47-2.111-0.806v-2.063c0.625,0.368,1.344,0.668,2.158,0.897
		c0.816,0.232,1.609,0.351,2.377,0.351c0.863,0,1.496-0.104,1.896-0.313s0.6-0.544,0.6-1.008c0-0.352-0.092-0.636-0.275-0.853
		c-0.186-0.218-0.496-0.412-0.938-0.59c-0.438-0.176-1.1-0.384-1.979-0.623c-0.943-0.271-1.691-0.549-2.244-0.828
		c-0.551-0.278-0.967-0.637-1.248-1.066c-0.279-0.434-0.42-0.992-0.42-1.682c0-1.104,0.436-1.938,1.309-2.508
		c0.871-0.566,2.043-0.853,3.518-0.853c0.768,0,1.52,0.071,2.256,0.216c0.732,0.145,1.328,0.346,1.773,0.6v2.019
		c-0.463-0.271-1.033-0.487-1.715-0.647c-0.682-0.158-1.373-0.238-2.076-0.238c-0.848,0-1.496,0.104-1.943,0.312
		s-0.672,0.576-0.672,1.104c0,0.336,0.096,0.605,0.289,0.814c0.189,0.207,0.5,0.389,0.924,0.539c0.422,0.152,1.1,0.35,2.025,0.59
		c1.457,0.398,2.471,0.871,3.037,1.416c0.566,0.543,0.854,1.294,0.854,2.254c0,0.992-0.408,1.784-1.227,2.377
		c-0.814,0.593-2.021,0.89-3.623,0.89C161.005,302.657,160.158,302.557,159.261,302.356z"/>
	<path d="M180.632,301.9c-0.92-0.504-1.639-1.217-2.16-2.138c-0.52-0.92-0.777-1.985-0.777-3.202c0-1.199,0.26-2.266,0.777-3.191
		c0.521-0.928,1.24-1.652,2.16-2.172c0.92-0.521,1.957-0.78,3.109-0.78c2.08,0,3.656,0.632,4.727,1.896v-7.752h2.424v17.736h-2.352
		v-1.68c-0.639,0.704-1.34,1.22-2.1,1.548c-0.762,0.327-1.66,0.492-2.699,0.492C182.589,302.657,181.552,302.405,180.632,301.9z
		 M186.898,299.957c0.742-0.52,1.268-1.22,1.57-2.102v-2.592c-0.271-0.881-0.789-1.584-1.549-2.111s-1.635-0.791-2.627-0.791
		c-0.785,0-1.492,0.176-2.125,0.527c-0.631,0.353-1.127,0.848-1.488,1.486c-0.357,0.641-0.539,1.368-0.539,2.186
		c0,0.814,0.182,1.545,0.539,2.185c0.361,0.64,0.857,1.132,1.488,1.476c0.633,0.347,1.34,0.519,2.125,0.519
		C185.285,300.737,186.154,300.477,186.898,299.957z"/>
	<path d="M194.433,301.589c-0.84-0.712-1.26-1.676-1.26-2.892c0-1.28,0.404-2.271,1.211-2.965c0.811-0.695,1.957-1.045,3.445-1.045
		c1.584,0,2.928,0.319,4.031,0.961v-0.602c0-0.912-0.275-1.588-0.828-2.027c-0.551-0.438-1.42-0.658-2.604-0.658
		c-0.705,0-1.389,0.065-2.053,0.203c-0.664,0.137-1.26,0.324-1.787,0.563v-1.968c0.48-0.226,1.104-0.404,1.871-0.54
		c0.77-0.137,1.512-0.204,2.232-0.204c1.902,0,3.314,0.42,4.234,1.26c0.92,0.841,1.381,2.004,1.381,3.492v7.128h-2.279V301
		c-0.496,0.544-1.084,0.956-1.766,1.236c-0.68,0.277-1.508,0.42-2.482,0.42C196.388,302.657,195.273,302.301,194.433,301.589z
		 M200.468,300.353c0.625-0.304,1.088-0.728,1.395-1.271v-1.561c-1.041-0.672-2.201-1.008-3.48-1.008
		c-0.928,0-1.621,0.18-2.076,0.538c-0.457,0.36-0.684,0.908-0.684,1.646c0,1.408,0.92,2.109,2.76,2.109
		C199.15,300.809,199.845,300.657,200.468,300.353z"/>
	<path d="M207.308,290.777h2.354v1.654c0.543-0.688,1.213-1.195,2.004-1.522c0.793-0.328,1.621-0.492,2.484-0.492
		c1.535,0,2.68,0.408,3.432,1.224c0.752,0.816,1.129,1.912,1.129,3.289v7.367h-2.424v-7.128c0-1.872-0.896-2.808-2.689-2.808
		c-0.768,0-1.482,0.18-2.146,0.539c-0.664,0.358-1.236,0.908-1.715,1.645v7.752h-2.426v-11.52H207.308z"/>
	<path d="M223.414,302.356c-0.896-0.199-1.602-0.47-2.113-0.806v-2.063c0.625,0.368,1.344,0.668,2.16,0.897
		c0.816,0.232,1.609,0.351,2.377,0.351c0.863,0,1.496-0.104,1.896-0.313c0.398-0.209,0.6-0.544,0.6-1.008
		c0-0.352-0.092-0.636-0.277-0.853c-0.184-0.218-0.496-0.412-0.936-0.59c-0.439-0.176-1.102-0.384-1.98-0.623
		c-0.941-0.271-1.689-0.549-2.242-0.828c-0.553-0.278-0.969-0.637-1.248-1.066c-0.279-0.434-0.422-0.992-0.422-1.682
		c0-1.104,0.438-1.938,1.311-2.508c0.871-0.566,2.043-0.853,3.516-0.853c0.77,0,1.521,0.071,2.256,0.216s1.328,0.346,1.775,0.6
		v2.019c-0.463-0.271-1.035-0.487-1.715-0.647c-0.682-0.158-1.373-0.238-2.076-0.238c-0.848,0-1.496,0.104-1.945,0.312
		c-0.445,0.208-0.672,0.576-0.672,1.104c0,0.336,0.098,0.605,0.289,0.814c0.191,0.207,0.5,0.389,0.924,0.539
		c0.424,0.152,1.102,0.35,2.027,0.59c1.457,0.398,2.469,0.871,3.037,1.416c0.566,0.543,0.852,1.294,0.852,2.254
		c0,0.992-0.406,1.784-1.225,2.377c-0.816,0.593-2.023,0.89-3.623,0.89C225.156,302.657,224.308,302.557,223.414,302.356z"/>
	<path d="M244.064,301.648c-0.633-0.674-0.947-1.623-0.947-2.855v-6.145h-1.752v-1.871h1.752v-3.457h2.447v3.457h2.832v1.871h-2.832
		v5.977c0,0.768,0.146,1.313,0.443,1.632c0.295,0.32,0.836,0.48,1.619,0.48c0.465,0,0.928-0.104,1.393-0.313v1.92
		c-0.607,0.208-1.359,0.313-2.256,0.313C245.595,302.657,244.697,302.321,244.064,301.648z"/>
	<path d="M251.72,301.589c-0.84-0.712-1.26-1.676-1.26-2.892c0-1.28,0.404-2.271,1.211-2.965c0.809-0.695,1.957-1.045,3.445-1.045
		c1.584,0,2.928,0.319,4.029,0.961v-0.602c0-0.912-0.273-1.588-0.826-2.027c-0.553-0.438-1.42-0.658-2.604-0.658
		c-0.705,0-1.389,0.065-2.053,0.203c-0.664,0.137-1.26,0.324-1.787,0.563v-1.968c0.479-0.226,1.104-0.404,1.871-0.54
		c0.768-0.137,1.512-0.204,2.23-0.204c1.904,0,3.316,0.42,4.236,1.26c0.92,0.841,1.381,2.004,1.381,3.492v7.128h-2.281V301
		c-0.494,0.544-1.084,0.956-1.764,1.236c-0.68,0.277-1.508,0.42-2.482,0.42C253.675,302.657,252.56,302.301,251.72,301.589z
		 M257.755,300.353c0.625-0.304,1.088-0.728,1.395-1.271v-1.561c-1.041-0.672-2.201-1.008-3.48-1.008
		c-0.928,0-1.621,0.18-2.076,0.538c-0.457,0.36-0.684,0.908-0.684,1.646c0,1.408,0.92,2.109,2.76,2.109
		C256.435,300.809,257.132,300.657,257.755,300.353z"/>
</g>
<g enable-background="new    ">
	<path d="M28.943,319.578h2.352v2.063c0.48-0.704,1.156-1.224,2.029-1.56c0.871-0.336,1.883-0.504,3.035-0.504v1.896
		c-1.232,0-2.288,0.2-3.168,0.602c-0.88,0.398-1.488,1.032-1.824,1.896v7.128h-2.424V319.578z"/>
	<path d="M39.13,329.861c-1.209-1.063-1.813-2.563-1.813-4.5c0-1.89,0.54-3.386,1.62-4.487c1.08-1.104,2.62-1.656,4.62-1.656
		c1.328,0,2.456,0.252,3.384,0.756c0.929,0.504,1.628,1.2,2.101,2.089c0.472,0.889,0.707,1.899,0.707,3.035v1.2H39.623
		c0.08,1.088,0.539,1.9,1.379,2.438s1.98,0.805,3.42,0.805c0.736,0,1.479-0.068,2.232-0.204c0.752-0.136,1.416-0.316,1.992-0.54
		v1.943c-0.514,0.208-1.188,0.38-2.027,0.517c-0.841,0.136-1.668,0.204-2.484,0.204C42.005,331.458,40.337,330.926,39.13,329.861z
		 M47.47,324.594c-0.032-1.088-0.389-1.932-1.068-2.532c-0.68-0.6-1.645-0.897-2.893-0.897c-1.215,0-2.159,0.312-2.831,0.936
		c-0.673,0.624-1.024,1.456-1.056,2.496L47.47,324.594L47.47,324.594z M43.894,314.153h2.568l-1.992,4.128h-2.208L43.894,314.153z"
		/>
	<path d="M56.123,336.426c-0.744-0.128-1.373-0.313-1.885-0.552v-1.992c1.2,0.544,2.592,0.815,4.176,0.815
		c1.488,0,2.572-0.323,3.252-0.974c0.681-0.646,1.021-1.628,1.021-2.938v-1.227c-1.056,1.267-2.608,1.896-4.656,1.896
		c-1.168,0-2.216-0.257-3.144-0.771c-0.928-0.512-1.656-1.229-2.184-2.158c-0.529-0.93-0.793-1.991-0.793-3.191
		c0-1.216,0.26-2.284,0.78-3.204s1.24-1.636,2.16-2.146c0.92-0.514,1.956-0.77,3.108-0.77c1.071,0,1.979,0.156,2.724,0.468
		c0.743,0.313,1.437,0.828,2.075,1.55v-1.655h2.353v10.941c0,1.97-0.548,3.478-1.644,4.524c-1.096,1.048-2.78,1.571-5.053,1.571
		C57.63,336.617,56.867,336.554,56.123,336.426z M61.138,328.746c0.76-0.528,1.275-1.232,1.548-2.112v-2.592
		c-0.304-0.896-0.828-1.6-1.571-2.112c-0.744-0.512-1.613-0.768-2.605-0.768c-0.783,0-1.491,0.172-2.123,0.516
		c-0.633,0.344-1.129,0.836-1.488,1.478c-0.359,0.641-0.54,1.368-0.54,2.185c0,0.832,0.181,1.563,0.54,2.195
		c0.359,0.633,0.855,1.125,1.488,1.477c0.632,0.354,1.34,0.528,2.123,0.528C59.501,329.538,60.378,329.273,61.138,328.746z"/>
	<path d="M68.638,316.914c-0.271-0.272-0.408-0.608-0.408-1.009c0-0.399,0.137-0.735,0.408-1.008
		c0.271-0.271,0.607-0.408,1.008-0.408c0.416,0,0.764,0.137,1.044,0.408c0.28,0.271,0.42,0.606,0.42,1.008
		c0,0.398-0.14,0.734-0.42,1.009c-0.28,0.271-0.628,0.407-1.044,0.407C69.246,317.321,68.91,317.186,68.638,316.914z
		 M68.421,319.578h2.473v11.52h-2.473V319.578z"/>
	<path d="M76.882,330.726c-0.984-0.486-1.752-1.189-2.305-2.11c-0.552-0.92-0.828-2.004-0.828-3.252
		c0-1.231,0.272-2.313,0.816-3.239s1.313-1.646,2.305-2.148c0.991-0.504,2.135-0.756,3.432-0.756c1.296,0,2.439,0.252,3.432,0.756
		c0.992,0.505,1.764,1.223,2.316,2.148c0.552,0.928,0.828,2.008,0.828,3.239c0,1.248-0.276,2.332-0.828,3.252
		c-0.553,0.921-1.324,1.624-2.316,2.11c-0.992,0.488-2.136,0.732-3.432,0.732C79.005,331.458,77.867,331.214,76.882,330.726z
		 M83.278,328.386c0.736-0.769,1.104-1.774,1.104-3.022c0-1.296-0.368-2.319-1.104-3.071c-0.735-0.752-1.728-1.128-2.976-1.128
		s-2.24,0.376-2.977,1.128s-1.104,1.775-1.104,3.071c0,1.248,0.367,2.256,1.104,3.022c0.736,0.77,1.729,1.152,2.977,1.152
		S82.542,329.153,83.278,328.386z"/>
	<path d="M89.518,319.578h2.353v1.655c0.543-0.688,1.211-1.195,2.004-1.523c0.791-0.328,1.619-0.492,2.483-0.492
		c1.536,0,2.681,0.408,3.433,1.226c0.752,0.814,1.127,1.91,1.127,3.288v7.366h-2.424v-7.128c0-1.872-0.896-2.808-2.688-2.808
		c-0.768,0-1.484,0.18-2.148,0.539c-0.664,0.358-1.236,0.909-1.716,1.645v7.752h-2.424V319.578L89.518,319.578z"/>
	<path d="M105.623,331.157c-0.896-0.199-1.601-0.468-2.113-0.804v-2.063c0.625,0.368,1.345,0.668,2.16,0.899
		c0.816,0.23,1.608,0.349,2.377,0.349c0.863,0,1.496-0.104,1.896-0.313s0.601-0.544,0.601-1.008c0-0.352-0.092-0.636-0.276-0.853
		c-0.185-0.216-0.496-0.411-0.937-0.588c-0.439-0.178-1.101-0.386-1.979-0.624c-0.944-0.271-1.692-0.548-2.244-0.828
		c-0.552-0.279-0.968-0.636-1.248-1.067c-0.28-0.433-0.42-0.992-0.42-1.68c0-1.104,0.437-1.94,1.308-2.509
		c0.873-0.567,2.043-0.854,3.517-0.854c0.769,0,1.521,0.072,2.256,0.216c0.735,0.146,1.328,0.347,1.776,0.602v2.017
		c-0.465-0.271-1.037-0.486-1.717-0.646c-0.681-0.159-1.373-0.239-2.076-0.239c-0.848,0-1.496,0.104-1.943,0.312
		c-0.448,0.208-0.672,0.576-0.672,1.104c0,0.336,0.096,0.607,0.287,0.813c0.193,0.21,0.5,0.391,0.925,0.54
		c0.423,0.152,1.101,0.35,2.028,0.59c1.455,0.398,2.468,0.872,3.035,1.416s0.853,1.296,0.853,2.256c0,0.992-0.408,1.784-1.224,2.376
		c-0.816,0.592-2.024,0.889-3.625,0.889C107.365,331.458,106.517,331.357,105.623,331.157z"/>
	<path d="M115.498,330.773c-0.215-0.218-0.324-0.483-0.324-0.806c0-0.319,0.109-0.592,0.324-0.814
		c0.217-0.226,0.484-0.336,0.805-0.336s0.592,0.11,0.816,0.336c0.223,0.225,0.336,0.496,0.336,0.814c0,0.32-0.113,0.588-0.336,0.806
		c-0.225,0.216-0.496,0.322-0.816,0.322C115.981,331.098,115.714,330.989,115.498,330.773z"/>
</g>
</svg>
