<?xml version="1.0" encoding="utf-8"?>
<!-- Generator: Adobe Illustrator 16.0.0, SVG Export Plug-In . SVG Version: 6.00 Build 0)  -->
<!DOCTYPE svg PUBLIC "-//W3C//DTD SVG 1.1//EN" "http://www.w3.org/Graphics/SVG/1.1/DTD/svg11.dtd">
<svg version="1.1" id="Calque_1" xmlns="http://www.w3.org/2000/svg" xmlns:xlink="http://www.w3.org/1999/xlink" x="0px" y="0px"
	 width="196.23px" height="167.125px" viewBox="0 0 196.23 167.125" enable-background="new 0 0 196.23 167.125"
	 xml:space="preserve">
<g>
	<g>
		<path fill-rule="evenodd" clip-rule="evenodd" d="M67.507,0c5.592,0.917,11.615,3.615,16.153,7.082
			c11.723,8.959,14.821,28.249,7.878,42.358c-3.625,7.368-8.494,13.409-16.066,17.11c-10.945,5.35-23.176,2.792-32.632-7.073
			c-12.005-12.526-13.652-34.246-3.655-47.855c4.396-5.984,10.676-9.423,17.664-11.038C58.112,0.293,59.267,0.39,60.508,0
			C62.841,0,65.173,0,67.507,0z"/>
		<path fill-rule="evenodd" clip-rule="evenodd" d="M0.373,126.763c0.005-4.332-0.084-8.666,0.021-12.995
			c0.368-15.227,11.462-26.441,26.715-26.549c24.49-0.173,48.982-0.169,73.472-0.008c15.041,0.1,26.216,11.012,26.755,26.076
			c0.34,9.484,0.304,18.999-0.066,28.479c-0.079,2.035-1.862,4.675-3.643,5.873C88.751,171.11,46.381,174.66,9.513,151.237
			c-6.907-4.388-10.642-8.773-9.21-16.989C0.726,131.823,0.368,129.262,0.373,126.763z"/>
		<path fill-rule="evenodd" clip-rule="evenodd" d="M165.051,76.535c-11.66,0.132-11.775,0.026-11.775,0.026
			c-0.072-5.828-0.103-20.866,0.065-26.686c0.104-3.593,0.092-4.54,0.092-4.54c-7.761,0.071-24.254-0.103-31.905,0.171
			c0,0,0.027-3.062,0.072-5.966c0.042-2.816-0.072-6.072-0.072-6.072c8.949,0.241,22,0.084,31.748,0.084c0-7.804,0-23.766,0-31.022
			c0,0.178-1.718,0.115,11.727,0.115c0,7.985,0,22.767,0.005,30.89c0,0,0.004,0.005,6.873,0.009
			c7.982,0.006,15.966,0.002,24.351,0.002c0,3.897,0,7.458,0,11.79c-10.177,0-20.386,0-31.18,0
			C165.051,56.167,165.051,66.255,165.051,76.535z"/>
	</g>
</g>
</svg>
