<?xml version="1.0" encoding="utf-8"?>
<!-- Generator: Adobe Illustrator 16.0.0, SVG Export Plug-In . SVG Version: 6.00 Build 0)  -->
<!DOCTYPE svg PUBLIC "-//W3C//DTD SVG 1.1//EN" "http://www.w3.org/Graphics/SVG/1.1/DTD/svg11.dtd">
<svg version="1.1" id="Calque_1" xmlns="http://www.w3.org/2000/svg" xmlns:xlink="http://www.w3.org/1999/xlink" x="0px" y="0px"
	 width="238.667px" height="404.98px" viewBox="0 0 238.667 404.98" enable-background="new 0 0 238.667 404.98"
	 xml:space="preserve">
<g>
	<path d="M160.765,125.02c-0.001-9.238-0.028-18.48,0.011-27.718c0.028-7.656,2.477-10.268,9.914-10.319
		c12.051-0.082,24.105-0.117,36.154,0.017c8.268,0.092,10.396,2.285,10.42,10.388c0.051,18.68,0.052,37.361-0.002,56.039
		c-0.023,7.926-2.227,10.152-9.877,10.176c-12.452,0.039-24.907,0.057-37.357-0.006c-6.527-0.033-9.158-2.57-9.229-9.049
		C160.681,144.705,160.765,134.864,160.765,125.02z M166.519,93.179c0,20.216,0,40.093,0,59.884c15.335,0,30.076,0,44.929,0
		c0-20.148,0-39.891,0-59.884C196.249,93.179,181.499,93.179,166.519,93.179z"/>
	<path d="M158.077,126.549c0,4.479,0,8.473,0,12.914c-32.771,0-65.387,0-98.397,0c0-4.248,0-8.371,0-12.914
		C92.431,126.549,125.188,126.549,158.077,126.549z"/>
	<path d="M164.301,83.288c0-6.433-0.096-12.633,0.027-18.828c0.111-5.496-2.133-7.961-7.9-7.936
		c-32.135,0.148-64.272,0.141-96.409,0.007c-5.67-0.024-7.986,2.187-7.919,7.851c0.171,14.441,0.057,28.886,0.057,43.668
		c-5.254-0.079-5.581-0.054-5.581-0.054c0.066-13.658-0.164-30.645,0.107-44.298c0.166-8.322,4.66-12.412,12.974-12.426
		c32.538-0.049,65.076-0.048,97.614-0.003c8.151,0.012,12.61,4.298,12.974,12.525c0.23,5.212-0.119,14.234,0.108,19.447
		C170.356,83.245,168.829,83.386,164.301,83.288z"/>
	<path d="M23.194,137.182c0-5.213-0.025-10.428,0.006-15.643c0.043-7.531,2.613-10.197,9.928-10.305
		c4.811-0.072,9.628-0.014,14.437-0.141c5.702-0.152,8.949,2.957,9.108,8.207c0.365,12.021,0.336,24.066-0.011,36.092
		c-0.145,5.037-3.491,8.012-8.691,8.162c-5.208,0.154-10.433,0.211-15.636-0.004c-6.142-0.254-9.025-3.361-9.124-9.521
		C23.125,148.418,23.194,142.801,23.194,137.182z M52.829,155.905c0-12.787,0-24.887,0-37.127c-8.789,0-17.095,0-25.691,0
		c0,12.523,0,24.643,0,37.127C35.767,155.905,44.079,155.905,52.829,155.905z"/>
	<path d="M89.67,163.223L89.67,163.223l-0.149-5.982l6.396-0.123c1.652-5.195,3.482-12.537,3.482-12.537l17.727-0.1
		c0,0,1.941,6.688,4.308,12.637l5.569,0.119l-0.012,5.98l0,0"/>
	<path fill="#FFFFFF" d="M166.519,93.179c14.979,0,29.729,0,44.929,0c0,19.994,0,39.736,0,59.884c-14.853,0-29.594,0-44.929,0
		C166.519,133.272,166.519,113.395,166.519,93.179z"/>
	<path fill="#FFFFFF" d="M52.829,155.905c-8.75,0-17.062,0-25.691,0c0-12.484,0-24.604,0-37.127c8.597,0,16.902,0,25.691,0
		C52.829,131.018,52.829,143.118,52.829,155.905z"/>
	<circle fill="#FEFEFE" cx="188.985" cy="158.26" r="2.918"/>
	<circle fill="#FEFEFE" cx="197.741" cy="158.26" r="2.918"/>
	<circle fill="#FEFEFE" cx="179.336" cy="158.26" r="2.918"/>
	<circle fill="#FEFEFE" cx="40.05" cy="159.62" r="2.351"/>
	<path fill="#FCFCFC" d="M46.174,114.436c0-0.432-0.349-0.781-0.779-0.781H34.834c-0.429,0-0.78,0.35-0.78,0.781l0,0
		c0,0.428,0.349,0.777,0.78,0.777h10.561C45.826,115.213,46.174,114.866,46.174,114.436L46.174,114.436z"/>
	<circle fill="#FEFEFE" cx="108.452" cy="132.714" r="2.917"/>
	<path fill="#FFFDFD" d="M52.241,111.959c2.808,1.227,4.368,3.82,4.477,7.418c0.073,2.414,0.129,4.832,0.173,7.248
		c32.755,0,71.029,0,103.918,0c0-9.238-0.025-20.009,0.012-29.247c0.02-4.784,0.982-7.599,3.518-9.051l0.012-0.024
		c0-6.433-0.098-17.573,0.025-23.766c0.113-5.496-2.131-7.961-7.898-7.935c-32.137,0.146-64.277,0.14-96.413,0.006
		c-5.669-0.024-7.985,2.188-7.918,7.851c0.171,14.441,0.057,32.813,0.057,47.596L52.241,111.959z"/>
</g>
<g enable-background="new    ">
	<path d="M31.7,244.979c-1.344-0.722-2.392-1.739-3.144-3.062c-0.752-1.319-1.128-2.853-1.128-4.597
		c0-1.743,0.375-3.278,1.128-4.607c0.752-1.326,1.8-2.352,3.144-3.07c1.344-0.722,2.88-1.08,4.608-1.08
		c2.304,0,4.232,0.584,5.784,1.752v2.353c-1.392-1.229-3.249-1.849-5.568-1.849c-1.296,0-2.444,0.265-3.444,0.791
		c-1,0.529-1.78,1.285-2.34,2.27c-0.561,0.982-0.84,2.133-0.84,3.444c0,1.313,0.284,2.464,0.852,3.454
		c0.568,0.992,1.352,1.752,2.352,2.281c1,0.526,2.14,0.791,3.42,0.791c1.184,0,2.244-0.156,3.18-0.469s1.804-0.813,2.604-1.5v2.376
		c-1.44,1.2-3.44,1.802-6,1.802C34.579,246.059,33.043,245.697,31.7,244.979z"/>
	<path d="M46.999,245.325c-0.984-0.488-1.752-1.191-2.304-2.112c-0.552-0.92-0.828-2.004-0.828-3.252
		c0-1.23,0.272-2.313,0.816-3.238c0.544-0.928,1.312-1.646,2.304-2.147c0.992-0.505,2.136-0.757,3.432-0.757
		c1.296,0,2.44,0.252,3.432,0.757c0.992,0.504,1.764,1.221,2.316,2.147c0.552,0.928,0.828,2.008,0.828,3.238
		c0,1.248-0.276,2.332-0.828,3.252c-0.552,0.921-1.324,1.624-2.316,2.112c-0.992,0.487-2.136,0.731-3.432,0.731
		C49.123,246.059,47.983,245.813,46.999,245.325z M53.395,242.984c0.736-0.77,1.104-1.775,1.104-3.023
		c0-1.296-0.368-2.318-1.104-3.07c-0.736-0.752-1.728-1.129-2.976-1.129c-1.248,0-2.24,0.377-2.976,1.129
		c-0.736,0.752-1.104,1.774-1.104,3.07c0,1.248,0.368,2.256,1.104,3.023c0.736,0.769,1.728,1.151,2.976,1.151
		C51.667,244.137,52.66,243.753,53.395,242.984z"/>
	<path d="M59.635,234.178h2.352v1.655c0.543-0.688,1.212-1.194,2.004-1.522s1.62-0.492,2.484-0.492c1.536,0,2.68,0.408,3.432,1.225
		s1.128,1.912,1.128,3.288v7.368h-2.424v-7.129c0-1.871-0.896-2.809-2.688-2.809c-0.768,0-1.484,0.18-2.148,0.539
		c-0.665,0.36-1.236,0.909-1.716,1.645v7.754h-2.424V234.178L59.635,234.178z"/>
	<path d="M75.739,245.757c-0.896-0.198-1.6-0.468-2.112-0.804v-2.063c0.624,0.366,1.344,0.668,2.16,0.897
		c0.816,0.231,1.608,0.351,2.376,0.351c0.864,0,1.496-0.104,1.896-0.313s0.6-0.544,0.6-1.009c0-0.353-0.092-0.635-0.276-0.854
		c-0.185-0.216-0.496-0.411-0.936-0.588c-0.44-0.176-1.101-0.384-1.98-0.624c-0.944-0.271-1.692-0.548-2.244-0.828
		c-0.552-0.278-0.968-0.636-1.248-1.065c-0.28-0.435-0.42-0.992-0.42-1.682c0-1.104,0.436-1.939,1.308-2.509
		c0.872-0.565,2.043-0.853,3.516-0.853c0.768,0,1.52,0.072,2.256,0.217c0.735,0.145,1.328,0.345,1.776,0.6v2.018
		c-0.464-0.271-1.036-0.487-1.716-0.647c-0.681-0.159-1.373-0.239-2.076-0.239c-0.848,0-1.496,0.104-1.944,0.313
		c-0.448,0.208-0.672,0.575-0.672,1.104c0,0.336,0.096,0.606,0.288,0.814c0.192,0.208,0.5,0.389,0.924,0.54
		c0.423,0.151,1.1,0.348,2.028,0.588c1.456,0.399,2.468,0.872,3.036,1.416c0.567,0.544,0.852,1.296,0.852,2.256
		c0,0.992-0.408,1.784-1.224,2.376c-0.816,0.594-2.024,0.891-3.624,0.891C77.483,246.059,76.635,245.957,75.739,245.757z"/>
	<path d="M86.839,244.811c-0.792-0.832-1.188-1.943-1.188-3.336v-7.297h2.424v7.199c0,1.841,0.92,2.762,2.76,2.762
		c1.616,0,2.88-0.729,3.792-2.186v-7.775h2.424v11.521H94.7v-1.633c-0.545,0.688-1.188,1.191-1.933,1.513s-1.548,0.479-2.412,0.479
		C88.803,246.059,87.631,245.643,86.839,244.811z"/>
	<path d="M100.171,227.961h2.424v17.736h-2.424V227.961z"/>
	<path d="M107.454,245.049c-0.631-0.672-0.947-1.623-0.947-2.855v-6.145h-1.752v-1.871h1.752v-3.455h2.447v3.455h2.832v1.871h-2.832
		v5.977c0,0.77,0.148,1.313,0.444,1.634c0.296,0.319,0.837,0.479,1.62,0.479c0.464,0,0.928-0.104,1.393-0.313v1.92
		c-0.608,0.208-1.36,0.313-2.256,0.313C108.987,246.059,108.086,245.723,107.454,245.049z"/>
	<path d="M116.022,244.461c-1.208-1.063-1.813-2.563-1.813-4.5c0-1.888,0.541-3.384,1.621-4.486c1.08-1.104,2.619-1.656,4.619-1.656
		c1.328,0,2.457,0.252,3.385,0.757c0.928,0.504,1.627,1.198,2.1,2.088c0.473,0.888,0.708,1.899,0.708,3.036v1.199h-10.128
		c0.08,1.088,0.54,1.899,1.38,2.437c0.841,0.536,1.979,0.806,3.42,0.806c0.736,0,1.479-0.068,2.231-0.203
		c0.753-0.138,1.416-0.316,1.992-0.541v1.942c-0.512,0.208-1.188,0.38-2.027,0.519c-0.84,0.136-1.668,0.203-2.484,0.203
		C118.898,246.059,117.23,245.525,116.022,244.461z M124.362,239.193c-0.031-1.088-0.388-1.934-1.068-2.532
		c-0.68-0.601-1.643-0.899-2.891-0.899c-1.217,0-2.16,0.313-2.832,0.938c-0.673,0.624-1.024,1.455-1.057,2.494H124.362
		L124.362,239.193z"/>
	<path d="M138.163,227.961h2.424v17.736h-2.424V227.961z"/>
	<path d="M145.038,244.461c-1.209-1.063-1.813-2.563-1.813-4.5c0-1.888,0.54-3.384,1.62-4.486c1.08-1.104,2.62-1.656,4.62-1.656
		c1.328,0,2.455,0.252,3.384,0.757c0.929,0.504,1.628,1.198,2.101,2.088c0.472,0.888,0.707,1.899,0.707,3.036v1.199H145.53
		c0.08,1.088,0.539,1.899,1.379,2.437s1.98,0.806,3.42,0.806c0.736,0,1.479-0.068,2.232-0.203c0.752-0.138,1.416-0.316,1.992-0.541
		v1.942c-0.514,0.208-1.188,0.38-2.027,0.519c-0.841,0.136-1.669,0.203-2.484,0.203
		C147.913,246.059,146.245,245.525,145.038,244.461z M153.377,239.193c-0.032-1.088-0.389-1.934-1.068-2.532
		c-0.68-0.601-1.645-0.899-2.893-0.899c-1.215,0-2.159,0.313-2.832,0.938c-0.672,0.624-1.023,1.455-1.055,2.494H153.377
		L153.377,239.193z"/>
	<path d="M160,245.757c-0.896-0.198-1.6-0.468-2.111-0.804v-2.063c0.624,0.366,1.344,0.668,2.16,0.897
		c0.816,0.231,1.607,0.351,2.376,0.351c0.864,0,1.496-0.104,1.896-0.313c0.4-0.209,0.601-0.544,0.601-1.009
		c0-0.353-0.093-0.635-0.276-0.854c-0.186-0.216-0.496-0.411-0.936-0.588c-0.44-0.176-1.102-0.384-1.98-0.624
		c-0.943-0.271-1.691-0.548-2.244-0.828c-0.552-0.278-0.968-0.636-1.248-1.065c-0.279-0.435-0.42-0.992-0.42-1.682
		c0-1.104,0.436-1.939,1.309-2.509c0.871-0.565,2.043-0.853,3.516-0.853c0.768,0,1.52,0.072,2.256,0.217
		c0.735,0.145,1.328,0.345,1.776,0.6v2.018c-0.464-0.271-1.036-0.487-1.716-0.647c-0.682-0.159-1.373-0.239-2.076-0.239
		c-0.848,0-1.496,0.104-1.944,0.313c-0.448,0.208-0.672,0.575-0.672,1.104c0,0.336,0.097,0.606,0.288,0.814s0.5,0.389,0.924,0.54
		s1.1,0.348,2.028,0.588c1.456,0.399,2.468,0.872,3.036,1.416c0.566,0.544,0.852,1.296,0.852,2.256c0,0.992-0.408,1.784-1.225,2.376
		c-0.815,0.594-2.023,0.891-3.623,0.891C161.745,246.059,160.897,245.957,160,245.757z"/>
</g>
<g enable-background="new    ">
	<path d="M29.24,273.262c-1.208-1.063-1.812-2.563-1.812-4.5c0-1.888,0.54-3.384,1.62-4.486c1.08-1.104,2.62-1.655,4.62-1.655
		c1.328,0,2.456,0.252,3.384,0.756c0.928,0.504,1.628,1.2,2.1,2.088c0.472,0.89,0.708,1.9,0.708,3.036v1.2H29.731
		c0.08,1.088,0.54,1.899,1.38,2.437c0.84,0.535,1.98,0.805,3.42,0.805c0.736,0,1.479-0.067,2.232-0.203
		c0.752-0.137,1.416-0.316,1.992-0.541v1.943c-0.513,0.209-1.188,0.381-2.028,0.518c-0.84,0.136-1.668,0.203-2.484,0.203
		C32.116,274.857,30.448,274.326,29.24,273.262z M37.579,267.994c-0.032-1.088-0.388-1.932-1.068-2.532
		c-0.68-0.601-1.644-0.899-2.892-0.899c-1.216,0-2.16,0.313-2.832,0.938s-1.024,1.456-1.056,2.496L37.579,267.994L37.579,267.994z
		 M34.003,257.555h2.568l-1.992,4.127h-2.208L34.003,257.555z"/>
	<path d="M41.059,262.979h2.568l3.384,8.279l3.384-8.279h2.568L48.067,274.5h-2.112L41.059,262.979z"/>
	<path d="M55.975,273.262c-1.208-1.063-1.812-2.563-1.812-4.5c0-1.888,0.54-3.384,1.62-4.486c1.08-1.104,2.62-1.655,4.62-1.655
		c1.328,0,2.456,0.252,3.384,0.756c0.928,0.504,1.628,1.2,2.1,2.088c0.472,0.89,0.708,1.9,0.708,3.036v1.2H56.467
		c0.08,1.088,0.54,1.899,1.38,2.437c0.84,0.535,1.98,0.805,3.42,0.805c0.736,0,1.479-0.067,2.232-0.203
		c0.752-0.137,1.416-0.316,1.992-0.541v1.943c-0.513,0.209-1.188,0.381-2.028,0.518c-0.84,0.136-1.668,0.203-2.484,0.203
		C58.851,274.857,57.183,274.326,55.975,273.262z M64.315,267.994c-0.032-1.088-0.388-1.932-1.068-2.532
		c-0.68-0.601-1.644-0.899-2.892-0.899c-1.216,0-2.16,0.313-2.832,0.938c-0.672,0.624-1.024,1.456-1.056,2.496L64.315,267.994
		L64.315,267.994z M60.739,257.555h2.568l-1.992,4.127h-2.208L60.739,257.555z"/>
	<path d="M69.235,262.979h2.352v1.655c0.543-0.688,1.212-1.194,2.004-1.522c0.792-0.327,1.62-0.491,2.484-0.491
		c1.536,0,2.68,0.407,3.432,1.224s1.128,1.912,1.128,3.288v7.368h-2.424v-7.128c0-1.872-0.896-2.81-2.688-2.81
		c-0.768,0-1.484,0.182-2.148,0.539c-0.665,0.36-1.236,0.91-1.716,1.646v7.752h-2.424V262.979L69.235,262.979z"/>
	<path d="M84.967,273.262c-1.208-1.063-1.812-2.563-1.812-4.5c0-1.888,0.54-3.384,1.62-4.486c1.08-1.104,2.62-1.655,4.62-1.655
		c1.328,0,2.456,0.252,3.384,0.756s1.627,1.2,2.1,2.088c0.472,0.89,0.707,1.9,0.707,3.036v1.2H85.459
		c0.08,1.088,0.54,1.899,1.38,2.437c0.84,0.535,1.98,0.805,3.42,0.805c0.736,0,1.479-0.067,2.232-0.203
		c0.751-0.137,1.416-0.316,1.992-0.541v1.943c-0.513,0.209-1.188,0.381-2.028,0.518c-0.84,0.136-1.668,0.203-2.484,0.203
		C87.843,274.857,86.175,274.326,84.967,273.262z M93.307,267.994c-0.031-1.088-0.389-1.932-1.068-2.532
		c-0.68-0.601-1.644-0.899-2.892-0.899c-1.216,0-2.16,0.313-2.832,0.938s-1.024,1.456-1.056,2.496L93.307,267.994L93.307,267.994z"
		/>
	<path d="M98.227,262.979h2.305v1.655c0.543-0.672,1.159-1.176,1.848-1.512c0.688-0.336,1.4-0.504,2.136-0.504
		c0.929,0,1.664,0.155,2.208,0.468c0.543,0.313,0.943,0.788,1.2,1.428c0.512-0.623,1.14-1.096,1.884-1.416
		c0.744-0.317,1.492-0.479,2.244-0.479c1.408,0,2.424,0.355,3.048,1.068c0.624,0.711,0.937,1.764,0.937,3.153v7.656h-2.353v-7.345
		c0-0.943-0.176-1.611-0.528-2.004c-0.352-0.394-0.951-0.588-1.8-0.588c-1.216,0-2.208,0.526-2.976,1.584
		c0.031,0.238,0.048,0.631,0.048,1.176v7.177h-2.353v-7.345c0-0.943-0.16-1.611-0.479-2.004c-0.319-0.394-0.896-0.588-1.728-0.588
		c-1.217,0-2.305,0.688-3.265,2.063v7.872h-2.376V262.979z"/>
	<path d="M120.368,273.262c-1.209-1.063-1.813-2.563-1.813-4.5c0-1.888,0.54-3.384,1.62-4.486c1.08-1.104,2.62-1.655,4.62-1.655
		c1.328,0,2.455,0.252,3.384,0.756c0.928,0.504,1.628,1.2,2.101,2.088c0.471,0.89,0.707,1.9,0.707,3.036v1.2H120.86
		c0.079,1.088,0.539,1.899,1.379,2.437c0.84,0.535,1.98,0.805,3.42,0.805c0.736,0,1.479-0.067,2.232-0.203
		c0.752-0.137,1.416-0.316,1.992-0.541v1.943c-0.514,0.209-1.188,0.381-2.028,0.518c-0.84,0.136-1.668,0.203-2.483,0.203
		C123.243,274.857,121.575,274.326,120.368,273.262z M128.706,267.994c-0.031-1.088-0.387-1.932-1.067-2.532
		s-1.644-0.899-2.892-0.899c-1.217,0-2.16,0.313-2.832,0.938s-1.024,1.456-1.057,2.496L128.706,267.994L128.706,267.994z"/>
	<path d="M133.625,262.979h2.353v1.655c0.543-0.688,1.212-1.194,2.004-1.522c0.792-0.327,1.62-0.491,2.484-0.491
		c1.536,0,2.68,0.407,3.432,1.224c0.753,0.816,1.128,1.912,1.128,3.288v7.368h-2.424v-7.128c0-1.872-0.896-2.81-2.688-2.81
		c-0.769,0-1.484,0.182-2.148,0.539c-0.665,0.36-1.236,0.91-1.716,1.646v7.752h-2.425V262.979L133.625,262.979z"/>
	<path d="M149.765,273.85c-0.632-0.672-0.948-1.623-0.948-2.854v-6.146h-1.752v-1.871h1.752v-3.455h2.448v3.455h2.832v1.871h-2.832
		v5.979c0,0.77,0.147,1.313,0.444,1.632c0.296,0.319,0.836,0.479,1.619,0.479c0.465,0,0.929-0.104,1.393-0.313v1.92
		c-0.607,0.208-1.359,0.313-2.256,0.313C151.298,274.857,150.397,274.521,149.765,273.85z"/>
	<path d="M158.226,274.559c-0.896-0.199-1.601-0.469-2.112-0.805v-2.063c0.625,0.367,1.344,0.668,2.16,0.897
		c0.816,0.231,1.608,0.351,2.377,0.351c0.863,0,1.495-0.104,1.896-0.313c0.399-0.209,0.6-0.544,0.6-1.008
		c0-0.353-0.092-0.636-0.276-0.853c-0.185-0.218-0.496-0.412-0.936-0.588c-0.439-0.178-1.102-0.386-1.98-0.625
		c-0.943-0.271-1.691-0.549-2.244-0.828c-0.551-0.279-0.967-0.637-1.248-1.066c-0.279-0.434-0.42-0.992-0.42-1.68
		c0-1.104,0.437-1.94,1.309-2.511c0.872-0.565,2.043-0.852,3.516-0.852c0.769,0,1.521,0.071,2.256,0.216
		c0.735,0.146,1.328,0.346,1.776,0.602v2.017c-0.464-0.272-1.036-0.488-1.716-0.647c-0.682-0.16-1.373-0.24-2.076-0.24
		c-0.848,0-1.496,0.104-1.943,0.313c-0.448,0.208-0.672,0.576-0.672,1.104c0,0.336,0.096,0.606,0.287,0.814
		c0.192,0.208,0.5,0.391,0.924,0.54c0.424,0.152,1.101,0.349,2.028,0.588c1.456,0.4,2.468,0.872,3.036,1.416
		c0.566,0.544,0.852,1.298,0.852,2.257c0,0.991-0.408,1.783-1.224,2.377c-0.815,0.592-2.024,0.889-3.624,0.889
		C159.97,274.857,159.122,274.758,158.226,274.559z"/>
	<path d="M178.47,273.262c-1.208-1.063-1.812-2.563-1.812-4.5c0-1.888,0.539-3.384,1.619-4.486c1.08-1.104,2.62-1.655,4.62-1.655
		c1.328,0,2.456,0.252,3.384,0.756s1.629,1.2,2.101,2.088c0.472,0.89,0.708,1.9,0.708,3.036v1.2h-10.129
		c0.08,1.088,0.541,1.899,1.381,2.437c0.84,0.535,1.98,0.805,3.42,0.805c0.736,0,1.479-0.067,2.232-0.203
		c0.752-0.137,1.416-0.316,1.992-0.541v1.943c-0.514,0.209-1.188,0.381-2.029,0.518c-0.84,0.136-1.668,0.203-2.483,0.203
		C181.346,274.857,179.678,274.326,178.47,273.262z M186.81,267.994c-0.032-1.088-0.388-1.932-1.067-2.532
		c-0.681-0.601-1.645-0.899-2.893-0.899c-1.216,0-2.16,0.313-2.832,0.938s-1.023,1.456-1.057,2.496L186.81,267.994L186.81,267.994z"
		/>
	<path d="M193.469,273.85c-0.633-0.672-0.948-1.623-0.948-2.854v-6.146h-1.752v-1.871h1.752v-3.455h2.448v3.455h2.832v1.871h-2.832
		v5.979c0,0.77,0.148,1.313,0.443,1.632c0.297,0.319,0.836,0.479,1.621,0.479c0.463,0,0.928-0.104,1.392-0.313v1.92
		c-0.608,0.208-1.36,0.313-2.257,0.313C195,274.857,194.101,274.521,193.469,273.85z"/>
</g>
<g enable-background="new    ">
	<path d="M28.687,302.589c-0.84-0.712-1.26-1.676-1.26-2.892c0-1.28,0.404-2.271,1.212-2.965c0.808-0.695,1.956-1.045,3.444-1.045
		c1.584,0,2.928,0.319,4.032,0.961v-0.602c0-0.912-0.276-1.588-0.828-2.027c-0.552-0.438-1.42-0.658-2.604-0.658
		c-0.704,0-1.388,0.065-2.052,0.203c-0.664,0.137-1.26,0.324-1.788,0.563v-1.968c0.48-0.226,1.104-0.404,1.872-0.54
		c0.768-0.137,1.512-0.204,2.232-0.204c1.904,0,3.315,0.42,4.236,1.26c0.92,0.841,1.38,2.004,1.38,3.492v7.128h-2.28V302
		c-0.496,0.544-1.084,0.956-1.764,1.236c-0.68,0.277-1.508,0.42-2.484,0.42C30.643,303.657,29.528,303.301,28.687,302.589z
		 M34.723,301.353c0.624-0.304,1.088-0.728,1.392-1.271v-1.561c-1.041-0.672-2.2-1.008-3.48-1.008c-0.928,0-1.62,0.18-2.076,0.538
		c-0.456,0.36-0.684,0.908-0.684,1.646c0,1.408,0.92,2.109,2.76,2.109C33.404,301.809,34.099,301.657,34.723,301.353z"/>
	<path d="M43.747,302.938c-0.992-0.479-1.764-1.181-2.316-2.101c-0.552-0.92-0.828-2.012-0.828-3.276
		c0-1.264,0.276-2.354,0.828-3.273c0.552-0.92,1.328-1.628,2.328-2.124s2.148-0.744,3.444-0.744c1.76,0,3.168,0.345,4.224,1.032
		v1.99c-1.04-0.721-2.368-1.08-3.984-1.08c-1.312,0-2.372,0.355-3.18,1.068c-0.809,0.711-1.212,1.756-1.212,3.131
		c0,1.379,0.4,2.416,1.2,3.12c0.8,0.704,1.848,1.059,3.144,1.059c1.616,0,3.008-0.386,4.176-1.152v1.968
		c-0.56,0.385-1.196,0.664-1.908,0.84c-0.712,0.178-1.548,0.267-2.508,0.267C45.875,303.657,44.739,303.417,43.747,302.938z"/>
	<path d="M55.951,302.648c-0.632-0.674-0.948-1.623-0.948-2.855v-6.145h-1.752v-1.871h1.752v-3.457h2.448v3.457h2.832v1.871h-2.832
		v5.977c0,0.768,0.148,1.313,0.444,1.632c0.296,0.32,0.836,0.48,1.62,0.48c0.464,0,0.928-0.104,1.392-0.313v1.92
		c-0.608,0.208-1.36,0.313-2.256,0.313C57.483,303.657,56.583,303.321,55.951,302.648z"/>
	<path d="M64.136,302.409c-0.792-0.832-1.188-1.944-1.188-3.336v-7.296h2.424v7.197c0,1.843,0.92,2.763,2.76,2.763
		c1.616,0,2.88-0.729,3.792-2.187v-7.773h2.424v11.52h-2.352v-1.632c-0.544,0.688-1.188,1.192-1.932,1.512
		c-0.744,0.32-1.548,0.48-2.412,0.48C66.099,303.657,64.928,303.241,64.136,302.409z"/>
	<path d="M77.887,302.589c-0.84-0.712-1.26-1.676-1.26-2.892c0-1.28,0.404-2.271,1.212-2.965c0.808-0.695,1.956-1.045,3.444-1.045
		c1.584,0,2.928,0.319,4.032,0.961v-0.602c0-0.912-0.276-1.588-0.828-2.027c-0.552-0.438-1.42-0.658-2.604-0.658
		c-0.704,0-1.388,0.065-2.052,0.203c-0.664,0.137-1.26,0.324-1.788,0.563v-1.968c0.48-0.226,1.104-0.404,1.872-0.54
		c0.768-0.137,1.512-0.204,2.232-0.204c1.904,0,3.315,0.42,4.236,1.26c0.92,0.841,1.38,2.004,1.38,3.492v7.128h-2.28V302
		c-0.496,0.544-1.084,0.956-1.764,1.236c-0.68,0.277-1.508,0.42-2.484,0.42C79.843,303.657,78.727,303.301,77.887,302.589z
		 M83.923,301.353c0.624-0.304,1.088-0.728,1.392-1.271v-1.561c-1.041-0.672-2.2-1.008-3.48-1.008c-0.928,0-1.62,0.18-2.076,0.538
		c-0.456,0.36-0.684,0.908-0.684,1.646c0,1.408,0.92,2.109,2.76,2.109C82.603,301.809,83.299,301.657,83.923,301.353z"/>
	<path d="M90.763,285.561h2.424v17.736h-2.424V285.561z"/>
	<path d="M96.714,289.113c-0.272-0.272-0.408-0.608-0.408-1.01c0-0.398,0.136-0.734,0.408-1.008
		c0.272-0.271,0.608-0.408,1.008-0.408c0.416,0,0.765,0.138,1.044,0.408c0.28,0.271,0.42,0.607,0.42,1.008
		c0,0.399-0.14,0.735-0.42,1.01c-0.279,0.271-0.628,0.406-1.044,0.406C97.323,289.521,96.987,289.385,96.714,289.113z
		 M96.499,291.777h2.472v11.52h-2.472V291.777z"/>
	<path d="M104.045,302.648c-0.631-0.674-0.947-1.623-0.947-2.855v-6.145h-1.752v-1.871h1.752v-3.457h2.447v3.457h2.832v1.871h-2.832
		v5.977c0,0.768,0.148,1.313,0.445,1.632c0.295,0.32,0.836,0.48,1.619,0.48c0.465,0,0.928-0.104,1.393-0.313v1.92
		c-0.608,0.208-1.36,0.313-2.256,0.313C105.579,303.657,104.678,303.321,104.045,302.648z"/>
	<path d="M112.616,302.061c-1.209-1.063-1.813-2.563-1.813-4.5c0-1.888,0.54-3.384,1.62-4.485c1.079-1.104,2.62-1.656,4.62-1.656
		c1.328,0,2.455,0.252,3.384,0.756c0.928,0.505,1.628,1.2,2.101,2.089c0.471,0.889,0.707,1.899,0.707,3.035v1.2h-10.128
		c0.08,1.088,0.54,1.9,1.38,2.437c0.84,0.535,1.98,0.806,3.42,0.806c0.736,0,1.479-0.068,2.232-0.204
		c0.752-0.136,1.416-0.316,1.992-0.54v1.943c-0.514,0.208-1.188,0.38-2.028,0.517c-0.84,0.136-1.668,0.204-2.483,0.204
		C115.491,303.657,113.823,303.125,112.616,302.061z M120.954,296.793c-0.031-1.088-0.388-1.932-1.067-2.532
		c-0.681-0.6-1.644-0.899-2.892-0.899c-1.217,0-2.16,0.313-2.832,0.938s-1.024,1.456-1.057,2.496L120.954,296.793L120.954,296.793z
		 M117.377,286.354h2.568l-1.992,4.127h-2.207L117.377,286.354z"/>
	<path d="M127.579,303.356c-0.896-0.199-1.601-0.47-2.112-0.806v-2.063c0.624,0.368,1.344,0.668,2.159,0.897
		c0.816,0.232,1.609,0.351,2.377,0.351c0.863,0,1.496-0.104,1.896-0.313c0.4-0.209,0.601-0.544,0.601-1.008
		c0-0.352-0.092-0.636-0.276-0.853c-0.185-0.218-0.496-0.411-0.937-0.59c-0.439-0.176-1.101-0.384-1.979-0.624
		c-0.944-0.271-1.692-0.548-2.244-0.827c-0.552-0.278-0.968-0.637-1.248-1.066c-0.28-0.434-0.42-0.992-0.42-1.682
		c0-1.104,0.437-1.938,1.308-2.508c0.873-0.566,2.043-0.853,3.517-0.853c0.769,0,1.521,0.071,2.256,0.216s1.328,0.346,1.776,0.6
		v2.019c-0.465-0.271-1.036-0.487-1.717-0.647c-0.681-0.158-1.373-0.238-2.076-0.238c-0.848,0-1.496,0.104-1.943,0.312
		s-0.672,0.576-0.672,1.104c0,0.336,0.096,0.605,0.288,0.814c0.192,0.207,0.5,0.389,0.924,0.539c0.423,0.152,1.101,0.35,2.028,0.59
		c1.455,0.398,2.468,0.871,3.035,1.416c0.567,0.542,0.853,1.294,0.853,2.254c0,0.992-0.408,1.784-1.224,2.377
		c-0.816,0.593-2.024,0.89-3.625,0.89C129.323,303.657,128.474,303.557,127.579,303.356z"/>
	<path d="M148.194,303.356c-0.896-0.199-1.6-0.47-2.111-0.806v-2.063c0.623,0.368,1.344,0.668,2.16,0.897
		c0.815,0.232,1.607,0.351,2.375,0.351c0.864,0,1.496-0.104,1.896-0.313s0.6-0.544,0.6-1.008c0-0.352-0.092-0.636-0.275-0.853
		c-0.186-0.218-0.496-0.411-0.936-0.59c-0.441-0.176-1.102-0.384-1.98-0.624c-0.944-0.271-1.692-0.548-2.244-0.827
		c-0.553-0.278-0.969-0.637-1.248-1.066c-0.279-0.434-0.42-0.992-0.42-1.682c0-1.104,0.436-1.938,1.309-2.508
		c0.871-0.566,2.043-0.853,3.516-0.853c0.768,0,1.52,0.071,2.256,0.216c0.734,0.145,1.328,0.346,1.775,0.6v2.019
		c-0.463-0.271-1.035-0.487-1.715-0.647c-0.682-0.158-1.373-0.238-2.076-0.238c-0.849,0-1.496,0.104-1.944,0.312
		s-0.673,0.576-0.673,1.104c0,0.336,0.097,0.605,0.289,0.814c0.191,0.207,0.5,0.389,0.924,0.539c0.423,0.152,1.1,0.35,2.027,0.59
		c1.457,0.398,2.469,0.871,3.037,1.416c0.566,0.542,0.852,1.294,0.852,2.254c0,0.992-0.408,1.784-1.225,2.377
		c-0.815,0.593-2.023,0.89-3.623,0.89C149.938,303.657,149.09,303.557,148.194,303.356z"/>
	<path d="M158.226,285.561h2.425v17.736h-2.425V285.561z M160.674,297.465l5.304-5.688h2.952l-5.328,5.688l5.88,5.832h-2.952
		L160.674,297.465z"/>
	<path d="M172.973,302.925c-0.984-0.488-1.752-1.189-2.305-2.112c-0.551-0.92-0.827-2.004-0.827-3.252
		c0-1.229,0.272-2.312,0.815-3.238c0.545-0.928,1.313-1.646,2.305-2.147c0.992-0.504,2.136-0.756,3.432-0.756
		s2.439,0.252,3.432,0.756s1.765,1.222,2.316,2.147c0.553,0.929,0.828,2.009,0.828,3.238c0,1.248-0.275,2.332-0.828,3.252
		c-0.552,0.923-1.324,1.624-2.316,2.112s-2.136,0.732-3.432,0.732C175.098,303.657,173.958,303.413,172.973,302.925z
		 M179.37,300.585c0.735-0.769,1.104-1.776,1.104-3.024c0-1.295-0.368-2.317-1.104-3.069c-0.736-0.753-1.729-1.13-2.977-1.13
		s-2.24,0.378-2.977,1.13c-0.735,0.752-1.104,1.774-1.104,3.069c0,1.248,0.368,2.258,1.104,3.024
		c0.736,0.768,1.729,1.152,2.977,1.152S178.634,301.353,179.37,300.585z"/>
	<path d="M187.663,302.925c-0.984-0.488-1.752-1.189-2.305-2.112c-0.552-0.92-0.828-2.004-0.828-3.252
		c0-1.229,0.272-2.312,0.816-3.238c0.544-0.928,1.313-1.646,2.305-2.147c0.991-0.504,2.135-0.756,3.432-0.756
		c1.295,0,2.439,0.252,3.432,0.756s1.764,1.222,2.316,2.147c0.552,0.929,0.828,2.009,0.828,3.238c0,1.248-0.276,2.332-0.828,3.252
		c-0.553,0.923-1.324,1.624-2.316,2.112s-2.137,0.732-3.432,0.732C189.786,303.657,188.646,303.413,187.663,302.925z
		 M194.058,300.585c0.735-0.769,1.104-1.776,1.104-3.024c0-1.295-0.369-2.317-1.104-3.069c-0.735-0.753-1.728-1.13-2.976-1.13
		s-2.24,0.378-2.977,1.13s-1.104,1.774-1.104,3.069c0,1.248,0.367,2.258,1.104,3.024c0.736,0.768,1.729,1.152,2.977,1.152
		S193.323,301.353,194.058,300.585z"/>
	<path d="M200.298,291.777h2.353v1.654c0.543-0.688,1.211-1.195,2.004-1.522c0.791-0.328,1.619-0.492,2.483-0.492
		c1.536,0,2.681,0.408,3.433,1.224c0.752,0.816,1.127,1.912,1.127,3.289v7.367h-2.424v-7.128c0-1.872-0.896-2.808-2.688-2.808
		c-0.768,0-1.484,0.18-2.148,0.539c-0.665,0.358-1.236,0.908-1.716,1.645v7.752h-2.424V291.777L200.298,291.777z"/>
	<path d="M214.542,302.973c-0.217-0.216-0.324-0.481-0.324-0.804s0.107-0.592,0.324-0.816c0.216-0.224,0.484-0.336,0.804-0.336
		s0.592,0.112,0.815,0.336c0.225,0.227,0.336,0.496,0.336,0.816s-0.111,0.588-0.336,0.804c-0.224,0.218-0.496,0.324-0.815,0.324
		S214.758,303.188,214.542,302.973z"/>
</g>
</svg>
