<?xml version="1.0" encoding="utf-8"?>
<!-- Generator: Adobe Illustrator 16.0.0, SVG Export Plug-In . SVG Version: 6.00 Build 0)  -->
<!DOCTYPE svg PUBLIC "-//W3C//DTD SVG 1.1//EN" "http://www.w3.org/Graphics/SVG/1.1/DTD/svg11.dtd">
<svg version="1.1" id="Calque_1" xmlns="http://www.w3.org/2000/svg" xmlns:xlink="http://www.w3.org/1999/xlink" x="0px" y="0px"
	 width="162.148px" height="182.18px" viewBox="0 0 162.148 182.18" enable-background="new 0 0 162.148 182.18"
	 xml:space="preserve">
<path fill="#FFFFFF" d="M13.789,149.916c-0.276,4.472,1.337,5.649,5.672,5.619c25.14-0.181,50.281-0.176,75.42-0.003
	c4.319,0.029,5.783-1.172,5.736-5.632c-0.212-20.145,0.058-40.293-0.26-60.435c-0.047-2.938-1.838-6.205-3.685-8.676
	c-2.966-3.97-7.072-7.102-9.933-11.13c-4.283-6.034-2.067-12.587,4.714-14.814c2.597-0.854,5.479-0.836,8.953-1.315
	c0-9.471,0.087-19.058-0.166-28.635c-0.021-0.751-2.408-2.061-3.699-2.066c-26.306-0.122-52.612-0.067-78.918-0.125
	c-2.781-0.006-3.813,1.021-3.783,3.815c0.107,9.655-0.041,19.313,0.137,28.968c0.024,1.332,0.998,3.2,2.105,3.87
	c8.942,5.408,9.838,9.687,3.412,17.731c5.521,7.427,5.537,8.896,0.179,16.662c3.546,5.69,5.354,11.366-0.297,16.777
	c6.522,8.043,5.582,12.483-3.146,17.585c-1.212,0.708-2.178,2.823-2.245,4.331"/>
<path d="M9.916,133.139c-0.032-1.648-0.933-4.043-2.196-4.784c-9.069-5.31-10.046-9.737-3.462-17.663
	c-5.588-8.07-5.606-9.659-0.192-16.519c-5.376-9.389-5.361-10.117,0.333-16.905c-6.709-8.154-5.777-12.568,3.363-17.992
	c1.252-0.742,2.13-3.129,2.155-4.77c0.18-11.994,0.079-23.991,0.103-35.988c0.024-11.85,6.332-18.396,18.028-18.45
	C47.375-0.019,66.704-0.03,86.03,0.071c11.748,0.063,18.119,6.609,18.175,18.421c0.051,11.164-0.126,22.33,0.147,33.486
	c0.047,1.88,1.467,4.168,2.946,5.495c7.643,6.85,15.511,13.446,23.479,20.286c9.367-5.111,18.432,0.012,27.406,3.299
	c3.632,1.331,4.563,5.611,3.621,9.535c-3.266,13.598-6.537,27.196-10.028,40.737c-1.536,5.961-4.717,8.142-10.665,7.219
	c-5.406-0.841-10.901-1.863-15.979-3.799c-2.95-1.124-5.154-4.205-8.188-6.835c-2.7,0.679-6.495,1.297-9.984,2.684
	c-1.286,0.512-2.584,2.819-2.623,4.34c-0.24,9.325-0.105,18.659-0.124,27.988c-0.026,13.055-6.216,19.224-19.324,19.235
	c-18.827,0.018-37.655,0.027-56.483-0.005c-12.07-0.021-18.354-6.375-18.386-18.53 M13.721,149.979
	c-0.276,4.472,1.337,5.649,5.672,5.619c25.14-0.181,50.281-0.176,75.42-0.003c4.319,0.029,5.783-1.172,5.736-5.632
	c-0.212-20.145,0.058-40.293-0.26-60.435c-0.047-2.938-1.838-6.205-3.685-8.676c-2.966-3.97-7.072-7.102-9.933-11.13
	c-4.283-6.034-2.067-12.587,4.714-14.814c2.597-0.854,5.479-0.836,8.953-1.315c0-9.471,0.087-19.058-0.166-28.635
	c-0.021-0.751-2.408-2.061-3.699-2.066c-26.306-0.122-52.612-0.067-78.918-0.125c-2.781-0.006-3.813,1.021-3.783,3.815
	c0.107,9.655-0.041,19.313,0.137,28.968c0.024,1.332,0.998,3.2,2.105,3.87c8.942,5.408,9.838,9.687,3.412,17.731
	c5.521,7.427,5.537,8.896,0.179,16.662c3.546,5.69,5.354,11.366-0.297,16.777c6.522,8.043,5.582,12.483-3.146,17.585
	c-1.212,0.708-2.178,2.823-2.245,4.331 M57.338,159.162c-12.981,0-25.963-0.081-38.941,0.109c-1.518,0.022-4.07,1.296-4.352,2.433
	c-2.268,9.199,3.76,16.66,13.306,16.69c19.804,0.065,39.608,0.056,59.413,0.002c8.25-0.021,13.239-5.095,13.738-13.248
	c0.267-4.362-0.845-6.232-5.723-6.103C82.307,159.382,69.82,159.158,57.338,159.162z M104.208,126.033
	c9.356,0.988,14.591-2.399,16.635-10.396c2.387-9.334,4.859-18.657,6.786-28.089c0.481-2.358-0.163-5.854-1.699-7.552
	c-5.441-6.012-11.145-11.902-17.45-16.964c-3.431-2.758-6.494-5.564-12.538-5.254c-2.109,0.108-5.66,1.731-6.842,3.731
	c-0.926,1.568,0.126,5.19,1.48,7.031c2.729,3.713,6.678,6.544,9.334,10.298c2.059,2.91,3.864,6.6,4.118,10.064
	c0.591,8.103,0.18,16.277,0.176,24.424C104.207,117.595,104.208,121.863,104.208,126.033z M143.773,135.688
	c1.304-1.619,3.72-3.354,4.321-5.578c3.512-12.979,6.574-26.075,9.842-39.12c1.105-4.418-0.613-7.146-4.855-8.264
	c-4.494-1.183-9.035-2.193-13.576-3.188c-3.479-0.761-5.947,0.557-6.817,4.064c-3.395,13.704-6.852,27.397-9.854,41.188
	c-0.396,1.808,1.223,5.456,2.743,6.025C130.977,132.841,136.738,133.903,143.773,135.688z M57.153,19.071
	c12.822,0,25.646,0.027,38.468-0.015c4.787-0.016,5.53-1.104,4.222-5.741c-1.567-5.547-5.402-9.01-11.114-9.049
	C67.582,4.12,46.433,4.121,25.287,4.255c-5.485,0.034-9.724,3.867-11.077,9.138c-1.142,4.44-0.234,5.653,4.477,5.666
	C31.509,19.094,44.331,19.071,57.153,19.071z M11.776,62.685c-4.271,0.015-7.818,2.794-7.803,6.119
	c0.016,3.331,3.565,6.235,7.721,6.316c4.105,0.08,8.329-3.264,8.18-6.474C19.728,65.531,15.846,62.673,11.776,62.685z
	 M11.661,91.551c4.509,0.061,8.322-2.807,8.222-6.181c-0.092-3.062-3.995-5.962-8.058-5.992c-4.259-0.03-7.835,2.738-7.837,6.064
	C3.988,89.021,7.087,91.49,11.661,91.551z M11.931,124.967c4.03-0.034,7.935-2.982,7.971-6.021c0.039-3.154-4.233-6.331-8.346-6.205
	c-4.201,0.129-7.694,3.045-7.576,6.324C4.098,122.357,7.661,125.002,11.931,124.967z M11.596,108.212
	c4.487,0.101,8.688-2.832,8.223-6.126c-0.58-4.102-3.574-5.649-7.476-5.778c-5.046-0.167-8.283,2.038-8.379,5.748
	C3.877,105.454,7.171,108.11,11.596,108.212z"/>
<path d="M63.246,168.282c0-1.691-1.371-3.063-3.063-3.063h-6.125c-1.69,0-3.063,1.371-3.063,3.063l0,0
	c0,1.69,1.371,3.063,3.063,3.063h6.125C61.875,171.345,63.246,169.974,63.246,168.282L63.246,168.282z"/>
<path d="M69.871,10.97c0-0.689-0.561-1.25-1.25-1.25h-23c-0.69,0-1.25,0.561-1.25,1.25l0,0c0,0.69,0.56,1.25,1.25,1.25h23
	C69.312,12.22,69.871,11.66,69.871,10.97L69.871,10.97z"/>
<path fill="#FFFFFF" stroke="#000000" stroke-width="2" stroke-linecap="round" stroke-linejoin="round" stroke-miterlimit="10" d="
	M60.156,96.174l-1.396-3.071v0.001c-7.887,2.189-16.412-1.621-19.906-9.307c-3.866-8.505-0.104-18.534,8.4-22.4
	c8.505-3.865,18.534-0.104,22.399,8.4c3.494,7.686,0.76,16.616-6.075,21.119v-0.001l1.396,3.069l1.31-0.595l10.762,23.7l-7.435,3.38
	l-10.763-23.7C58.848,96.77,60.157,96.174,60.156,96.174z"/>
</svg>
