<?xml version="1.0" encoding="utf-8"?>
<!-- Generator: Adobe Illustrator 16.0.0, SVG Export Plug-In . SVG Version: 6.00 Build 0)  -->
<!DOCTYPE svg PUBLIC "-//W3C//DTD SVG 1.1//EN" "http://www.w3.org/Graphics/SVG/1.1/DTD/svg11.dtd">
<svg version="1.1" id="Calque_1" xmlns="http://www.w3.org/2000/svg" xmlns:xlink="http://www.w3.org/1999/xlink" x="0px" y="0px"
	 width="277px" height="404.98px" viewBox="0 0 277 404.98" enable-background="new 0 0 277 404.98" xml:space="preserve">
<g>
	<path fill="#020202" d="M143.926,32.72h-9.834v13.334c0,4.925-3.992,8.917-8.916,8.917l0,0c-4.93,0-8.918-3.992-8.918-8.917V32.72
		h-10.333v13.334c0,4.925-3.992,8.917-8.916,8.917l0,0c-4.929,0-8.918-3.992-8.918-8.917V32.72H77.925v13.334
		c0,4.925-3.992,8.917-8.916,8.917l0,0c-4.929,0-8.918-3.992-8.918-8.917V33.1l-0.001-0.381c-5.178,1.333-8.999,6.031-8.999,11.621
		v147.313c0,6.627,5.373,12,12,12h150.979c6.627,0,12-5.373,12-12h0.002V44.341c0-5.385-3.431-9.521-8.313-11.041v12.754
		c0,4.925-3.992,8.917-8.916,8.917l0,0c-4.924,0-8.916-3.992-8.916-8.917V32.72h-10v13.334c0,4.925-3.992,8.917-8.916,8.917l0,0
		c-4.929,0-8.918-3.992-8.918-8.917V32.72h-10.334v13.334c0,4.925-3.992,8.917-8.916,8.917l0,0c-4.927,0-8.916-3.992-8.916-8.917
		L143.926,32.72"/>
	<path fill="#FFFFFF" d="M59.452,76.902c53.026,0,105.317,0,158.209,0c0.104,1.929,0.283,3.673,0.285,5.416
		c0.024,34.994,0.033,69.988,0.037,104.978c0,7.311-1.771,9.07-9.177,9.074c-46.657,0.023-93.313,0.037-139.974,0.043
		c-7.854,0-9.646-1.869-9.646-9.766c0.003-34.826-0.019-69.652-0.013-104.479C59.179,80.542,59.343,78.913,59.452,76.902z
		 M138.604,182.786c26.274,0.117,47.432-20.389,47.756-46.281c0.322-25.929-20.871-47.039-47.354-47.172
		c-26.521-0.133-47.66,20.58-47.74,46.772C91.187,161.783,112.366,182.673,138.604,182.786z"/>
	<path d="M138.604,182.786c-26.238-0.113-47.422-21.004-47.344-46.686c0.08-26.188,21.225-46.901,47.74-46.771
		c26.483,0.133,47.682,21.245,47.354,47.173C186.034,162.398,164.879,182.904,138.604,182.786z M138.86,174.833
		c21.662,0.035,39.611-17.49,39.521-38.59c-0.1-21.631-17.904-39.215-39.619-39.12c-21.785,0.097-39.617,17.745-39.623,39.223
		C99.128,157.4,117.081,174.794,138.86,174.833z"/>
	<path fill="#FFFFFF" d="M138.86,174.833c-21.779-0.037-39.729-17.434-39.728-38.486c0.008-21.479,17.84-39.125,39.625-39.223
		c21.715-0.096,39.521,17.489,39.62,39.12C178.473,157.341,160.521,174.868,138.86,174.833z M132.239,145.732
		c-3.937-4-7.697-7.742-11.356-11.582c-2.125-2.227-4.57-3.264-6.931-0.957c-2.308,2.256-1.504,4.779,0.666,6.984
		c4.554,4.623,8.985,9.354,13.56,13.955c3.375,3.395,5.34,3.23,8.668-0.525c3.417-3.859,6.809-7.746,10.188-11.639
		c5.229-6.021,10.436-12.07,15.673-18.086c2.116-2.432,3.938-5.219,0.786-7.711c-2.995-2.373-5.563-0.424-7.545,2.246
		c-0.597,0.799-1.313,1.502-1.972,2.256C146.805,128.937,139.639,137.199,132.239,145.732z"/>
	<path d="M132.239,145.732c7.398-8.533,14.564-16.797,21.732-25.059c0.654-0.754,1.375-1.457,1.969-2.256
		c1.979-2.672,4.549-4.619,7.545-2.246c3.146,2.49,1.33,5.279-0.787,7.711c-5.24,6.016-10.438,12.063-15.672,18.086
		c-3.379,3.893-6.768,7.775-10.186,11.639c-3.328,3.758-5.295,3.92-8.668,0.525c-4.569-4.602-9.011-9.332-13.56-13.955
		c-2.17-2.205-2.978-4.729-0.668-6.984c2.354-2.307,4.808-1.27,6.928,0.957C124.54,137.99,128.304,141.732,132.239,145.732z"/>
	<path d="M75.925,24.454c0-3.82-3.101-6.918-6.916-6.918l0,0c-3.818,0-6.918,3.098-6.918,6.918V45.62c0,3.819,3.1,6.916,6.918,6.916
		l0,0c3.815,0,6.916-3.097,6.916-6.916V24.454z"/>
	<path d="M103.925,24.454c0-3.82-3.101-6.918-6.916-6.918l0,0c-3.818,0-6.918,3.098-6.918,6.918V45.62
		c0,3.819,3.1,6.916,6.918,6.916l0,0c3.815,0,6.916-3.097,6.916-6.916V24.454z"/>
	<path d="M132.091,24.454c0-3.82-3.099-6.918-6.916-6.918l0,0c-3.816,0-6.918,3.098-6.918,6.918V45.62
		c0,3.819,3.102,6.916,6.918,6.916l0,0c3.817,0,6.916-3.097,6.916-6.916V24.454z"/>
	<path d="M159.758,24.454c0-3.82-3.1-6.918-6.916-6.918l0,0c-3.817,0-6.916,3.098-6.916,6.918V45.62
		c0,3.819,3.099,6.916,6.916,6.916l0,0c3.816,0,6.916-3.097,6.916-6.916V24.454z"/>
	<path d="M187.926,24.454c0-3.82-3.1-6.918-6.916-6.918l0,0c-3.819,0-6.918,3.098-6.918,6.918V45.62
		c0,3.819,3.099,6.916,6.918,6.916l0,0c3.816,0,6.916-3.097,6.916-6.916V24.454z"/>
	<path fill="#020202" d="M134.09,32.72h9.835"/>
	<path d="M215.758,24.454c0-3.82-3.1-6.918-6.916-6.918l0,0c-3.817,0-6.916,3.098-6.916,6.918V45.62
		c0,3.819,3.099,6.916,6.916,6.916l0,0c3.816,0,6.916-3.097,6.916-6.916V24.454z"/>
</g>
<g enable-background="new    ">
	<path d="M45.769,227.921h2.473v16.776h-2.473V227.921z"/>
	<path d="M51.36,233.178h2.354v1.655c0.544-0.688,1.212-1.194,2.004-1.522s1.62-0.492,2.481-0.492c1.537,0,2.682,0.408,3.435,1.225
		c0.752,0.814,1.128,1.912,1.128,3.288v7.368h-2.424v-7.129c0-1.871-0.896-2.809-2.688-2.809c-0.769,0-1.483,0.18-2.147,0.539
		c-0.663,0.36-1.235,0.909-1.718,1.645v7.754h-2.424L51.36,233.178L51.36,233.178z"/>
	<path d="M67.464,244.757c-0.896-0.198-1.602-0.468-2.111-0.804v-2.063c0.623,0.366,1.344,0.668,2.16,0.897
		c0.813,0.231,1.605,0.351,2.375,0.351c0.862,0,1.496-0.104,1.896-0.313c0.4-0.209,0.602-0.544,0.602-1.009
		c0-0.353-0.094-0.635-0.275-0.854c-0.185-0.216-0.496-0.411-0.936-0.588c-0.441-0.176-1.104-0.384-1.98-0.624
		c-0.944-0.271-1.692-0.548-2.244-0.828c-0.553-0.278-0.969-0.636-1.248-1.065c-0.278-0.435-0.42-0.992-0.42-1.682
		c0-1.104,0.438-1.939,1.311-2.509c0.87-0.565,2.043-0.853,3.516-0.853c0.769,0,1.521,0.072,2.256,0.217
		c0.735,0.145,1.328,0.345,1.775,0.6v2.018c-0.464-0.271-1.035-0.487-1.715-0.647c-0.684-0.159-1.373-0.239-2.076-0.239
		c-0.851,0-1.496,0.104-1.944,0.313s-0.673,0.575-0.673,1.104c0,0.336,0.097,0.606,0.289,0.814c0.19,0.208,0.5,0.389,0.924,0.54
		s1.102,0.348,2.027,0.588c1.456,0.399,2.469,0.872,3.037,1.416c0.564,0.544,0.852,1.296,0.852,2.256
		c0,0.992-0.408,1.784-1.225,2.376c-0.815,0.594-2.023,0.891-3.623,0.891C69.208,245.059,68.36,244.957,67.464,244.757z"/>
	<path d="M79.561,244.337c-0.992-0.479-1.765-1.18-2.315-2.101c-0.553-0.92-0.828-2.012-0.828-3.275
		c0-1.263,0.275-2.355,0.828-3.275s1.327-1.627,2.327-2.123s2.147-0.744,3.444-0.744c1.76,0,3.168,0.345,4.224,1.031v1.991
		c-1.04-0.72-2.368-1.079-3.981-1.079c-1.313,0-2.373,0.355-3.182,1.067s-1.213,1.756-1.213,3.132c0,1.377,0.4,2.416,1.2,3.12
		s1.849,1.058,3.144,1.058c1.616,0,3.01-0.386,4.178-1.152v1.969c-0.562,0.384-1.195,0.664-1.907,0.84
		c-0.712,0.178-1.548,0.266-2.509,0.266C81.688,245.059,80.552,244.816,79.561,244.337z"/>
	<path d="M90.024,233.178h2.352v2.063c0.48-0.704,1.156-1.224,2.028-1.56s1.884-0.506,3.036-0.506v1.896
		c-1.232,0-2.288,0.199-3.168,0.6c-0.881,0.4-1.488,1.032-1.824,1.896v7.129h-2.424V233.178z"/>
	<path d="M100.008,230.514c-0.272-0.271-0.407-0.606-0.407-1.009c0-0.399,0.135-0.735,0.407-1.008
		c0.271-0.271,0.606-0.408,1.009-0.408c0.416,0,0.764,0.138,1.043,0.408c0.28,0.272,0.42,0.608,0.42,1.008s-0.14,0.736-0.42,1.009
		c-0.279,0.271-0.627,0.407-1.043,0.407C100.616,230.921,100.28,230.785,100.008,230.514z M99.792,233.178h2.475v11.521h-2.475
		V233.178z"/>
	<path d="M107.304,244.757c-0.896-0.198-1.602-0.468-2.111-0.804v-2.063c0.623,0.366,1.344,0.668,2.16,0.897
		c0.813,0.231,1.605,0.351,2.375,0.351c0.864,0,1.496-0.104,1.896-0.313c0.4-0.209,0.602-0.544,0.602-1.009
		c0-0.353-0.092-0.635-0.275-0.854c-0.185-0.216-0.496-0.411-0.936-0.588c-0.441-0.176-1.104-0.384-1.98-0.624
		c-0.942-0.271-1.69-0.548-2.244-0.828c-0.553-0.278-0.969-0.636-1.248-1.065c-0.278-0.435-0.42-0.992-0.42-1.682
		c0-1.104,0.438-1.939,1.311-2.509c0.871-0.565,2.043-0.853,3.516-0.853c0.77,0,1.521,0.072,2.256,0.217
		c0.735,0.145,1.328,0.345,1.775,0.6v2.018c-0.464-0.271-1.035-0.487-1.715-0.647c-0.684-0.159-1.373-0.239-2.076-0.239
		c-0.849,0-1.496,0.104-1.944,0.313c-0.446,0.208-0.673,0.575-0.673,1.104c0,0.336,0.097,0.606,0.289,0.814
		c0.191,0.208,0.5,0.389,0.924,0.54c0.425,0.151,1.102,0.348,2.027,0.588c1.456,0.399,2.469,0.872,3.037,1.416
		c0.564,0.544,0.852,1.296,0.852,2.256c0,0.992-0.408,1.784-1.225,2.376c-0.815,0.594-2.023,0.891-3.623,0.891
		C109.048,245.059,108.2,244.957,107.304,244.757z"/>
	<path d="M116.856,236.563h7.656v1.992h-7.656V236.563z"/>
	<path d="M128.892,244.049c-0.632-0.672-0.947-1.623-0.947-2.855v-6.145h-1.752v-1.871h1.752v-3.455h2.447v3.455h2.832v1.871h-2.832
		v5.977c0,0.77,0.146,1.313,0.443,1.634c0.297,0.319,0.837,0.479,1.619,0.479c0.465,0,0.93-0.104,1.394-0.313v1.92
		c-0.608,0.208-1.36,0.313-2.256,0.313C130.424,245.059,129.523,244.723,128.892,244.049z"/>
	<path d="M138.66,244.325c-0.981-0.488-1.752-1.191-2.304-2.112c-0.553-0.92-0.828-2.004-0.828-3.252
		c0-1.23,0.271-2.313,0.816-3.238c0.543-0.929,1.311-1.646,2.304-2.147c0.991-0.505,2.136-0.757,3.432-0.757
		c1.298,0,2.44,0.252,3.435,0.757c0.991,0.504,1.764,1.221,2.313,2.147c0.553,0.926,0.828,2.008,0.828,3.238
		c0,1.248-0.274,2.332-0.828,3.252c-0.552,0.921-1.322,1.624-2.313,2.112c-0.992,0.487-2.138,0.731-3.435,0.731
		C140.784,245.057,139.644,244.813,138.66,244.325z M145.056,241.984c0.736-0.77,1.104-1.775,1.104-3.023
		c0-1.296-0.367-2.318-1.104-3.07c-0.735-0.752-1.729-1.129-2.978-1.129s-2.238,0.377-2.976,1.129s-1.104,1.774-1.104,3.07
		c0,1.248,0.368,2.256,1.104,3.023c0.735,0.769,1.728,1.151,2.976,1.151S144.32,242.753,145.056,241.984z"/>
	<path d="M151.704,230.514c-0.271-0.271-0.406-0.606-0.406-1.009c0-0.399,0.136-0.735,0.406-1.008
		c0.271-0.271,0.607-0.408,1.01-0.408c0.416,0,0.764,0.138,1.044,0.408c0.278,0.272,0.42,0.608,0.42,1.008s-0.142,0.736-0.42,1.009
		c-0.28,0.271-0.628,0.407-1.044,0.407C152.312,230.921,151.976,230.785,151.704,230.514z M151.487,233.178h2.475v11.521h-2.475
		V233.178z"/>
	<path d="M166.956,243.989c-0.84-0.712-1.26-1.677-1.26-2.892c0-1.281,0.403-2.271,1.211-2.967c0.811-0.693,1.957-1.044,3.444-1.044
		c1.584,0,2.929,0.32,4.032,0.96v-0.6c0-0.912-0.275-1.59-0.828-2.028s-1.42-0.659-2.604-0.659c-0.705,0-1.389,0.067-2.053,0.203
		c-0.664,0.139-1.26,0.324-1.787,0.563v-1.967c0.479-0.226,1.104-0.404,1.871-0.541c0.769-0.136,1.512-0.203,2.232-0.203
		c1.902,0,3.313,0.42,4.234,1.261c0.92,0.84,1.379,2.004,1.379,3.491v7.127h-2.277V243.4c-0.496,0.543-1.084,0.955-1.766,1.234
		c-0.681,0.279-1.509,0.422-2.482,0.422C168.911,245.059,167.796,244.701,166.956,243.989z M172.991,242.753
		c0.625-0.304,1.088-0.728,1.395-1.271v-1.563c-1.041-0.672-2.2-1.008-3.48-1.008c-0.928,0-1.619,0.181-2.076,0.54
		c-0.453,0.358-0.684,0.907-0.684,1.646c0,1.407,0.92,2.11,2.76,2.11C171.672,243.209,172.368,243.059,172.991,242.753z"/>
	<path d="M180.899,243.811c-0.792-0.832-1.188-1.943-1.188-3.336v-7.297h2.424v7.199c0,1.841,0.92,2.762,2.76,2.762
		c1.615,0,2.88-0.729,3.792-2.186v-7.775h2.424v11.521h-2.353v-1.633c-0.543,0.688-1.188,1.191-1.934,1.513
		s-1.548,0.479-2.412,0.479C182.863,245.059,181.691,244.643,180.899,243.811z"/>
	<path d="M197.855,238.673l-4.512-5.495h2.76l3.12,3.815l3.145-3.815h2.76l-4.512,5.495l4.943,6.024h-2.736l-3.6-4.344l-3.576,4.344
		h-2.736L197.855,238.673z"/>
</g>
<g enable-background="new    ">
	<path d="M47.101,272.262c-1.208-1.063-1.813-2.563-1.813-4.5c0-1.888,0.54-3.384,1.62-4.486c1.08-1.104,2.619-1.655,4.619-1.655
		c1.328,0,2.457,0.252,3.385,0.756c0.93,0.504,1.628,1.2,2.102,2.088c0.473,0.89,0.709,1.9,0.709,3.036v1.2H47.593
		c0.08,1.088,0.54,1.899,1.381,2.437c0.84,0.535,1.979,0.805,3.42,0.805c0.734,0,1.479-0.067,2.229-0.203
		c0.752-0.137,1.416-0.316,1.992-0.541v1.943c-0.513,0.209-1.188,0.381-2.026,0.518c-0.842,0.136-1.67,0.203-2.484,0.203
		C49.978,273.857,48.31,273.326,47.101,272.262z M55.44,266.994c-0.031-1.088-0.388-1.932-1.067-2.532
		c-0.681-0.601-1.644-0.899-2.892-0.899c-1.217,0-2.16,0.313-2.832,0.938s-1.023,1.456-1.057,2.496L55.44,266.994L55.44,266.994z
		 M51.864,256.555h2.568l-1.992,4.127h-2.207L51.864,256.555z"/>
	<path d="M58.921,261.979h2.566l3.384,8.279l3.386-8.279h2.566L65.928,273.5h-2.111L58.921,261.979z"/>
	<path d="M73.837,272.262c-1.209-1.063-1.813-2.563-1.813-4.5c0-1.888,0.541-3.384,1.621-4.486c1.079-1.104,2.619-1.655,4.619-1.655
		c1.328,0,2.456,0.252,3.385,0.756c0.928,0.504,1.627,1.2,2.1,2.088c0.474,0.89,0.708,1.9,0.708,3.036v1.2H74.328
		c0.08,1.088,0.539,1.899,1.38,2.437c0.842,0.535,1.979,0.805,3.422,0.805c0.733,0,1.479-0.067,2.229-0.203
		c0.752-0.137,1.416-0.316,1.992-0.541v1.943c-0.512,0.209-1.188,0.381-2.027,0.518c-0.84,0.136-1.668,0.203-2.482,0.203
		C76.713,273.857,75.045,273.326,73.837,272.262z M82.177,266.994c-0.032-1.088-0.391-1.932-1.068-2.532
		c-0.68-0.601-1.644-0.899-2.892-0.899c-1.216,0-2.16,0.313-2.832,0.938s-1.024,1.456-1.058,2.496L82.177,266.994L82.177,266.994z
		 M78.601,256.555h2.568l-1.992,4.127h-2.208L78.601,256.555z"/>
	<path d="M87.097,261.979h2.352v1.655c0.544-0.688,1.213-1.194,2.004-1.522c0.793-0.327,1.621-0.491,2.484-0.491
		c1.536,0,2.68,0.407,3.432,1.224s1.129,1.912,1.129,3.288v7.368h-2.424v-7.128c0-1.872-0.896-2.81-2.688-2.81
		c-0.771,0-1.484,0.182-2.147,0.539c-0.665,0.36-1.234,0.91-1.717,1.646v7.752h-2.424L87.097,261.979L87.097,261.979z"/>
	<path d="M102.829,272.262c-1.209-1.063-1.813-2.563-1.813-4.5c0-1.888,0.54-3.384,1.62-4.486c1.079-1.104,2.62-1.655,4.62-1.655
		c1.328,0,2.455,0.252,3.384,0.756c0.928,0.504,1.628,1.2,2.101,2.088c0.473,0.89,0.707,1.9,0.707,3.036v1.2H103.32
		c0.08,1.088,0.54,1.899,1.38,2.437c0.84,0.535,1.98,0.805,3.42,0.805c0.736,0,1.48-0.067,2.232-0.203
		c0.752-0.137,1.416-0.316,1.992-0.541v1.943c-0.515,0.209-1.188,0.381-2.028,0.518c-0.84,0.136-1.668,0.203-2.483,0.203
		C105.704,273.857,104.036,273.326,102.829,272.262z M111.169,266.994c-0.033-1.088-0.391-1.932-1.068-2.532
		c-0.68-0.601-1.646-0.899-2.893-0.899c-1.218,0-2.16,0.313-2.832,0.938c-0.674,0.624-1.023,1.456-1.058,2.496L111.169,266.994
		L111.169,266.994z"/>
	<path d="M116.089,261.979h2.303v1.655c0.545-0.672,1.16-1.176,1.849-1.512c0.689-0.336,1.399-0.504,2.136-0.504
		c0.93,0,1.664,0.155,2.209,0.468s0.943,0.788,1.199,1.428c0.514-0.623,1.143-1.096,1.885-1.416
		c0.743-0.317,1.491-0.479,2.243-0.479c1.408,0,2.425,0.355,3.048,1.068c0.625,0.711,0.938,1.764,0.938,3.153v7.656h-2.354v-7.345
		c0-0.943-0.176-1.611-0.525-2.004c-0.354-0.394-0.953-0.588-1.801-0.588c-1.218,0-2.207,0.526-2.978,1.584
		c0.032,0.238,0.048,0.631,0.048,1.176v7.177h-2.352v-7.345c0-0.943-0.16-1.611-0.48-2.004c-0.318-0.394-0.896-0.588-1.728-0.588
		c-1.216,0-2.304,0.688-3.267,2.063v7.872h-2.375L116.089,261.979L116.089,261.979z"/>
	<path d="M138.228,272.262c-1.208-1.063-1.813-2.563-1.813-4.5c0-1.888,0.54-3.384,1.62-4.486c1.08-1.104,2.619-1.655,4.619-1.655
		c1.328,0,2.457,0.252,3.385,0.756c0.93,0.504,1.629,1.2,2.102,2.088c0.473,0.89,0.709,1.9,0.709,3.036v1.2H138.72
		c0.08,1.088,0.54,1.899,1.381,2.437c0.84,0.535,1.979,0.805,3.42,0.805c0.734,0,1.479-0.067,2.229-0.203
		c0.753-0.137,1.416-0.316,1.992-0.541v1.943c-0.513,0.209-1.188,0.381-2.026,0.518c-0.842,0.136-1.668,0.203-2.484,0.203
		C141.104,273.857,139.437,273.326,138.228,272.262z M146.567,266.994c-0.031-1.088-0.388-1.932-1.065-2.532
		c-0.683-0.601-1.646-0.899-2.894-0.899c-1.217,0-2.16,0.313-2.832,0.938s-1.022,1.456-1.057,2.496L146.567,266.994L146.567,266.994
		z"/>
	<path d="M151.487,261.979h2.354v1.655c0.544-0.688,1.212-1.194,2.004-1.522c0.792-0.327,1.62-0.491,2.481-0.491
		c1.537,0,2.682,0.407,3.435,1.224c0.752,0.816,1.128,1.912,1.128,3.288v7.368h-2.424v-7.128c0-1.872-0.896-2.81-2.688-2.81
		c-0.769,0-1.483,0.182-2.146,0.539c-0.664,0.36-1.236,0.91-1.719,1.646v7.752h-2.424L151.487,261.979L151.487,261.979z"/>
	<path d="M167.626,272.85c-0.633-0.672-0.947-1.623-0.947-2.854v-6.146h-1.752v-1.871h1.752v-3.455h2.447v3.455h2.831v1.871h-2.831
		v5.979c0,0.77,0.146,1.313,0.443,1.632c0.296,0.319,0.836,0.479,1.619,0.479c0.465,0,0.929-0.104,1.393-0.313v1.92
		c-0.605,0.208-1.357,0.313-2.256,0.313C169.159,273.857,168.259,273.521,167.626,272.85z"/>
	<path d="M176.087,273.559c-0.896-0.199-1.602-0.469-2.111-0.805v-2.063c0.623,0.367,1.344,0.668,2.16,0.897
		c0.813,0.231,1.605,0.351,2.375,0.351c0.862,0,1.496-0.104,1.896-0.313c0.4-0.209,0.602-0.544,0.602-1.008
		c0-0.353-0.094-0.636-0.275-0.853c-0.186-0.218-0.496-0.412-0.936-0.588c-0.441-0.178-1.104-0.386-1.98-0.625
		c-0.944-0.271-1.692-0.549-2.244-0.828c-0.553-0.279-0.969-0.637-1.248-1.066c-0.28-0.434-0.42-0.992-0.42-1.68
		c0-1.104,0.438-1.94,1.311-2.511c0.87-0.565,2.043-0.852,3.516-0.852c0.768,0,1.521,0.071,2.256,0.216
		c0.735,0.146,1.328,0.346,1.775,0.602v2.017c-0.464-0.272-1.035-0.488-1.716-0.647c-0.683-0.16-1.372-0.24-2.075-0.24
		c-0.851,0-1.496,0.104-1.944,0.313s-0.673,0.576-0.673,1.104c0,0.336,0.097,0.606,0.289,0.814c0.19,0.208,0.5,0.391,0.924,0.54
		c0.424,0.152,1.101,0.349,2.027,0.588c1.456,0.4,2.469,0.872,3.037,1.416c0.564,0.544,0.852,1.298,0.852,2.257
		c0,0.991-0.408,1.783-1.225,2.377c-0.815,0.592-2.023,0.889-3.623,0.889C177.831,273.857,176.983,273.758,176.087,273.559z"/>
	<path d="M197.46,273.102c-0.923-0.504-1.643-1.215-2.16-2.136c-0.521-0.92-0.78-1.987-0.78-3.204c0-1.199,0.26-2.264,0.78-3.191
		c0.52-0.928,1.237-1.65,2.16-2.172c0.92-0.521,1.953-0.778,3.105-0.778c2.08,0,3.656,0.632,4.729,1.896v-7.752h2.425v17.735h-2.354
		v-1.681c-0.641,0.705-1.341,1.221-2.101,1.549c-0.762,0.326-1.66,0.492-2.7,0.492C199.415,273.857,198.38,273.605,197.46,273.102z
		 M203.724,271.158c0.744-0.52,1.268-1.221,1.572-2.102v-2.593c-0.272-0.88-0.789-1.584-1.549-2.11
		c-0.762-0.527-1.638-0.791-2.627-0.791c-0.785,0-1.492,0.176-2.125,0.525c-0.634,0.354-1.129,0.85-1.488,1.488
		c-0.359,0.64-0.539,1.367-0.539,2.184s0.18,1.547,0.539,2.186c0.361,0.641,0.854,1.133,1.488,1.477
		c0.633,0.346,1.34,0.518,2.125,0.518C202.111,271.938,202.979,271.678,203.724,271.158z"/>
	<path d="M212.171,272.262c-1.209-1.063-1.813-2.563-1.813-4.5c0-1.888,0.541-3.384,1.621-4.486
		c1.079-1.104,2.619-1.655,4.619-1.655c1.328,0,2.456,0.252,3.385,0.756c0.928,0.504,1.627,1.2,2.101,2.088
		c0.473,0.89,0.707,1.9,0.707,3.036v1.2h-10.128c0.08,1.088,0.539,1.899,1.38,2.437c0.842,0.535,1.979,0.805,3.422,0.805
		c0.733,0,1.479-0.067,2.229-0.203c0.752-0.137,1.416-0.316,1.992-0.541v1.943c-0.512,0.209-1.188,0.381-2.027,0.518
		c-0.84,0.136-1.668,0.203-2.482,0.203C215.047,273.857,213.379,273.326,212.171,272.262z M220.511,266.994
		c-0.032-1.088-0.391-1.932-1.068-2.532c-0.68-0.601-1.644-0.899-2.892-0.899c-1.216,0-2.16,0.313-2.832,0.938
		s-1.024,1.456-1.058,2.496L220.511,266.994L220.511,266.994z"/>
</g>
<g enable-background="new    ">
	<path d="M47.509,301.648c-0.633-0.674-0.947-1.623-0.947-2.855v-6.145H44.81v-1.871h1.752v-3.457h2.447v3.457h2.832v1.871h-2.832
		v5.977c0,0.768,0.146,1.313,0.442,1.632c0.296,0.32,0.836,0.48,1.62,0.48c0.463,0,0.928-0.104,1.394-0.313v1.92
		c-0.608,0.208-1.36,0.313-2.258,0.313C49.042,302.657,48.141,302.321,47.509,301.648z"/>
	<path d="M57.276,301.925c-0.981-0.488-1.752-1.189-2.303-2.112c-0.553-0.92-0.828-2.004-0.828-3.252
		c0-1.229,0.271-2.312,0.815-3.238c0.544-0.928,1.312-1.646,2.304-2.147s2.137-0.756,3.432-0.756c1.297,0,2.44,0.252,3.435,0.756
		c0.989,0.504,1.765,1.222,2.313,2.147c0.553,0.929,0.828,2.009,0.828,3.238c0,1.248-0.275,2.332-0.828,3.252
		c-0.551,0.923-1.324,1.624-2.313,2.112c-0.992,0.488-2.138,0.732-3.435,0.732C59.401,302.657,58.261,302.413,57.276,301.925z
		 M63.673,299.585c0.734-0.769,1.104-1.776,1.104-3.024c0-1.295-0.367-2.317-1.104-3.069c-0.737-0.753-1.729-1.13-2.979-1.13
		s-2.24,0.378-2.976,1.13c-0.736,0.752-1.104,1.774-1.104,3.069c0,1.248,0.369,2.258,1.104,3.024
		c0.733,0.768,1.728,1.152,2.976,1.152S62.937,300.353,63.673,299.585z"/>
	<path d="M69.913,290.777h2.354v1.654c0.544-0.688,1.213-1.195,2.004-1.522c0.793-0.328,1.621-0.492,2.484-0.492
		c1.536,0,2.68,0.408,3.432,1.224c0.752,0.816,1.129,1.912,1.129,3.289v7.367h-2.424v-7.128c0-1.872-0.896-2.808-2.688-2.808
		c-0.77,0-1.483,0.18-2.146,0.539c-0.665,0.358-1.236,0.908-1.717,1.645v7.752h-2.424v-11.52H69.913z"/>
	<path d="M95.856,301.938c-0.992-0.479-1.764-1.181-2.314-2.101c-0.552-0.92-0.827-2.012-0.827-3.276
		c0-1.264,0.274-2.354,0.827-3.273s1.326-1.628,2.326-2.124s2.148-0.744,3.445-0.744c1.76,0,3.168,0.345,4.223,1.032v1.99
		c-1.039-0.721-2.365-1.08-3.981-1.08c-1.313,0-2.372,0.355-3.181,1.068c-0.81,0.711-1.213,1.756-1.213,3.131
		c0,1.377,0.399,2.416,1.199,3.12c0.801,0.704,1.85,1.059,3.146,1.059c1.613,0,3.008-0.386,4.176-1.152v1.968
		c-0.562,0.385-1.196,0.664-1.908,0.84c-0.712,0.178-1.548,0.267-2.508,0.267C97.984,302.657,96.849,302.417,95.856,301.938z"/>
	<path d="M106.321,284.561h2.424v7.801c1.104-1.297,2.576-1.942,4.416-1.942c1.535,0,2.682,0.408,3.434,1.226
		c0.752,0.814,1.128,1.912,1.128,3.287v7.367h-2.424v-7.128c0-1.872-0.896-2.81-2.688-2.81c-0.768,0-1.482,0.182-2.146,0.539
		c-0.665,0.361-1.236,0.91-1.718,1.646v7.752h-2.424L106.321,284.561L106.321,284.561z"/>
	<path d="M123.013,301.925c-0.984-0.488-1.752-1.189-2.305-2.112c-0.554-0.92-0.828-2.004-0.828-3.252
		c0-1.229,0.271-2.312,0.814-3.238c0.544-0.928,1.313-1.646,2.307-2.147c0.989-0.504,2.135-0.756,3.432-0.756
		c1.296,0,2.438,0.252,3.432,0.756s1.766,1.222,2.316,2.147c0.551,0.928,0.828,2.009,0.828,3.238c0,1.248-0.276,2.332-0.828,3.252
		c-0.553,0.923-1.324,1.624-2.316,2.112s-2.136,0.732-3.432,0.732C125.136,302.657,123.996,302.413,123.013,301.925z
		 M129.408,299.585c0.735-0.769,1.104-1.776,1.104-3.024c0-1.295-0.369-2.317-1.104-3.069c-0.733-0.753-1.728-1.13-2.976-1.13
		s-2.24,0.378-2.979,1.13c-0.735,0.752-1.104,1.774-1.104,3.069c0,1.248,0.367,2.258,1.104,3.024
		c0.737,0.767,1.729,1.152,2.979,1.152S128.673,300.353,129.408,299.585z"/>
	<path d="M136.056,288.113c-0.271-0.272-0.408-0.608-0.408-1.01c0-0.398,0.137-0.734,0.408-1.008
		c0.271-0.271,0.605-0.408,1.008-0.408c0.416,0,0.764,0.138,1.045,0.408c0.279,0.271,0.42,0.607,0.42,1.008
		c0,0.399-0.141,0.735-0.42,1.01c-0.281,0.271-0.629,0.406-1.045,0.406C136.663,288.521,136.327,288.385,136.056,288.113z
		 M135.84,290.777h2.472v11.52h-2.472V290.777z"/>
	<path d="M146.112,296.271l-4.512-5.494h2.76l3.119,3.813l3.145-3.813h2.762l-4.514,5.494l4.943,6.023h-2.735l-3.601-4.344
		l-3.576,4.344h-2.733L146.112,296.271z"/>
	<path d="M156.84,301.024h2.544l-2.279,4.822h-2.209L156.84,301.024z"/>
	<path d="M172.235,301.061c-1.208-1.063-1.812-2.563-1.812-4.5c0-1.888,0.54-3.384,1.62-4.485c1.078-1.104,2.617-1.656,4.617-1.656
		c1.328,0,2.457,0.252,3.387,0.756c0.928,0.505,1.628,1.2,2.1,2.089c0.473,0.889,0.709,1.899,0.709,3.035v1.2h-10.129
		c0.08,1.088,0.54,1.9,1.381,2.437c0.84,0.535,1.979,0.806,3.42,0.806c0.735,0,1.479-0.068,2.231-0.204
		c0.752-0.136,1.416-0.316,1.99-0.54v1.943c-0.513,0.208-1.188,0.38-2.026,0.517c-0.84,0.136-1.668,0.204-2.484,0.204
		C175.112,302.657,173.444,302.125,172.235,301.061z M180.575,295.793c-0.029-1.088-0.388-1.932-1.065-2.532
		c-0.683-0.6-1.646-0.899-2.894-0.899c-1.217,0-2.16,0.313-2.832,0.938s-1.022,1.456-1.057,2.496L180.575,295.793L180.575,295.793z"
		/>
	<path d="M187.235,301.648c-0.632-0.674-0.947-1.623-0.947-2.855v-6.145h-1.752v-1.871h1.752v-3.457h2.447v3.457h2.832v1.871h-2.832
		v5.977c0,0.768,0.148,1.313,0.444,1.632c0.296,0.32,0.836,0.48,1.62,0.48c0.463,0,0.928-0.104,1.392-0.313v1.92
		c-0.608,0.208-1.36,0.313-2.256,0.313C188.768,302.657,187.867,302.321,187.235,301.648z"/>
</g>
<g enable-background="new    ">
	<path d="M47.101,329.861c-1.208-1.063-1.813-2.563-1.813-4.5c0-1.89,0.54-3.386,1.62-4.487c1.08-1.104,2.619-1.656,4.619-1.656
		c1.328,0,2.457,0.252,3.385,0.756c0.93,0.504,1.628,1.2,2.102,2.089c0.473,0.889,0.709,1.899,0.709,3.035v1.2H47.593
		c0.08,1.088,0.54,1.9,1.381,2.438c0.84,0.536,1.979,0.805,3.42,0.805c0.734,0,1.479-0.068,2.229-0.204s1.416-0.316,1.992-0.54
		v1.943c-0.513,0.208-1.188,0.38-2.026,0.517c-0.842,0.136-1.67,0.204-2.484,0.204C49.978,331.458,48.31,330.926,47.101,329.861z
		 M55.44,324.594c-0.031-1.088-0.388-1.932-1.067-2.532c-0.681-0.6-1.644-0.897-2.892-0.897c-1.217,0-2.16,0.312-2.832,0.936
		s-1.023,1.456-1.057,2.496L55.44,324.594L55.44,324.594z M51.864,314.153h2.568l-1.992,4.128h-2.207L51.864,314.153z"/>
	<path d="M63.024,330.737c-0.992-0.479-1.764-1.182-2.314-2.102c-0.552-0.92-0.827-2.012-0.827-3.274
		c0-1.266,0.274-2.355,0.827-3.275s1.326-1.628,2.326-2.124s2.148-0.744,3.445-0.744c1.76,0,3.168,0.346,4.223,1.032v1.991
		c-1.039-0.72-2.365-1.079-3.981-1.079c-1.313,0-2.372,0.354-3.181,1.066c-0.81,0.713-1.213,1.757-1.213,3.133
		c0,1.377,0.399,2.416,1.199,3.12c0.801,0.702,1.85,1.057,3.146,1.057c1.613,0,3.008-0.385,4.176-1.152v1.968
		c-0.562,0.386-1.196,0.664-1.908,0.842c-0.712,0.176-1.548,0.265-2.508,0.265C65.152,331.458,64.017,331.218,63.024,330.737z"/>
	<path d="M73.489,313.361h2.424v7.801c1.104-1.297,2.576-1.944,4.416-1.944c1.535,0,2.682,0.408,3.434,1.226
		c0.752,0.814,1.128,1.91,1.128,3.288v7.366h-2.424v-7.128c0-1.872-0.896-2.808-2.688-2.808c-0.768,0-1.482,0.18-2.146,0.539
		c-0.665,0.358-1.236,0.909-1.716,1.645v7.752h-2.426L73.489,313.361L73.489,313.361z"/>
	<path d="M88.308,330.39c-0.84-0.712-1.26-1.676-1.26-2.892c0-1.28,0.402-2.27,1.213-2.965c0.807-0.695,1.955-1.044,3.441-1.044
		c1.584,0,2.93,0.318,4.032,0.96v-0.602c0-0.911-0.274-1.588-0.828-2.026c-0.552-0.439-1.42-0.659-2.604-0.659
		c-0.703,0-1.39,0.065-2.052,0.203c-0.663,0.137-1.262,0.324-1.788,0.563v-1.968c0.479-0.225,1.104-0.404,1.872-0.54
		s1.513-0.204,2.23-0.204c1.903,0,3.315,0.42,4.235,1.26c0.92,0.842,1.381,2.006,1.381,3.492v7.128h-2.28V329.8
		c-0.496,0.544-1.084,0.956-1.765,1.236c-0.682,0.279-1.51,0.42-2.483,0.42C90.265,331.458,89.148,331.102,88.308,330.39z
		 M94.345,329.153c0.623-0.306,1.088-0.729,1.392-1.271v-1.561c-1.04-0.672-2.2-1.008-3.479-1.008c-0.931,0-1.621,0.181-2.076,0.54
		c-0.457,0.358-0.687,0.906-0.687,1.645c0,1.408,0.922,2.111,2.763,2.111C93.024,329.609,93.72,329.458,94.345,329.153z"/>
	<path d="M101.185,319.578h2.352v1.655c0.543-0.688,1.212-1.195,2.004-1.523c0.794-0.328,1.62-0.492,2.484-0.492
		c1.535,0,2.68,0.408,3.432,1.226c0.754,0.814,1.13,1.91,1.13,3.288v7.366h-2.426v-7.128c0-1.872-0.896-2.808-2.688-2.808
		c-0.769,0-1.484,0.18-2.147,0.539c-0.664,0.358-1.234,0.909-1.716,1.645v7.752h-2.424L101.185,319.578L101.185,319.578z"/>
	<path d="M119.315,336.426c-0.744-0.128-1.371-0.313-1.883-0.552v-1.992c1.199,0.544,2.592,0.815,4.176,0.815
		c1.487,0,2.571-0.323,3.252-0.974c0.68-0.646,1.021-1.628,1.021-2.938v-1.227c-1.059,1.267-2.607,1.896-4.656,1.896
		c-1.168,0-2.216-0.257-3.145-0.771c-0.93-0.512-1.655-1.229-2.186-2.158c-0.527-0.93-0.791-1.991-0.791-3.191
		c0-1.216,0.26-2.284,0.779-3.204c0.519-0.92,1.24-1.636,2.16-2.146c0.92-0.514,1.955-0.77,3.105-0.77
		c1.072,0,1.98,0.156,2.727,0.468c0.742,0.313,1.436,0.828,2.074,1.55v-1.655h2.354v10.941c0,1.97-0.548,3.478-1.646,4.524
		c-1.097,1.047-2.778,1.571-5.052,1.571C120.823,336.617,120.06,336.554,119.315,336.426z M124.333,328.746
		c0.761-0.528,1.275-1.232,1.549-2.112v-2.592c-0.307-0.896-0.828-1.6-1.572-2.112c-0.744-0.512-1.611-0.768-2.604-0.768
		c-0.782,0-1.49,0.172-2.124,0.516c-0.632,0.344-1.128,0.836-1.486,1.478c-0.36,0.641-0.54,1.368-0.54,2.185
		c0,0.832,0.18,1.563,0.54,2.195c0.358,0.633,0.854,1.125,1.486,1.477c0.633,0.354,1.342,0.528,2.124,0.528
		C122.696,329.538,123.571,329.273,124.333,328.746z"/>
	<path d="M132.755,329.861c-1.208-1.063-1.813-2.563-1.813-4.5c0-1.89,0.54-3.386,1.62-4.487c1.08-1.104,2.619-1.656,4.619-1.656
		c1.328,0,2.457,0.252,3.385,0.756s1.628,1.2,2.102,2.089c0.473,0.889,0.709,1.899,0.709,3.035v1.2h-10.131
		c0.08,1.088,0.54,1.9,1.383,2.438c0.84,0.536,1.979,0.805,3.42,0.805c0.733,0,1.479-0.068,2.229-0.204s1.416-0.316,1.992-0.54
		v1.943c-0.513,0.208-1.188,0.38-2.028,0.517c-0.84,0.136-1.668,0.204-2.482,0.204C135.632,331.458,133.964,330.926,132.755,329.861
		z M141.095,324.594c-0.031-1.088-0.39-1.932-1.067-2.532c-0.681-0.6-1.644-0.897-2.892-0.897c-1.217,0-2.16,0.312-2.832,0.936
		s-1.024,1.456-1.059,2.496L141.095,324.594L141.095,324.594z"/>
	<path d="M155.675,330.39c-0.84-0.712-1.262-1.676-1.262-2.892c0-1.28,0.404-2.27,1.213-2.965s1.955-1.044,3.443-1.044
		c1.584,0,2.928,0.318,4.031,0.96v-0.602c0-0.911-0.275-1.588-0.828-2.026c-0.551-0.439-1.42-0.659-2.604-0.659
		c-0.703,0-1.39,0.065-2.053,0.203c-0.664,0.137-1.261,0.324-1.788,0.563v-1.968c0.48-0.225,1.104-0.404,1.872-0.54
		c0.77-0.136,1.514-0.204,2.231-0.204c1.903,0,3.314,0.42,4.235,1.26c0.921,0.842,1.381,2.006,1.381,3.492v7.128h-2.28V329.8
		c-0.496,0.544-1.084,0.956-1.764,1.236c-0.682,0.279-1.51,0.42-2.484,0.42C157.631,331.458,156.515,331.102,155.675,330.39z
		 M161.711,329.153c0.624-0.306,1.088-0.729,1.392-1.271v-1.561c-1.04-0.672-2.199-1.008-3.479-1.008
		c-0.931,0-1.62,0.181-2.076,0.54c-0.456,0.358-0.687,0.906-0.687,1.645c0,1.408,0.92,2.111,2.763,2.111
		C160.392,329.609,161.087,329.458,161.711,329.153z"/>
	<path d="M166.991,319.578h2.567l3.384,8.279l3.385-8.279h2.567l-4.896,11.52h-2.112L166.991,319.578z"/>
	<path d="M181.907,329.861c-1.209-1.063-1.813-2.563-1.813-4.5c0-1.89,0.54-3.386,1.62-4.487c1.079-1.104,2.62-1.656,4.62-1.656
		c1.326,0,2.453,0.252,3.384,0.756c0.928,0.504,1.628,1.2,2.101,2.089c0.471,0.889,0.707,1.899,0.707,3.035v1.2h-10.128
		c0.08,1.088,0.54,1.9,1.38,2.438s1.98,0.805,3.42,0.805c0.736,0,1.48-0.068,2.232-0.204s1.416-0.316,1.992-0.54v1.943
		c-0.515,0.208-1.188,0.38-2.028,0.517c-0.84,0.136-1.668,0.204-2.483,0.204C184.782,331.458,183.114,330.926,181.907,329.861z
		 M190.247,324.594c-0.031-1.088-0.389-1.932-1.066-2.532c-0.682-0.6-1.646-0.897-2.895-0.897c-1.216,0-2.158,0.312-2.832,0.936
		c-0.672,0.624-1.021,1.456-1.056,2.496L190.247,324.594L190.247,324.594z"/>
	<path d="M197.831,330.737c-0.99-0.479-1.765-1.182-2.314-2.102c-0.553-0.92-0.828-2.012-0.828-3.274
		c0-1.266,0.275-2.355,0.828-3.275c0.552-0.92,1.328-1.628,2.328-2.124s2.146-0.744,3.441-0.744c1.762,0,3.168,0.346,4.227,1.032
		v1.991c-1.041-0.72-2.369-1.079-3.984-1.079c-1.313,0-2.372,0.354-3.18,1.066c-0.811,0.713-1.213,1.757-1.213,3.133
		c0,1.377,0.398,2.416,1.199,3.12c0.801,0.702,1.85,1.057,3.146,1.057c1.616,0,3.008-0.385,4.176-1.152v1.968
		c-0.56,0.386-1.194,0.664-1.905,0.842c-0.715,0.176-1.551,0.265-2.511,0.265C199.958,331.458,198.822,331.218,197.831,330.737z"/>
	<path d="M217.175,313.361h2.424v17.734h-2.424V313.361z"/>
	<path d="M224.05,329.861c-1.208-1.063-1.813-2.563-1.813-4.5c0-1.89,0.54-3.386,1.62-4.487c1.08-1.104,2.619-1.656,4.619-1.656
		c1.328,0,2.457,0.252,3.385,0.756s1.628,1.2,2.102,2.089c0.473,0.889,0.709,1.899,0.709,3.035v1.2H224.54
		c0.08,1.088,0.54,1.9,1.383,2.438c0.84,0.536,1.979,0.805,3.42,0.805c0.733,0,1.479-0.068,2.229-0.204s1.416-0.316,1.992-0.54
		v1.943c-0.513,0.208-1.188,0.38-2.028,0.517c-0.84,0.136-1.668,0.204-2.482,0.204C226.927,331.458,225.259,330.926,224.05,329.861z
		 M232.39,324.594c-0.031-1.088-0.388-1.932-1.067-2.532c-0.681-0.6-1.644-0.897-2.892-0.897c-1.217,0-2.16,0.312-2.832,0.936
		s-1.024,1.456-1.057,2.496L232.39,324.594L232.39,324.594z"/>
	<path d="M239.015,331.157c-0.896-0.199-1.603-0.468-2.113-0.804v-2.063c0.625,0.368,1.345,0.668,2.16,0.899
		c0.816,0.23,1.608,0.349,2.377,0.349c0.863,0,1.496-0.104,1.896-0.313c0.398-0.209,0.601-0.544,0.601-1.008
		c0-0.352-0.093-0.636-0.276-0.853c-0.185-0.216-0.496-0.411-0.937-0.588c-0.439-0.178-1.102-0.386-1.979-0.624
		c-0.942-0.271-1.69-0.548-2.244-0.828c-0.552-0.279-0.968-0.636-1.248-1.067c-0.278-0.433-0.42-0.992-0.42-1.68
		c0-1.104,0.438-1.94,1.31-2.509c0.87-0.567,2.044-0.854,3.516-0.854c0.771,0,1.521,0.072,2.257,0.216
		c0.735,0.146,1.327,0.347,1.776,0.602v2.017c-0.465-0.271-1.037-0.486-1.718-0.646c-0.681-0.159-1.371-0.239-2.075-0.239
		c-0.85,0-1.496,0.104-1.943,0.312c-0.448,0.208-0.672,0.576-0.672,1.104c0,0.336,0.096,0.607,0.287,0.813
		c0.19,0.21,0.5,0.391,0.925,0.54c0.423,0.152,1.1,0.35,2.028,0.59c1.454,0.398,2.467,0.872,3.034,1.416s0.853,1.296,0.853,2.256
		c0,0.992-0.407,1.784-1.223,2.376c-0.816,0.592-2.025,0.889-3.625,0.889C240.758,331.458,239.909,331.357,239.015,331.157z"/>
</g>
<g enable-background="new    ">
	<path d="M46.549,359.19c-0.842-0.714-1.262-1.678-1.262-2.894c0-1.28,0.403-2.269,1.212-2.965c0.81-0.695,1.956-1.044,3.443-1.044
		c1.584,0,2.929,0.32,4.033,0.96v-0.6c0-0.912-0.276-1.59-0.828-2.028c-0.553-0.439-1.42-0.659-2.604-0.659
		c-0.703,0-1.389,0.067-2.053,0.203c-0.664,0.137-1.26,0.324-1.788,0.563v-1.968c0.479-0.225,1.104-0.403,1.872-0.54
		c0.77-0.136,1.514-0.204,2.232-0.204c1.902,0,3.313,0.42,4.233,1.262c0.922,0.84,1.382,2.004,1.382,3.49v7.128h-2.279v-1.296
		c-0.496,0.544-1.084,0.956-1.766,1.236c-0.682,0.279-1.51,0.42-2.482,0.42C48.505,360.259,47.39,359.902,46.549,359.19z
		 M52.585,357.954c0.622-0.304,1.088-0.729,1.393-1.271v-1.561c-1.041-0.672-2.201-1.008-3.48-1.008
		c-0.928,0-1.618,0.181-2.074,0.54c-0.456,0.358-0.686,0.908-0.686,1.645c0,1.408,0.92,2.111,2.76,2.111
		C51.265,358.41,51.961,358.259,52.585,357.954z"/>
	<path d="M60.493,359.011c-0.793-0.832-1.188-1.942-1.188-3.336v-7.296h2.424v7.199c0,1.841,0.92,2.761,2.761,2.761
		c1.615,0,2.879-0.729,3.791-2.185v-7.775h2.424V359.9h-2.352v-1.634c-0.544,0.688-1.188,1.192-1.932,1.514
		c-0.744,0.318-1.551,0.479-2.412,0.479C62.456,360.259,61.284,359.843,60.493,359.011z"/>
	<path d="M75.564,359.25c-0.632-0.672-0.948-1.623-0.948-2.855v-6.145h-1.752v-1.871h1.752v-3.456h2.448v3.456h2.832v1.871h-2.832
		v5.977c0,0.77,0.147,1.313,0.444,1.634c0.296,0.318,0.836,0.479,1.619,0.479c0.465,0,0.929-0.104,1.393-0.313v1.92
		c-0.607,0.208-1.359,0.313-2.256,0.313C77.097,360.259,76.196,359.923,75.564,359.25z"/>
	<path d="M82.8,348.379h2.353v2.063c0.479-0.704,1.155-1.226,2.028-1.562c0.871-0.336,1.884-0.504,3.035-0.504v1.896
		c-1.232,0-2.287,0.198-3.168,0.6c-0.882,0.401-1.488,1.032-1.824,1.896v7.13H82.8V348.379z"/>
	<path d="M92.987,358.662c-1.208-1.063-1.812-2.563-1.812-4.5c0-1.888,0.54-3.384,1.62-4.487c1.08-1.103,2.617-1.656,4.617-1.656
		c1.328,0,2.457,0.253,3.387,0.758c0.928,0.504,1.628,1.198,2.1,2.088c0.473,0.888,0.709,1.898,0.709,3.036v1.198H93.479
		c0.08,1.089,0.54,1.9,1.381,2.438c0.84,0.536,1.979,0.805,3.42,0.805c0.735,0,1.479-0.066,2.231-0.204
		c0.752-0.136,1.416-0.314,1.99-0.54v1.943c-0.513,0.208-1.188,0.38-2.026,0.517c-0.839,0.138-1.668,0.204-2.484,0.204
		C95.864,360.259,94.196,359.727,92.987,358.662z M101.327,353.395c-0.029-1.088-0.388-1.932-1.065-2.53
		c-0.683-0.602-1.646-0.899-2.894-0.899c-1.217,0-2.159,0.313-2.832,0.938c-0.672,0.624-1.022,1.456-1.057,2.496h7.848V353.395
		L101.327,353.395z"/>
	<path d="M107.952,359.958c-0.896-0.199-1.601-0.468-2.111-0.804v-2.063c0.625,0.368,1.345,0.668,2.158,0.899
		c0.816,0.23,1.608,0.349,2.379,0.349c0.861,0,1.494-0.104,1.896-0.313s0.603-0.544,0.603-1.01c0-0.352-0.095-0.636-0.276-0.853
		c-0.187-0.216-0.496-0.411-0.938-0.588c-0.438-0.176-1.1-0.384-1.979-0.624c-0.944-0.271-1.692-0.548-2.244-0.828
		c-0.552-0.279-0.968-0.636-1.248-1.067c-0.28-0.433-0.42-0.99-0.42-1.68c0-1.104,0.436-1.938,1.308-2.509
		c0.872-0.567,2.044-0.854,3.518-0.854c0.769,0,1.521,0.072,2.257,0.218c0.735,0.145,1.327,0.345,1.776,0.6v2.017
		c-0.467-0.271-1.037-0.486-1.719-0.646c-0.68-0.159-1.372-0.239-2.074-0.239c-0.85,0-1.496,0.104-1.943,0.313
		c-0.448,0.208-0.672,0.574-0.672,1.104c0,0.336,0.096,0.607,0.287,0.815c0.19,0.208,0.5,0.389,0.925,0.54
		c0.423,0.15,1.1,0.348,2.028,0.588c1.453,0.398,2.467,0.872,3.033,1.416c0.568,0.544,0.854,1.296,0.854,2.256
		c0,0.992-0.407,1.784-1.224,2.376c-0.815,0.592-2.024,0.889-3.625,0.889C109.695,360.259,108.847,360.158,107.952,359.958z"/>
	<path d="M128.676,360.007c-0.938-0.168-1.7-0.396-2.292-0.685v-2.208c1.536,0.72,3.189,1.08,4.968,1.08
		c2.496,0,3.744-0.842,3.744-2.521c0-0.576-0.136-1.04-0.408-1.393c-0.272-0.354-0.664-0.66-1.176-0.925
		c-0.515-0.265-1.345-0.629-2.496-1.093c-1.584-0.64-2.729-1.344-3.433-2.11c-0.703-0.77-1.057-1.735-1.057-2.904
		c0-0.879,0.239-1.659,0.719-2.34c0.48-0.682,1.152-1.208,2.019-1.584c0.864-0.375,1.854-0.563,2.976-0.563
		c0.912,0,1.736,0.071,2.475,0.216c0.733,0.146,1.455,0.376,2.158,0.696v2.111c-1.393-0.624-2.801-0.938-4.225-0.938
		c-1.152,0-2.031,0.208-2.64,0.624c-0.609,0.416-0.912,1.008-0.912,1.775c0,0.528,0.132,0.973,0.396,1.332
		c0.267,0.358,0.656,0.681,1.178,0.96c0.521,0.28,1.293,0.629,2.314,1.045c1.137,0.464,2.032,0.903,2.688,1.319
		c0.653,0.416,1.153,0.924,1.5,1.522c0.344,0.602,0.516,1.35,0.516,2.244c0,1.456-0.521,2.584-1.56,3.384
		c-1.041,0.8-2.576,1.2-4.608,1.2C130.56,360.259,129.612,360.175,128.676,360.007z"/>
	<path d="M140.327,343.122h2.447v16.776h-2.447V343.122z M142.896,351.354l7.656-8.23h2.975l-7.655,8.23l8.138,8.546h-2.978
		L142.896,351.354z"/>
	<path d="M158.208,359.166c-1.344-0.729-2.398-1.755-3.168-3.084c-0.769-1.327-1.15-2.848-1.15-4.562c0-1.712,0.384-3.229,1.15-4.56
		c0.77-1.328,1.824-2.36,3.168-3.097c1.346-0.735,2.85-1.104,4.514-1.104s3.168,0.368,4.512,1.104
		c1.344,0.734,2.4,1.769,3.168,3.097c0.77,1.328,1.152,2.848,1.152,4.56c0,1.714-0.385,3.232-1.152,4.562s-1.824,2.354-3.168,3.084
		c-1.344,0.729-2.848,1.093-4.512,1.093S159.552,359.895,158.208,359.166z M165.948,357.246c0.967-0.535,1.73-1.296,2.291-2.279
		c0.563-0.982,0.84-2.132,0.84-3.442c0-1.298-0.273-2.438-0.826-3.421s-1.309-1.743-2.27-2.279c-0.96-0.536-2.031-0.805-3.216-0.805
		c-1.2,0-2.284,0.265-3.252,0.791c-0.968,0.528-1.736,1.288-2.304,2.28c-0.568,0.992-0.854,2.136-0.854,3.434
		c0,1.313,0.28,2.46,0.841,3.442c0.561,0.983,1.323,1.744,2.291,2.279c0.971,0.536,2.044,0.805,3.229,0.805
		C163.903,358.051,164.979,357.782,165.948,357.246z"/>
	<path d="M177.911,359.166c-1.344-0.729-2.398-1.755-3.168-3.084c-0.768-1.327-1.15-2.848-1.15-4.562c0-1.712,0.385-3.229,1.15-4.56
		c0.769-1.329,1.824-2.36,3.168-3.097c1.346-0.735,2.85-1.104,4.514-1.104s3.168,0.368,4.512,1.104
		c1.345,0.734,2.4,1.769,3.168,3.097c0.77,1.328,1.152,2.848,1.152,4.56c0,1.714-0.385,3.232-1.152,4.562s-1.823,2.354-3.168,3.084
		c-1.344,0.729-2.848,1.093-4.512,1.093S179.255,359.895,177.911,359.166z M185.651,357.246c0.968-0.535,1.731-1.296,2.292-2.279
		c0.562-0.982,0.84-2.132,0.84-3.442c0-1.298-0.274-2.438-0.828-3.421c-0.552-0.983-1.308-1.743-2.269-2.279
		c-0.959-0.536-2.031-0.805-3.215-0.805c-1.201,0-2.285,0.265-3.252,0.791c-0.969,0.528-1.736,1.288-2.307,2.28
		c-0.567,0.992-0.852,2.136-0.852,3.434c0,1.313,0.279,2.46,0.84,3.442c0.562,0.983,1.324,1.744,2.292,2.279
		c0.968,0.536,2.044,0.805,3.229,0.805C183.606,358.051,184.683,357.782,185.651,357.246z"/>
	<path d="M193.896,343.122h2.328l8.543,12.646v-12.646h2.473v16.776h-2.353l-8.544-12.648v12.648h-2.447V343.122L193.896,343.122z"
		/>
	<path d="M210.358,343.122h11.064v2.063h-8.616v5.306h6.433v2.04h-6.433v5.328h8.616v2.04h-11.064V343.122z"/>
	<path d="M223.942,343.122h6.744c1.792,0,3.168,0.433,4.129,1.296c0.959,0.864,1.439,2.129,1.439,3.792
		c0,1.232-0.328,2.276-0.984,3.133c-0.656,0.855-1.584,1.438-2.783,1.739l3.695,6.816h-2.544l-3.575-6.624h-3.673v6.624h-2.448
		V343.122L223.942,343.122z M230.278,351.21c1.072,0,1.924-0.252,2.557-0.756c0.634-0.504,0.947-1.251,0.947-2.244
		c0-1.087-0.308-1.863-0.924-2.327c-0.615-0.464-1.476-0.696-2.58-0.696h-3.888v6.023H230.278z"/>
	<path d="M240.706,360.007c-0.936-0.168-1.697-0.396-2.291-0.685v-2.208c1.535,0.72,3.191,1.08,4.969,1.08
		c2.496,0,3.744-0.842,3.744-2.521c0-0.576-0.138-1.04-0.408-1.393c-0.271-0.354-0.664-0.66-1.176-0.925
		c-0.514-0.265-1.346-0.629-2.496-1.093c-1.584-0.64-2.729-1.344-3.434-2.11c-0.703-0.77-1.056-1.735-1.056-2.904
		c0-0.879,0.239-1.659,0.72-2.34c0.481-0.682,1.152-1.208,2.018-1.584c0.863-0.375,1.854-0.563,2.977-0.563
		c0.912,0,1.736,0.071,2.475,0.216c0.732,0.146,1.453,0.376,2.157,0.696v2.111c-1.392-0.624-2.8-0.938-4.224-0.938
		c-1.152,0-2.032,0.208-2.641,0.624c-0.607,0.416-0.912,1.008-0.912,1.775c0,0.528,0.133,0.973,0.396,1.332
		c0.265,0.358,0.656,0.681,1.176,0.96c0.521,0.28,1.293,0.629,2.316,1.045c1.136,0.464,2.031,0.903,2.688,1.319
		c0.655,0.416,1.154,0.924,1.5,1.522c0.344,0.602,0.516,1.35,0.516,2.244c0,1.456-0.521,2.584-1.559,3.384
		c-1.041,0.8-2.577,1.2-4.609,1.2C242.591,360.259,241.643,360.175,240.706,360.007z"/>
	<path d="M252.202,359.574c-0.217-0.216-0.322-0.483-0.322-0.806c0-0.319,0.105-0.592,0.322-0.814
		c0.218-0.223,0.483-0.336,0.806-0.336c0.317,0,0.592,0.112,0.813,0.336c0.226,0.225,0.336,0.496,0.336,0.814
		c0,0.32-0.109,0.59-0.336,0.806c-0.224,0.216-0.496,0.324-0.813,0.324C252.686,359.898,252.417,359.79,252.202,359.574z"/>
</g>
</svg>
