<?xml version="1.0" encoding="utf-8"?>
<!-- Generator: Adobe Illustrator 16.0.0, SVG Export Plug-In . SVG Version: 6.00 Build 0)  -->
<!DOCTYPE svg PUBLIC "-//W3C//DTD SVG 1.1//EN" "http://www.w3.org/Graphics/SVG/1.1/DTD/svg11.dtd">
<svg version="1.1" id="Calque_1" xmlns="http://www.w3.org/2000/svg" xmlns:xlink="http://www.w3.org/1999/xlink" x="0px" y="0px"
	 width="174.98px" height="186.117px" viewBox="0 0 174.98 186.117" enable-background="new 0 0 174.98 186.117"
	 xml:space="preserve">
<path fill="#020202" d="M92.834,15.184h-9.834v13.334c0,4.925-3.992,8.917-8.916,8.917l0,0c-4.926,0-8.918-3.992-8.918-8.917V15.184
	H54.833v13.334c0,4.925-3.992,8.917-8.916,8.917l0,0c-4.926,0-8.918-3.992-8.918-8.917V15.184H26.833v13.334
	c0,4.925-3.992,8.917-8.916,8.917l0,0c-4.926,0-8.918-3.992-8.918-8.917V15.564l-0.001-0.381c-5.175,1.333-8.999,6.031-8.999,11.621
	v147.313c0,6.627,5.373,12,12,12h150.979c6.627,0,12-5.373,12-12h0.002V26.805c0-5.385-3.43-9.521-8.314-11.041v12.754
	c0,4.925-3.992,8.917-8.916,8.917l0,0c-4.924,0-8.916-3.992-8.916-8.917V15.184h-10v13.334c0,4.925-3.992,8.917-8.916,8.917l0,0
	c-4.926,0-8.918-3.992-8.918-8.917V15.184h-10.334v13.334c0,4.925-3.992,8.917-8.916,8.917l0,0c-4.924,0-8.916-3.992-8.916-8.917
	V15.184"/>
<path fill="#FFFFFF" d="M8.36,59.366c53.027,0,105.318,0,158.21,0c0.105,1.929,0.283,3.673,0.285,5.416
	c0.025,34.993,0.033,69.987,0.037,104.979c0,7.309-1.77,9.069-9.176,9.073c-46.658,0.023-93.314,0.037-139.973,0.043
	c-7.852,0-9.646-1.868-9.646-9.766C8.1,134.286,8.079,99.46,8.085,64.633C8.087,63.006,8.251,61.377,8.36,59.366z M87.512,165.251
	c26.275,0.117,47.431-20.389,47.755-46.282c0.324-25.928-20.871-47.039-47.357-47.172c-26.518-0.133-47.66,20.58-47.74,46.771
	C40.094,144.247,61.274,165.137,87.512,165.251z"/>
<path d="M87.512,165.251c-26.238-0.114-47.421-21.004-47.343-46.686c0.08-26.188,21.224-46.901,47.74-46.771
	c26.487,0.133,47.682,21.244,47.358,47.173C134.943,144.862,113.787,165.368,87.512,165.251z M87.768,157.297
	c21.662,0.036,39.613-17.49,39.519-38.589c-0.096-21.631-17.904-39.216-39.619-39.12c-21.785,0.097-39.617,17.745-39.623,39.223
	C48.036,139.864,65.989,157.258,87.768,157.297z"/>
<path fill="#FFFFFF" d="M87.768,157.297c-21.779-0.037-39.73-17.433-39.726-38.486c0.008-21.478,17.84-39.125,39.625-39.223
	c21.715-0.096,39.524,17.489,39.62,39.12C127.381,139.805,109.429,157.333,87.768,157.297z M81.147,128.196
	c-3.935-4-7.697-7.742-11.359-11.582c-2.125-2.227-4.57-3.264-6.928-0.957c-2.307,2.256-1.504,4.779,0.666,6.984
	c4.551,4.623,8.986,9.354,13.557,13.955c3.375,3.395,5.34,3.231,8.668-0.525c3.417-3.859,6.808-7.746,10.187-11.639
	c5.229-6.021,10.432-12.07,15.672-18.086c2.117-2.431,3.936-5.218,0.787-7.711c-2.996-2.373-5.566-0.423-7.545,2.246
	c-0.596,0.799-1.314,1.502-1.971,2.256C95.713,111.4,88.547,119.663,81.147,128.196z"/>
<path d="M81.147,128.196c7.4-8.533,14.566-16.797,21.734-25.059c0.654-0.754,1.375-1.457,1.967-2.256
	c1.979-2.671,4.549-4.619,7.545-2.246c3.148,2.491,1.33,5.28-0.787,7.711c-5.24,6.016-10.441,12.063-15.672,18.086
	c-3.379,3.893-6.766,7.776-10.184,11.639c-3.328,3.758-5.295,3.92-8.668,0.525c-4.57-4.601-9.008-9.332-13.557-13.955
	c-2.17-2.205-2.976-4.729-0.668-6.984c2.356-2.307,4.805-1.27,6.928,0.957C73.448,120.454,77.212,124.196,81.147,128.196z"/>
<path d="M24.833,6.918c0-3.82-3.098-6.918-6.916-6.918l0,0c-3.819,0-6.918,3.098-6.918,6.918v21.166
	c0,3.819,3.099,6.916,6.918,6.916l0,0c3.818,0,6.916-3.097,6.916-6.916V6.918z"/>
<path d="M52.833,6.918c0-3.82-3.098-6.918-6.916-6.918l0,0c-3.819,0-6.918,3.098-6.918,6.918v21.166
	c0,3.819,3.099,6.916,6.918,6.916l0,0c3.818,0,6.916-3.097,6.916-6.916V6.918z"/>
<path d="M80.999,6.918c0-3.82-3.096-6.918-6.916-6.918l0,0c-3.817,0-6.918,3.098-6.918,6.918v21.166
	c0,3.819,3.101,6.916,6.918,6.916l0,0c3.82,0,6.916-3.097,6.916-6.916V6.918z"/>
<path d="M108.666,6.918c0-3.82-3.096-6.918-6.916-6.918l0,0c-3.818,0-6.916,3.098-6.916,6.918v21.166
	c0,3.819,3.098,6.916,6.916,6.916l0,0c3.82,0,6.916-3.097,6.916-6.916V6.918z"/>
<path d="M136.834,6.918c0-3.82-3.096-6.918-6.916-6.918l0,0C126.097,0,123,3.098,123,6.918v21.166c0,3.819,3.098,6.916,6.918,6.916
	l0,0c3.82,0,6.916-3.097,6.916-6.916V6.918z"/>
<path fill="#020202" d="M82.998,15.184h9.835"/>
<path d="M164.666,6.918c0-3.82-3.096-6.918-6.916-6.918l0,0c-3.818,0-6.916,3.098-6.916,6.918v21.166
	c0,3.819,3.098,6.916,6.916,6.916l0,0c3.82,0,6.916-3.097,6.916-6.916V6.918z"/>
</svg>
