<?xml version="1.0" encoding="utf-8"?>
<!-- Generator: Adobe Illustrator 16.0.0, SVG Export Plug-In . SVG Version: 6.00 Build 0)  -->
<!DOCTYPE svg PUBLIC "-//W3C//DTD SVG 1.1//EN" "http://www.w3.org/Graphics/SVG/1.1/DTD/svg11.dtd">
<svg version="1.1" id="Calque_1" xmlns="http://www.w3.org/2000/svg" xmlns:xlink="http://www.w3.org/1999/xlink" x="0px" y="0px"
	 width="427.414px" height="199.992px" viewBox="0 0 427.414 199.992" enable-background="new 0 0 427.414 199.992"
	 xml:space="preserve">
<path fill="#49ADA1" d="M32.925,199.992c-11.301,0-19.409-2.457-24.322-7.371c-4.915-5.074-7.617-13.43-8.109-25.061
	c-0.165-7.533-0.245-14.168-0.245-19.898c0-5.897,0.245-12.697,0.737-20.395h15.479c-0.328,7.208-0.491,14.416-0.491,21.621
	s0.163,14.246,0.491,21.129c0.327,5.568,1.72,9.666,4.175,12.283c2.457,2.457,6.553,3.688,12.285,3.688
	c5.405,0,9.255-1.23,11.547-3.688c2.458-2.617,3.849-6.715,4.177-12.283c0.328-4.586,0.491-8.68,0.491-12.283
	s-0.083-7.288-0.246-11.059c0-3.93-0.082-8.436-0.246-13.512c-0.164-6.225-1.064-11.386-2.703-15.479
	c-1.475-4.095-4.505-6.713-9.092-7.862l-13.021-3.438c-9.5-2.293-15.725-6.47-18.672-12.529c-2.947-6.061-4.586-14.742-4.914-26.044
	C0.083,62.407,0,56.592,0,50.368c0.164-6.225,0.327-12.284,0.491-18.181C0.656,20.722,3.194,12.531,8.107,7.618
	c4.914-5.078,13.187-7.617,24.815-7.617c10.811,0,18.591,2.539,23.341,7.617c4.914,4.914,7.616,13.104,8.108,24.569
	c0,4.586,0,10.237,0,16.952c0,6.552-0.083,13.431-0.247,20.638H48.4c0.164-6.552,0.246-13.185,0.246-19.9
	c0-6.716-0.082-13.432-0.246-20.147c-0.328-10.483-5.568-15.725-15.724-15.725c-5.569,0-9.583,1.311-12.04,3.932
	c-2.292,2.457-3.602,6.388-3.93,11.793c-0.328,6.389-0.492,12.775-0.492,19.164c0,6.225,0.164,12.53,0.492,18.918
	c0.165,7.371,0.983,12.858,2.457,16.461c1.638,3.604,4.914,6.061,9.828,7.371l12.039,2.948c9.664,2.293,15.969,6.552,18.918,12.777
	c3.112,6.223,4.832,14.82,5.158,25.797c0.165,5.076,0.247,9.336,0.247,12.773c0,3.441-0.082,6.799-0.247,10.076
	c0,3.273,0,7.121,0,11.547c-0.49,11.629-3.193,19.984-8.107,25.061C52.089,197.535,44.063,199.992,32.925,199.992z"/>
<path fill="#49ADA1" d="M89.497,198.271V1.72h17.198l-0.246,41.521l-2.457,55.28h4.178l15.723-54.788L137.407,1.72h17.936
	l-29.237,87.957l32.431,108.594h-16.955l-25.797-88.938l-9.827,25.551v63.389H89.497V198.271z"/>
<path fill="#49ADA1" d="M204.236,199.992c-11.302,0-19.492-2.457-24.569-7.371c-4.914-4.914-7.454-13.104-7.616-24.57
	c-0.491-23.42-0.738-46.023-0.738-67.81c0-21.947,0.247-44.715,0.738-68.301c0.163-11.466,2.702-19.655,7.616-24.568
	C184.744,2.458,192.934,0,204.236,0c11.467,0,19.655,2.458,24.568,7.372c4.917,4.913,7.537,13.102,7.863,24.568
	c0.326,23.586,0.492,46.354,0.492,68.301c0,21.785-0.166,44.39-0.492,67.81c-0.326,11.467-2.946,19.656-7.863,24.57
	C223.891,197.535,215.703,199.992,204.236,199.992z M204.236,185.988c5.732,0,9.827-1.146,12.285-3.441
	c2.456-2.291,3.684-6.303,3.684-12.037c0.819-24.076,1.149-47.745,0.985-71.003c0-23.26-0.327-46.6-0.985-70.022
	c0-5.732-1.228-9.746-3.684-12.04c-2.458-2.291-6.552-3.439-12.285-3.439c-5.57,0-9.583,1.148-12.039,3.439
	c-2.457,2.294-3.768,6.308-3.932,12.04c-0.654,23.423-0.983,46.762-0.983,70.022c0,23.258,0.329,46.927,0.983,71.003
	c0.164,5.734,1.475,9.746,3.932,12.037C194.654,184.839,198.666,185.988,204.236,185.988z"/>
<path fill="#49ADA1" d="M294.453,199.992c-11.303,0-19.494-2.457-24.57-7.371c-4.912-4.914-7.451-13.104-7.614-24.57
	c-0.492-23.42-0.739-46.023-0.739-67.81c0-21.947,0.247-44.715,0.739-68.301c0.163-11.466,2.702-19.655,7.614-24.568
	C274.958,2.458,283.151,0,294.453,0c11.465,0,19.655,2.458,24.569,7.372c4.912,4.913,7.531,13.102,7.86,24.568
	c0.326,23.586,0.49,46.354,0.49,68.301c0,21.785-0.164,44.39-0.49,67.81c-0.329,11.467-2.948,19.656-7.86,24.57
	C314.108,197.535,305.917,199.992,294.453,199.992z M294.453,185.988c5.73,0,9.828-1.146,12.281-3.441
	c2.46-2.291,3.688-6.303,3.688-12.037c0.82-24.076,1.147-47.745,0.981-71.003c0-23.26-0.325-46.6-0.981-70.022
	c0-5.732-1.228-9.746-3.688-12.04c-2.453-2.291-6.551-3.439-12.281-3.439c-5.57,0-9.582,1.148-12.041,3.439
	c-2.453,2.294-3.768,6.308-3.931,12.04c-0.653,23.423-0.983,46.762-0.983,70.022c0,23.258,0.33,46.927,0.983,71.003
	c0.163,5.734,1.478,9.746,3.931,12.037C284.871,184.839,288.882,185.988,294.453,185.988z"/>
<path fill="#49ADA1" d="M351.742,198.271V1.72h29.237l10.565,62.158l18.426,119.653h5.158l-2.455-112.774l-1.229-69.038h15.97
	v196.552h-29.975l-11.547-70.514l-16.46-111.296h-5.158l2.212,107.613l1.227,74.197H351.742L351.742,198.271z"/>
</svg>
