<svg width="168" height="79" viewBox="0 0 168 79" fill="none" xmlns="http://www.w3.org/2000/svg">
<path d="M12.952 78.672C8.53601 78.672 5.36801 77.712 3.44801 75.792C1.52801 73.808 0.472013 70.544 0.280013 66C0.216013 63.056 0.184013 60.464 0.184013 58.224C0.184013 55.92 0.280013 53.264 0.472013 50.256H6.52001C6.39201 53.072 6.32801 55.888 6.32801 58.704C6.32801 61.52 6.39201 64.272 6.52001 66.96C6.64801 69.136 7.19201 70.736 8.15201 71.76C9.11201 72.72 10.712 73.2 12.952 73.2C15.064 73.2 16.568 72.72 17.464 71.76C18.424 70.736 18.968 69.136 19.096 66.96C19.224 65.168 19.288 63.568 19.288 62.16C19.288 60.752 19.256 59.312 19.192 57.84C19.192 56.304 19.16 54.544 19.096 52.56C19.032 50.128 18.68 48.112 18.04 46.512C17.464 44.912 16.28 43.888 14.488 43.44L9.40001 42.096C5.68801 41.2 3.25601 39.568 2.10401 37.2C0.952013 34.832 0.312013 31.44 0.184013 27.024C0.120013 24.912 0.0880127 22.64 0.0880127 20.208C0.152013 17.776 0.216013 15.408 0.280013 13.104C0.344013 8.62401 1.33601 5.42402 3.25601 3.50402C5.17601 1.52002 8.40801 0.528015 12.952 0.528015C17.176 0.528015 20.216 1.52002 22.072 3.50402C23.992 5.42402 25.048 8.62401 25.24 13.104C25.24 14.896 25.24 17.104 25.24 19.728C25.24 22.288 25.208 24.976 25.144 27.792H19C19.064 25.232 19.096 22.64 19.096 20.016C19.096 17.392 19.064 14.768 19 12.144C18.872 8.04801 16.824 6.00001 12.856 6.00001C10.68 6.00001 9.11201 6.51201 8.15201 7.53602C7.25601 8.49602 6.74401 10.032 6.61601 12.144C6.48801 14.64 6.42401 17.136 6.42401 19.632C6.42401 22.064 6.48801 24.528 6.61601 27.024C6.68001 29.904 7.00001 32.048 7.57601 33.456C8.21601 34.864 9.49601 35.824 11.416 36.336L16.12 37.488C19.896 38.384 22.36 40.048 23.512 42.48C24.728 44.912 25.4 48.272 25.528 52.56C25.592 54.544 25.624 56.208 25.624 57.552C25.624 58.896 25.592 60.208 25.528 61.488C25.528 62.768 25.528 64.272 25.528 66C25.336 70.544 24.28 73.808 22.36 75.792C20.44 77.712 17.304 78.672 12.952 78.672Z" fill="#49ADA1"/>
<path d="M35.0568 78V1.20002H41.7768L41.6808 17.424L40.7208 39.024H42.3528L48.4968 17.616L53.7768 1.20002H60.7848L49.3608 35.568L62.0328 78H55.4088L45.3288 43.248L41.4888 53.232V78H35.0568Z" fill="#49ADA1"/>
<path d="M79.8895 78.672C75.4735 78.672 72.2735 77.712 70.2895 75.792C68.3695 73.872 67.3775 70.672 67.3135 66.192C67.1215 57.04 67.0255 48.208 67.0255 39.696C67.0255 31.12 67.1215 22.224 67.3135 13.008C67.3775 8.52802 68.3695 5.32802 70.2895 3.40802C72.2735 1.48802 75.4735 0.528015 79.8895 0.528015C84.3695 0.528015 87.5695 1.48802 89.4895 3.40802C91.4095 5.32802 92.4335 8.52802 92.5615 13.008C92.6895 22.224 92.7535 31.12 92.7535 39.696C92.7535 48.208 92.6895 57.04 92.5615 66.192C92.4335 70.672 91.4095 73.872 89.4895 75.792C87.5695 77.712 84.3695 78.672 79.8895 78.672ZM79.8895 73.2C82.1295 73.2 83.7295 72.752 84.6895 71.856C85.6495 70.96 86.1295 69.392 86.1295 67.152C86.4495 57.744 86.5775 48.496 86.5135 39.408C86.5135 30.32 86.3855 21.2 86.1295 12.048C86.1295 9.80801 85.6495 8.24001 84.6895 7.34401C83.7295 6.44801 82.1295 6.00001 79.8895 6.00001C77.7135 6.00001 76.1455 6.44801 75.1855 7.34401C74.2255 8.24001 73.7135 9.80801 73.6495 12.048C73.3935 21.2 73.2655 30.32 73.2655 39.408C73.2655 48.496 73.3935 57.744 73.6495 67.152C73.7135 69.392 74.2255 70.96 75.1855 71.856C76.1455 72.752 77.7135 73.2 79.8895 73.2Z" fill="#49ADA1"/>
<path d="M115.14 78.672C110.724 78.672 107.524 77.712 105.54 75.792C103.62 73.872 102.628 70.672 102.564 66.192C102.372 57.04 102.276 48.208 102.276 39.696C102.276 31.12 102.372 22.224 102.564 13.008C102.628 8.52802 103.62 5.32802 105.54 3.40802C107.524 1.48802 110.724 0.528015 115.14 0.528015C119.62 0.528015 122.82 1.48802 124.74 3.40802C126.66 5.32802 127.684 8.52802 127.812 13.008C127.94 22.224 128.004 31.12 128.004 39.696C128.004 48.208 127.94 57.04 127.812 66.192C127.684 70.672 126.66 73.872 124.74 75.792C122.82 77.712 119.62 78.672 115.14 78.672ZM115.14 73.2C117.38 73.2 118.98 72.752 119.94 71.856C120.9 70.96 121.38 69.392 121.38 67.152C121.7 57.744 121.828 48.496 121.764 39.408C121.764 30.32 121.636 21.2 121.38 12.048C121.38 9.80801 120.9 8.24001 119.94 7.34401C118.98 6.44801 117.38 6.00001 115.14 6.00001C112.964 6.00001 111.396 6.44801 110.436 7.34401C109.476 8.24001 108.964 9.80801 108.9 12.048C108.644 21.2 108.516 30.32 108.516 39.408C108.516 48.496 108.644 57.744 108.9 67.152C108.964 69.392 109.476 70.96 110.436 71.856C111.396 72.752 112.964 73.2 115.14 73.2Z" fill="#49ADA1"/>
<path d="M137.526 78V1.20002H148.95L153.078 25.488L160.278 72.24H162.294L161.334 28.176L160.854 1.20002H167.094V78H155.382L150.87 50.448L144.438 6.96002H142.422L143.286 49.008L143.766 78H137.526Z" fill="#49ADA1"/>
</svg>
